<?xml version="1.0" encoding="UTF-8" standalone="no"?>
<!DOCTYPE svg PUBLIC "-//W3C//DTD SVG 1.1//EN"
 "http://www.w3.org/Graphics/SVG/1.1/DTD/svg11.dtd">
<!-- Generated by graphviz version 2.40.1 (20161225.0304)
 -->
<!-- Title: DecisionGraph Pages: 1 -->
<svg width="719pt" height="992pt"
 viewBox="0.00 0.00 719.00 992.25" xmlns="http://www.w3.org/2000/svg" xmlns:xlink="http://www.w3.org/1999/xlink">
<g id="graph0" class="graph" transform="scale(1 1) rotate(0) translate(4 988.2496)">
<title>DecisionGraph</title>
<polygon fill="#ffffff" stroke="transparent" points="-4,4 -4,-988.2496 715,-988.2496 715,4 -4,4"/>
<g id="clust1" class="cluster">
<title>cluster_DecisionGraph_171</title>
<polygon fill="none" stroke="#000000" points="8,-8 8,-940.2496 703,-940.2496 703,-8 8,-8"/>
<text text-anchor="middle" x="355.5" y="-925.0496" font-family="Courier,monospace" font-size="14.00" fill="#000000">questionnaire_FAIR_MM.dg</text>
</g>
<g id="clust2" class="cluster">
<title>cluster_main</title>
<polygon fill="none" stroke="#aabbdd" points="16,-16 16,-910.2496 695,-910.2496 695,-16 16,-16"/>
<text text-anchor="middle" x="40.8027" y="-895.0496" font-family="Courier,monospace" font-size="14.00" fill="#000000">main</text>
</g>
<!-- start -->
<g id="node1" class="node">
<title>start</title>
<polygon fill="transparent" stroke="transparent" points="321,-984.2496 267,-984.2496 267,-948.2496 321,-948.2496 321,-984.2496"/>
<text text-anchor="middle" x="294" y="-962.6496" font-family="Helvetica,sans-Serif" font-size="12.00" fill="#3b8298">start</text>
</g>
<!-- main -->
<g id="node17" class="node">
<title>main</title>
<path fill="#3b8298" stroke="#ffffff" d="M232.4092,-843.7496C232.4092,-843.7496 355.5908,-843.7496 355.5908,-843.7496 361.5908,-843.7496 367.5908,-849.7496 367.5908,-855.7496 367.5908,-855.7496 367.5908,-867.7496 367.5908,-867.7496 367.5908,-873.7496 361.5908,-879.7496 355.5908,-879.7496 355.5908,-879.7496 232.4092,-879.7496 232.4092,-879.7496 226.4092,-879.7496 220.4092,-873.7496 220.4092,-867.7496 220.4092,-867.7496 220.4092,-855.7496 220.4092,-855.7496 220.4092,-849.7496 226.4092,-843.7496 232.4092,-843.7496"/>
<text text-anchor="middle" x="294" y="-863.7496" font-family="Helvetica,sans-Serif" font-size="10.00" fill="#ffffff">main</text>
<text text-anchor="middle" x="294" y="-853.7496" font-family="Helvetica,sans-Serif" font-size="10.00" fill="#ffffff">Are your data in a repository?</text>
</g>
<!-- start&#45;&gt;main -->
<g id="edge25" class="edge">
<title>start&#45;&gt;main</title>
<path fill="none" stroke="#3b8298" d="M294,-948.047C294,-948.047 294,-890.0941 294,-890.0941"/>
<polygon fill="#3b8298" stroke="#3b8298" points="294,-880.0941 298.5001,-890.0941 294,-885.0941 294.0001,-890.0941 294.0001,-890.0941 294.0001,-890.0941 294,-885.0941 289.5001,-890.0941 294,-880.0941 294,-880.0941"/>
</g>
<!-- _18_0910_19 -->
<g id="node2" class="node">
<title>_18_0910_19</title>
<path fill="#77a576" stroke="#ffffff" d="M558.0039,-402.8124C558.0039,-402.8124 611.9961,-402.8124 611.9961,-402.8124 617.9961,-402.8124 623.9961,-408.8124 623.9961,-414.8124 623.9961,-414.8124 623.9961,-426.8124 623.9961,-426.8124 623.9961,-432.8124 617.9961,-438.8124 611.9961,-438.8124 611.9961,-438.8124 558.0039,-438.8124 558.0039,-438.8124 552.0039,-438.8124 546.0039,-432.8124 546.0039,-426.8124 546.0039,-426.8124 546.0039,-414.8124 546.0039,-414.8124 546.0039,-408.8124 552.0039,-402.8124 558.0039,-402.8124"/>
<text text-anchor="middle" x="585" y="-417.8124" font-family="Helvetica,sans-Serif" font-size="10.00" fill="#ffffff">DataLevel=L1</text>
</g>
<!-- _18_0911_19 -->
<g id="node20" class="node">
<title>_18_0911_19</title>
<polygon fill="#aaffaa" stroke="#ffffff" points="680.8468,-360.3124 533.1532,-360.3124 533.1532,-324.3124 686.8468,-324.3124 686.8468,-354.3124 680.8468,-360.3124"/>
<polyline fill="none" stroke="#ffffff" points="680.8468,-360.3124 680.8468,-354.3124 "/>
<polyline fill="none" stroke="#ffffff" points="686.8468,-354.3124 680.8468,-354.3124 "/>
<text text-anchor="middle" x="610" y="-344.3124" font-family="Helvetica,sans-Serif" font-size="10.00" fill="#888888">todo</text>
<text text-anchor="middle" x="610" y="-334.3124" font-family="Helvetica,sans-Serif" font-size="10.00" fill="#888888">Data may be L2; &#160;complete this</text>
</g>
<!-- _18_0910_19&#45;&gt;_18_0911_19 -->
<g id="edge1" class="edge">
<title>_18_0910_19&#45;&gt;_18_0911_19</title>
<path fill="none" stroke="#000000" stroke-dasharray="1,5" d="M585,-402.6056C585,-402.6056 585,-370.4204 585,-370.4204"/>
<polygon fill="#000000" stroke="#000000" points="585,-360.4204 589.5001,-370.4204 585,-365.4204 585.0001,-370.4204 585.0001,-370.4204 585.0001,-370.4204 585,-365.4204 580.5001,-370.4205 585,-360.4204 585,-360.4204"/>
</g>
<!-- _18_0912_19 -->
<g id="node3" class="node">
<title>_18_0912_19</title>
<path fill="#3b8298" stroke="#ffffff" d="M508.7983,-245.8124C508.7983,-245.8124 669.2017,-245.8124 669.2017,-245.8124 675.2017,-245.8124 681.2017,-251.8124 681.2017,-257.8124 681.2017,-257.8124 681.2017,-269.8124 681.2017,-269.8124 681.2017,-275.8124 675.2017,-281.8124 669.2017,-281.8124 669.2017,-281.8124 508.7983,-281.8124 508.7983,-281.8124 502.7983,-281.8124 496.7983,-275.8124 496.7983,-269.8124 496.7983,-269.8124 496.7983,-257.8124 496.7983,-257.8124 496.7983,-251.8124 502.7983,-245.8124 508.7983,-245.8124"/>
<text text-anchor="middle" x="589" y="-260.8124" font-family="Helvetica,sans-Serif" font-size="10.00" fill="#ffffff">Is the repository commons compliant?</text>
</g>
<!-- _18_0912_19_yes -->
<g id="node4" class="node">
<title>_18_0912_19_yes</title>
<ellipse fill="none" stroke="#515151" stroke-dasharray="5,2" cx="430" cy="-190.6562" rx="18.8137" ry="18.8137"/>
<text text-anchor="middle" x="430" y="-187.6562" font-family="Helvetica,sans-Serif" font-size="10.00" fill="#515151">Yes</text>
</g>
<!-- _18_0912_19&#45;&gt;_18_0912_19_yes -->
<g id="edge2" class="edge">
<title>_18_0912_19&#45;&gt;_18_0912_19_yes</title>
<path fill="none" stroke="#000000" stroke-dasharray="1,5" d="M496.509,-263C461.5302,-263 430,-263 430,-263 430,-263 430,-231.0979 430,-209.6637"/>
</g>
<!-- _18_0912_19_no -->
<g id="node5" class="node">
<title>_18_0912_19_no</title>
<ellipse fill="#515151" stroke="#ffffff" cx="589" cy="-190.6562" rx="18" ry="18"/>
<text text-anchor="middle" x="589" y="-187.6562" font-family="Helvetica,sans-Serif" font-size="10.00" fill="#ffffff">No</text>
</g>
<!-- _18_0912_19&#45;&gt;_18_0912_19_no -->
<g id="edge4" class="edge">
<title>_18_0912_19&#45;&gt;_18_0912_19_no</title>
<path fill="none" stroke="#000000" stroke-dasharray="1,5" d="M589,-245.7288C589,-234.4739 589,-220.0487 589,-208.7853"/>
</g>
<!-- _18_0913_19 -->
<g id="node26" class="node">
<title>_18_0913_19</title>
<path fill="#77a576" stroke="#ffffff" d="M353.0039,-99C353.0039,-99 406.9961,-99 406.9961,-99 412.9961,-99 418.9961,-105 418.9961,-111 418.9961,-111 418.9961,-123 418.9961,-123 418.9961,-129 412.9961,-135 406.9961,-135 406.9961,-135 353.0039,-135 353.0039,-135 347.0039,-135 341.0039,-129 341.0039,-123 341.0039,-123 341.0039,-111 341.0039,-111 341.0039,-105 347.0039,-99 353.0039,-99"/>
<text text-anchor="middle" x="380" y="-114" font-family="Helvetica,sans-Serif" font-size="10.00" fill="#ffffff">DataLevel=L1</text>
</g>
<!-- _18_0912_19_yes&#45;&gt;_18_0913_19 -->
<g id="edge3" class="edge">
<title>_18_0912_19_yes&#45;&gt;_18_0913_19</title>
<path fill="none" stroke="#000000" stroke-dasharray="1,5" d="M415.1699,-179.1474C415.1699,-179.1474 415.1699,-145.0183 415.1699,-145.0183"/>
<polygon fill="#000000" stroke="#000000" points="415.1699,-135.0183 419.67,-145.0183 415.17,-140.0183 415.17,-145.0183 415.17,-145.0183 415.17,-145.0183 415.17,-140.0183 410.67,-145.0184 415.1699,-135.0183 415.1699,-135.0183"/>
</g>
<!-- _18_0915_19 -->
<g id="node21" class="node">
<title>_18_0915_19</title>
<polygon fill="#aaffaa" stroke="#ffffff" points="680.7902,-136 491.2098,-136 491.2098,-98 686.7902,-98 686.7902,-130 680.7902,-136"/>
<polyline fill="none" stroke="#ffffff" points="680.7902,-136 680.7902,-130 "/>
<polyline fill="none" stroke="#ffffff" points="686.7902,-130 680.7902,-130 "/>
<text text-anchor="middle" x="589" y="-124" font-family="Helvetica,sans-Serif" font-size="10.00" fill="#888888">todo</text>
<text text-anchor="middle" x="589" y="-114" font-family="Helvetica,sans-Serif" font-size="10.00" fill="#888888">Figure out what to do about &#39;There might</text>
<text text-anchor="middle" x="589" y="-104" font-family="Helvetica,sans-Serif" font-size="10.00" fill="#888888">be dragons here&#39;</text>
</g>
<!-- _18_0912_19_no&#45;&gt;_18_0915_19 -->
<g id="edge5" class="edge">
<title>_18_0912_19_no&#45;&gt;_18_0915_19</title>
<path fill="none" stroke="#000000" stroke-dasharray="1,5" d="M589,-172.449C589,-172.449 589,-146.0252 589,-146.0252"/>
<polygon fill="#000000" stroke="#000000" points="589,-136.0252 593.5001,-146.0251 589,-141.0252 589.0001,-146.0252 589.0001,-146.0252 589.0001,-146.0252 589,-141.0252 584.5001,-146.0252 589,-136.0252 589,-136.0252"/>
</g>
<!-- _18_098_19 -->
<g id="node6" class="node">
<title>_18_098_19</title>
<polygon fill="#aaffaa" stroke="#ffffff" points="454.8147,-366.3124 277.1853,-366.3124 277.1853,-318.3124 460.8147,-318.3124 460.8147,-360.3124 454.8147,-366.3124"/>
<polyline fill="none" stroke="#ffffff" points="454.8147,-366.3124 454.8147,-360.3124 "/>
<polyline fill="none" stroke="#ffffff" points="460.8147,-360.3124 454.8147,-360.3124 "/>
<text text-anchor="middle" x="369" y="-354.3124" font-family="Helvetica,sans-Serif" font-size="10.00" fill="#888888">todo</text>
<text text-anchor="middle" x="369" y="-344.3124" font-family="Helvetica,sans-Serif" font-size="10.00" fill="#888888">Could be level 4. &#160;But in truth the</text>
<text text-anchor="middle" x="369" y="-334.3124" font-family="Helvetica,sans-Serif" font-size="10.00" fill="#888888">level will depend on what services the</text>
<text text-anchor="middle" x="369" y="-324.3124" font-family="Helvetica,sans-Serif" font-size="10.00" fill="#888888">repository offers</text>
</g>
<!-- _18_091_19 -->
<g id="node7" class="node">
<title>_18_091_19</title>
<polygon fill="#aaffaa" stroke="#ffffff" points="293.1595,-733.4372 112.8405,-733.4372 112.8405,-697.4372 299.1595,-697.4372 299.1595,-727.4372 293.1595,-733.4372"/>
<polyline fill="none" stroke="#ffffff" points="293.1595,-733.4372 293.1595,-727.4372 "/>
<polyline fill="none" stroke="#ffffff" points="299.1595,-727.4372 293.1595,-727.4372 "/>
<text text-anchor="middle" x="206" y="-717.4372" font-family="Helvetica,sans-Serif" font-size="10.00" fill="#888888">todo</text>
<text text-anchor="middle" x="206" y="-707.4372" font-family="Helvetica,sans-Serif" font-size="10.00" fill="#888888">What is the level of data not in a repo?</text>
</g>
<!-- _18_096_19 -->
<g id="node8" class="node">
<title>_18_096_19</title>
<polygon fill="#aaffaa" stroke="#ffffff" points="199.64,-361.3124 24.36,-361.3124 24.36,-323.3124 205.64,-323.3124 205.64,-355.3124 199.64,-361.3124"/>
<polyline fill="none" stroke="#ffffff" points="199.64,-361.3124 199.64,-355.3124 "/>
<polyline fill="none" stroke="#ffffff" points="205.64,-355.3124 199.64,-355.3124 "/>
<text text-anchor="middle" x="115" y="-349.3124" font-family="Helvetica,sans-Serif" font-size="10.00" fill="#888888">todo</text>
<text text-anchor="middle" x="115" y="-339.3124" font-family="Helvetica,sans-Serif" font-size="10.00" fill="#888888">Data may be L2 &#45; complete this! &#160;Also</text>
<text text-anchor="middle" x="115" y="-329.3124" font-family="Helvetica,sans-Serif" font-size="10.00" fill="#888888">add a link to the repository checklist</text>
</g>
<!-- _18_0914_19 -->
<g id="node9" class="node">
<title>_18_0914_19</title>
<polygon fill="#aaffaa" stroke="#ffffff" points="464.64,-62 289.36,-62 289.36,-24 470.64,-24 470.64,-56 464.64,-62"/>
<polyline fill="none" stroke="#ffffff" points="464.64,-62 464.64,-56 "/>
<polyline fill="none" stroke="#ffffff" points="470.64,-56 464.64,-56 "/>
<text text-anchor="middle" x="380" y="-50" font-family="Helvetica,sans-Serif" font-size="10.00" fill="#888888">todo</text>
<text text-anchor="middle" x="380" y="-40" font-family="Helvetica,sans-Serif" font-size="10.00" fill="#888888">Data may be L2 &#45; complete this! &#160;Also</text>
<text text-anchor="middle" x="380" y="-30" font-family="Helvetica,sans-Serif" font-size="10.00" fill="#888888">add a link to the repository checklist</text>
</g>
<!-- _18_093_19 -->
<g id="node10" class="node">
<title>_18_093_19</title>
<path fill="#3b8298" stroke="#ffffff" d="M383.4067,-697.4372C383.4067,-697.4372 516.5933,-697.4372 516.5933,-697.4372 522.5933,-697.4372 528.5933,-703.4372 528.5933,-709.4372 528.5933,-709.4372 528.5933,-721.4372 528.5933,-721.4372 528.5933,-727.4372 522.5933,-733.4372 516.5933,-733.4372 516.5933,-733.4372 383.4067,-733.4372 383.4067,-733.4372 377.4067,-733.4372 371.4067,-727.4372 371.4067,-721.4372 371.4067,-721.4372 371.4067,-709.4372 371.4067,-709.4372 371.4067,-703.4372 377.4067,-697.4372 383.4067,-697.4372"/>
<text text-anchor="middle" x="450" y="-717.4372" font-family="Helvetica,sans-Serif" font-size="10.00" fill="#ffffff">Is there a specialist community</text>
<text text-anchor="middle" x="450" y="-707.4372" font-family="Helvetica,sans-Serif" font-size="10.00" fill="#ffffff">repository for your type of data?</text>
</g>
<!-- _18_093_19_yes -->
<g id="node11" class="node">
<title>_18_093_19_yes</title>
<ellipse fill="none" stroke="#515151" stroke-dasharray="5,2" cx="354" cy="-642.281" rx="18.8137" ry="18.8137"/>
<text text-anchor="middle" x="354" y="-639.281" font-family="Helvetica,sans-Serif" font-size="10.00" fill="#515151">Yes</text>
</g>
<!-- _18_093_19&#45;&gt;_18_093_19_yes -->
<g id="edge6" class="edge">
<title>_18_093_19&#45;&gt;_18_093_19_yes</title>
<path fill="none" stroke="#000000" stroke-dasharray="1,5" d="M390.4289,-697.2842C390.4289,-675.5373 390.4289,-642 390.4289,-642 390.4289,-642 381.882,-642 373.068,-642"/>
</g>
<!-- _18_093_19_no -->
<g id="node12" class="node">
<title>_18_093_19_no</title>
<ellipse fill="#515151" stroke="#ffffff" cx="538" cy="-642.281" rx="18" ry="18"/>
<text text-anchor="middle" x="538" y="-639.281" font-family="Helvetica,sans-Serif" font-size="10.00" fill="#ffffff">No</text>
</g>
<!-- _18_093_19&#45;&gt;_18_093_19_no -->
<g id="edge8" class="edge">
<title>_18_093_19&#45;&gt;_18_093_19_no</title>
<path fill="none" stroke="#000000" stroke-dasharray="1,5" d="M524.2966,-697.3536C524.2966,-683.8138 524.2966,-665.686 524.2966,-653.9942"/>
</g>
<!-- _18_094_19 -->
<g id="node13" class="node">
<title>_18_094_19</title>
<path fill="#3b8298" stroke="#ffffff" d="M235.7983,-550.1248C235.7983,-550.1248 396.2017,-550.1248 396.2017,-550.1248 402.2017,-550.1248 408.2017,-556.1248 408.2017,-562.1248 408.2017,-562.1248 408.2017,-574.1248 408.2017,-574.1248 408.2017,-580.1248 402.2017,-586.1248 396.2017,-586.1248 396.2017,-586.1248 235.7983,-586.1248 235.7983,-586.1248 229.7983,-586.1248 223.7983,-580.1248 223.7983,-574.1248 223.7983,-574.1248 223.7983,-562.1248 223.7983,-562.1248 223.7983,-556.1248 229.7983,-550.1248 235.7983,-550.1248"/>
<text text-anchor="middle" x="316" y="-565.1248" font-family="Helvetica,sans-Serif" font-size="10.00" fill="#ffffff">Is the repository commons compliant?</text>
</g>
<!-- _18_093_19_yes&#45;&gt;_18_094_19 -->
<g id="edge7" class="edge">
<title>_18_093_19_yes&#45;&gt;_18_094_19</title>
<path fill="none" stroke="#000000" stroke-dasharray="1,5" d="M354,-623.5682C354,-623.5682 354,-596.3188 354,-596.3188"/>
<polygon fill="#000000" stroke="#000000" points="354,-586.3188 358.5001,-596.3188 354,-591.3188 354.0001,-596.3188 354.0001,-596.3188 354.0001,-596.3188 354,-591.3188 349.5001,-596.3189 354,-586.3188 354,-586.3188"/>
</g>
<!-- _18_099_19 -->
<g id="node23" class="node">
<title>_18_099_19</title>
<path fill="#3b8298" stroke="#ffffff" d="M492.4683,-549.1248C492.4683,-549.1248 659.5317,-549.1248 659.5317,-549.1248 665.5317,-549.1248 671.5317,-555.1248 671.5317,-561.1248 671.5317,-561.1248 671.5317,-575.1248 671.5317,-575.1248 671.5317,-581.1248 665.5317,-587.1248 659.5317,-587.1248 659.5317,-587.1248 492.4683,-587.1248 492.4683,-587.1248 486.4683,-587.1248 480.4683,-581.1248 480.4683,-575.1248 480.4683,-575.1248 480.4683,-561.1248 480.4683,-561.1248 480.4683,-555.1248 486.4683,-549.1248 492.4683,-549.1248"/>
<text text-anchor="middle" x="576" y="-575.1248" font-family="Helvetica,sans-Serif" font-size="10.00" fill="#ffffff">Is there an institional or general</text>
<text text-anchor="middle" x="576" y="-565.1248" font-family="Helvetica,sans-Serif" font-size="10.00" fill="#ffffff">community repository that will host your</text>
<text text-anchor="middle" x="576" y="-555.1248" font-family="Helvetica,sans-Serif" font-size="10.00" fill="#ffffff">data?</text>
</g>
<!-- _18_093_19_no&#45;&gt;_18_099_19 -->
<g id="edge9" class="edge">
<title>_18_093_19_no&#45;&gt;_18_099_19</title>
<path fill="none" stroke="#000000" stroke-dasharray="1,5" d="M538,-623.9502C538,-623.9502 538,-597.2791 538,-597.2791"/>
<polygon fill="#000000" stroke="#000000" points="538,-587.2791 542.5001,-597.279 538,-592.2791 538.0001,-597.2791 538.0001,-597.2791 538.0001,-597.2791 538,-592.2791 533.5001,-597.2791 538,-587.2791 538,-587.2791"/>
</g>
<!-- _18_094_19_yes -->
<g id="node14" class="node">
<title>_18_094_19_yes</title>
<ellipse fill="none" stroke="#515151" stroke-dasharray="5,2" cx="204" cy="-493.9686" rx="18.8137" ry="18.8137"/>
<text text-anchor="middle" x="204" y="-490.9686" font-family="Helvetica,sans-Serif" font-size="10.00" fill="#515151">Yes</text>
</g>
<!-- _18_094_19&#45;&gt;_18_094_19_yes -->
<g id="edge10" class="edge">
<title>_18_094_19&#45;&gt;_18_094_19_yes</title>
<path fill="none" stroke="#000000" stroke-dasharray="1,5" d="M223.7655,-568C212.019,-568 204,-568 204,-568 204,-568 204,-534.581 204,-512.6498"/>
</g>
<!-- _18_094_19_no -->
<g id="node15" class="node">
<title>_18_094_19_no</title>
<ellipse fill="#515151" stroke="#ffffff" cx="333" cy="-493.9686" rx="18" ry="18"/>
<text text-anchor="middle" x="333" y="-490.9686" font-family="Helvetica,sans-Serif" font-size="10.00" fill="#ffffff">No</text>
</g>
<!-- _18_094_19&#45;&gt;_18_094_19_no -->
<g id="edge12" class="edge">
<title>_18_094_19&#45;&gt;_18_094_19_no</title>
<path fill="none" stroke="#000000" stroke-dasharray="1,5" d="M333,-549.794C333,-538.2995 333,-523.5428 333,-512.0885"/>
</g>
<!-- _18_095_19 -->
<g id="node16" class="node">
<title>_18_095_19</title>
<path fill="#77a576" stroke="#ffffff" d="M140.0039,-402.8124C140.0039,-402.8124 193.9961,-402.8124 193.9961,-402.8124 199.9961,-402.8124 205.9961,-408.8124 205.9961,-414.8124 205.9961,-414.8124 205.9961,-426.8124 205.9961,-426.8124 205.9961,-432.8124 199.9961,-438.8124 193.9961,-438.8124 193.9961,-438.8124 140.0039,-438.8124 140.0039,-438.8124 134.0039,-438.8124 128.0039,-432.8124 128.0039,-426.8124 128.0039,-426.8124 128.0039,-414.8124 128.0039,-414.8124 128.0039,-408.8124 134.0039,-402.8124 140.0039,-402.8124"/>
<text text-anchor="middle" x="167" y="-417.8124" font-family="Helvetica,sans-Serif" font-size="10.00" fill="#ffffff">DataLevel=L1</text>
</g>
<!-- _18_094_19_yes&#45;&gt;_18_095_19 -->
<g id="edge11" class="edge">
<title>_18_094_19_yes&#45;&gt;_18_095_19</title>
<path fill="none" stroke="#000000" stroke-dasharray="1,5" d="M195.6699,-477.0012C195.6699,-477.0012 195.6699,-448.9664 195.6699,-448.9664"/>
<polygon fill="#000000" stroke="#000000" points="195.6699,-438.9664 200.17,-448.9664 195.67,-443.9664 195.67,-448.9664 195.67,-448.9664 195.67,-448.9664 195.67,-443.9664 191.17,-448.9665 195.6699,-438.9664 195.6699,-438.9664"/>
</g>
<!-- _18_097_19 -->
<g id="node22" class="node">
<title>_18_097_19</title>
<path fill="#77a576" stroke="#ffffff" d="M325.0039,-402.8124C325.0039,-402.8124 378.9961,-402.8124 378.9961,-402.8124 384.9961,-402.8124 390.9961,-408.8124 390.9961,-414.8124 390.9961,-414.8124 390.9961,-426.8124 390.9961,-426.8124 390.9961,-432.8124 384.9961,-438.8124 378.9961,-438.8124 378.9961,-438.8124 325.0039,-438.8124 325.0039,-438.8124 319.0039,-438.8124 313.0039,-432.8124 313.0039,-426.8124 313.0039,-426.8124 313.0039,-414.8124 313.0039,-414.8124 313.0039,-408.8124 319.0039,-402.8124 325.0039,-402.8124"/>
<text text-anchor="middle" x="352" y="-417.8124" font-family="Helvetica,sans-Serif" font-size="10.00" fill="#ffffff">DataLevel=L3</text>
</g>
<!-- _18_094_19_no&#45;&gt;_18_097_19 -->
<g id="edge13" class="edge">
<title>_18_094_19_no&#45;&gt;_18_097_19</title>
<path fill="none" stroke="#000000" stroke-dasharray="1,5" d="M333,-475.885C333,-475.885 333,-448.9415 333,-448.9415"/>
<polygon fill="#000000" stroke="#000000" points="333,-438.9415 337.5001,-448.9414 333,-443.9415 333.0001,-448.9415 333.0001,-448.9415 333.0001,-448.9415 333,-443.9415 328.5001,-448.9415 333,-438.9415 333,-438.9415"/>
</g>
<!-- _18_095_19&#45;&gt;_18_096_19 -->
<g id="edge14" class="edge">
<title>_18_095_19&#45;&gt;_18_096_19</title>
<path fill="none" stroke="#000000" stroke-dasharray="1,5" d="M166.9119,-402.6056C166.9119,-402.6056 166.9119,-371.5156 166.9119,-371.5156"/>
<polygon fill="#000000" stroke="#000000" points="166.9119,-361.5156 171.412,-371.5156 166.9119,-366.5156 166.912,-371.5156 166.912,-371.5156 166.912,-371.5156 166.9119,-366.5156 162.412,-371.5157 166.9119,-361.5156 166.9119,-361.5156"/>
</g>
<!-- main_no -->
<g id="node18" class="node">
<title>main_no</title>
<ellipse fill="#515151" stroke="#ffffff" cx="240" cy="-788.5934" rx="18" ry="18"/>
<text text-anchor="middle" x="240" y="-785.5934" font-family="Helvetica,sans-Serif" font-size="10.00" fill="#ffffff">No</text>
</g>
<!-- main&#45;&gt;main_no -->
<g id="edge15" class="edge">
<title>main&#45;&gt;main_no</title>
<path fill="none" stroke="#000000" stroke-dasharray="1,5" d="M240,-843.666C240,-832.4111 240,-817.9859 240,-806.7224"/>
</g>
<!-- main_Yes -->
<g id="node19" class="node">
<title>main_Yes</title>
<ellipse fill="none" stroke="#515151" stroke-dasharray="5,2" cx="416" cy="-788.5934" rx="18.8137" ry="18.8137"/>
<text text-anchor="middle" x="416" y="-785.5934" font-family="Helvetica,sans-Serif" font-size="10.00" fill="#515151">Yes</text>
</g>
<!-- main&#45;&gt;main_Yes -->
<g id="edge17" class="edge">
<title>main&#45;&gt;main_Yes</title>
<path fill="none" stroke="#000000" stroke-dasharray="1,5" d="M351.4673,-843.5193C351.4673,-821.68 351.4673,-788 351.4673,-788 351.4673,-788 378.2755,-788 397.3345,-788"/>
</g>
<!-- main_no&#45;&gt;_18_091_19 -->
<g id="edge16" class="edge">
<title>main_no&#45;&gt;_18_091_19</title>
<path fill="none" stroke="#000000" stroke-dasharray="1,5" d="M240,-770.5098C240,-770.5098 240,-743.5662 240,-743.5662"/>
<polygon fill="#000000" stroke="#000000" points="240,-733.5662 244.5001,-743.5662 240,-738.5662 240.0001,-743.5662 240.0001,-743.5662 240.0001,-743.5662 240,-738.5662 235.5001,-743.5663 240,-733.5662 240,-733.5662"/>
</g>
<!-- main_Yes&#45;&gt;_18_093_19 -->
<g id="edge18" class="edge">
<title>main_Yes&#45;&gt;_18_093_19</title>
<path fill="none" stroke="#000000" stroke-dasharray="1,5" d="M416,-769.7538C416,-769.7538 416,-743.4562 416,-743.4562"/>
<polygon fill="#000000" stroke="#000000" points="416,-733.4562 420.5001,-743.4561 416,-738.4562 416.0001,-743.4562 416.0001,-743.4562 416.0001,-743.4562 416,-738.4562 411.5001,-743.4562 416,-733.4562 416,-733.4562"/>
</g>
<!-- _18_0911_19&#45;&gt;_18_0912_19 -->
<g id="edge19" class="edge">
<title>_18_0911_19&#45;&gt;_18_0912_19</title>
<path fill="none" stroke="#000000" stroke-dasharray="1,5" d="M607.1392,-324.1056C607.1392,-324.1056 607.1392,-291.9204 607.1392,-291.9204"/>
<polygon fill="#000000" stroke="#000000" points="607.1392,-281.9204 611.6393,-291.9204 607.1392,-286.9204 607.1393,-291.9204 607.1393,-291.9204 607.1393,-291.9204 607.1392,-286.9204 602.6393,-291.9205 607.1392,-281.9204 607.1392,-281.9204"/>
</g>
<!-- _18_097_19&#45;&gt;_18_098_19 -->
<g id="edge20" class="edge">
<title>_18_097_19&#45;&gt;_18_098_19</title>
<path fill="none" stroke="#000000" stroke-dasharray="1,5" d="M352,-402.6056C352,-402.6056 352,-376.3717 352,-376.3717"/>
<polygon fill="#000000" stroke="#000000" points="352,-366.3717 356.5001,-376.3717 352,-371.3717 352.0001,-376.3717 352.0001,-376.3717 352.0001,-376.3717 352,-371.3717 347.5001,-376.3718 352,-366.3717 352,-366.3717"/>
</g>
<!-- _18_099_19_yes -->
<g id="node24" class="node">
<title>_18_099_19_yes</title>
<ellipse fill="none" stroke="#515151" stroke-dasharray="5,2" cx="560" cy="-493.9686" rx="18.8137" ry="18.8137"/>
<text text-anchor="middle" x="560" y="-490.9686" font-family="Helvetica,sans-Serif" font-size="10.00" fill="#515151">Yes</text>
</g>
<!-- _18_099_19&#45;&gt;_18_099_19_yes -->
<g id="edge21" class="edge">
<title>_18_099_19&#45;&gt;_18_099_19_yes</title>
<path fill="none" stroke="#000000" stroke-dasharray="1,5" d="M560,-549.0277C560,-537.8701 560,-523.8461 560,-512.7442"/>
</g>
<!-- _18_099_19_No -->
<g id="node25" class="node">
<title>_18_099_19_No</title>
<ellipse fill="#515151" stroke="#ffffff" cx="669" cy="-493.9686" rx="18" ry="18"/>
<text text-anchor="middle" x="669" y="-490.9686" font-family="Helvetica,sans-Serif" font-size="10.00" fill="#ffffff">No</text>
</g>
<!-- _18_099_19&#45;&gt;_18_099_19_No -->
<g id="edge23" class="edge">
<title>_18_099_19&#45;&gt;_18_099_19_No</title>
<path fill="none" stroke="#000000" stroke-dasharray="1,5" d="M661.2659,-549.0277C661.2659,-537.0118 661.2659,-521.6716 661.2659,-510.2367"/>
</g>
<!-- _18_099_19_yes&#45;&gt;_18_0910_19 -->
<g id="edge22" class="edge">
<title>_18_099_19_yes&#45;&gt;_18_0910_19</title>
<path fill="none" stroke="#000000" stroke-dasharray="1,5" d="M562.3301,-475.129C562.3301,-475.129 562.3301,-448.8314 562.3301,-448.8314"/>
<polygon fill="#000000" stroke="#000000" points="562.3301,-438.8314 566.8302,-448.8314 562.3301,-443.8314 562.3302,-448.8314 562.3302,-448.8314 562.3302,-448.8314 562.3301,-443.8314 557.8302,-448.8315 562.3301,-438.8314 562.3301,-438.8314"/>
</g>
<!-- _18_0913_19&#45;&gt;_18_0914_19 -->
<g id="edge24" class="edge">
<title>_18_0913_19&#45;&gt;_18_0914_19</title>
<path fill="none" stroke="#000000" stroke-dasharray="1,5" d="M380,-98.7079C380,-98.7079 380,-72.114 380,-72.114"/>
<polygon fill="#000000" stroke="#000000" points="380,-62.114 384.5001,-72.1139 380,-67.114 380.0001,-72.114 380.0001,-72.114 380.0001,-72.114 380,-67.114 375.5001,-72.114 380,-62.114 380,-62.114"/>
</g>
</g>
</svg>
