<?xml version="1.0" encoding="UTF-8" standalone="no"?>
<!DOCTYPE svg PUBLIC "-//W3C//DTD SVG 1.1//EN"
 "http://www.w3.org/Graphics/SVG/1.1/DTD/svg11.dtd">
<!-- Generated by graphviz version 2.40.1 (20161225.0304)
 -->
<!-- Title: DecisionGraph Pages: 1 -->
<svg width="808pt" height="1208pt"
 viewBox="0.00 0.00 808.00 1208.19" xmlns="http://www.w3.org/2000/svg" xmlns:xlink="http://www.w3.org/1999/xlink">
<g id="graph0" class="graph" transform="scale(1 1) rotate(0) translate(4 1204.1867)">
<title>DecisionGraph</title>
<polygon fill="#ffffff" stroke="transparent" points="-4,4 -4,-1204.1867 804,-1204.1867 804,4 -4,4"/>
<g id="clust1" class="cluster">
<title>cluster_DecisionGraph_171</title>
<polygon fill="none" stroke="#000000" points="8,-8 8,-1156.1867 792,-1156.1867 792,-8 8,-8"/>
<text text-anchor="middle" x="400" y="-1140.9867" font-family="Courier,monospace" font-size="14.00" fill="#000000">questionnaire.dg</text>
</g>
<g id="clust2" class="cluster">
<title>cluster_main</title>
<polygon fill="none" stroke="#aabbdd" points="16,-16 16,-1126.1867 784,-1126.1867 784,-16 16,-16"/>
<text text-anchor="middle" x="40.8027" y="-1110.9867" font-family="Courier,monospace" font-size="14.00" fill="#000000">main</text>
</g>
<!-- start -->
<g id="node1" class="node">
<title>start</title>
<polygon fill="transparent" stroke="transparent" points="159,-1200.1867 105,-1200.1867 105,-1164.1867 159,-1164.1867 159,-1200.1867"/>
<text text-anchor="middle" x="132" y="-1178.5867" font-family="Helvetica,sans-Serif" font-size="12.00" fill="#3b8298">start</text>
</g>
<!-- main -->
<g id="node18" class="node">
<title>main</title>
<path fill="#3b8298" stroke="#ffffff" d="M55.4043,-1057.6867C55.4043,-1057.6867 208.5957,-1057.6867 208.5957,-1057.6867 214.5957,-1057.6867 220.5957,-1063.6867 220.5957,-1069.6867 220.5957,-1069.6867 220.5957,-1083.6867 220.5957,-1083.6867 220.5957,-1089.6867 214.5957,-1095.6867 208.5957,-1095.6867 208.5957,-1095.6867 55.4043,-1095.6867 55.4043,-1095.6867 49.4043,-1095.6867 43.4043,-1089.6867 43.4043,-1083.6867 43.4043,-1083.6867 43.4043,-1069.6867 43.4043,-1069.6867 43.4043,-1063.6867 49.4043,-1057.6867 55.4043,-1057.6867"/>
<text text-anchor="middle" x="132" y="-1083.6867" font-family="Helvetica,sans-Serif" font-size="10.00" fill="#ffffff">main</text>
<text text-anchor="middle" x="132" y="-1073.6867" font-family="Helvetica,sans-Serif" font-size="10.00" fill="#ffffff">Does the software you wish to share</text>
<text text-anchor="middle" x="132" y="-1063.6867" font-family="Helvetica,sans-Serif" font-size="10.00" fill="#ffffff">already exist?</text>
</g>
<!-- start&#45;&gt;main -->
<g id="edge37" class="edge">
<title>start&#45;&gt;main</title>
<path fill="none" stroke="#3b8298" d="M132,-1163.81C132,-1163.81 132,-1105.922 132,-1105.922"/>
<polygon fill="#3b8298" stroke="#3b8298" points="132,-1095.922 136.5001,-1105.922 132,-1100.922 132.0001,-1105.922 132.0001,-1105.922 132.0001,-1105.922 132,-1100.922 127.5001,-1105.9221 132,-1095.922 132,-1095.922"/>
</g>
<!-- _18_0920_19 -->
<g id="node2" class="node">
<title>_18_0920_19</title>
<path fill="#77a576" stroke="#ffffff" d="M623.0039,-24.5C623.0039,-24.5 676.9961,-24.5 676.9961,-24.5 682.9961,-24.5 688.9961,-30.5 688.9961,-36.5 688.9961,-36.5 688.9961,-48.5 688.9961,-48.5 688.9961,-54.5 682.9961,-60.5 676.9961,-60.5 676.9961,-60.5 623.0039,-60.5 623.0039,-60.5 617.0039,-60.5 611.0039,-54.5 611.0039,-48.5 611.0039,-48.5 611.0039,-36.5 611.0039,-36.5 611.0039,-30.5 617.0039,-24.5 623.0039,-24.5"/>
<text text-anchor="middle" x="650" y="-39.5" font-family="Helvetica,sans-Serif" font-size="10.00" fill="#ffffff">DataLevel=L1</text>
</g>
<!-- _18_0916_19 -->
<g id="node3" class="node">
<title>_18_0916_19</title>
<path fill="#3b8298" stroke="#ffffff" d="M508.7246,-316.1248C508.7246,-316.1248 665.2754,-316.1248 665.2754,-316.1248 671.2754,-316.1248 677.2754,-322.1248 677.2754,-328.1248 677.2754,-328.1248 677.2754,-342.1248 677.2754,-342.1248 677.2754,-348.1248 671.2754,-354.1248 665.2754,-354.1248 665.2754,-354.1248 508.7246,-354.1248 508.7246,-354.1248 502.7246,-354.1248 496.7246,-348.1248 496.7246,-342.1248 496.7246,-342.1248 496.7246,-328.1248 496.7246,-328.1248 496.7246,-322.1248 502.7246,-316.1248 508.7246,-316.1248"/>
<text text-anchor="middle" x="587" y="-342.1248" font-family="Helvetica,sans-Serif" font-size="10.00" fill="#ffffff">Can you find equivalent code that is</text>
<text text-anchor="middle" x="587" y="-332.1248" font-family="Helvetica,sans-Serif" font-size="10.00" fill="#ffffff">open to reuse and redistribute (under</text>
<text text-anchor="middle" x="587" y="-322.1248" font-family="Helvetica,sans-Serif" font-size="10.00" fill="#ffffff">the conditions you plan to use it?)</text>
</g>
<!-- _18_0916_19_no -->
<g id="node4" class="node">
<title>_18_0916_19_no</title>
<ellipse fill="#515151" stroke="#ffffff" cx="484" cy="-261.6248" rx="18" ry="18"/>
<text text-anchor="middle" x="484" y="-258.6248" font-family="Helvetica,sans-Serif" font-size="10.00" fill="#ffffff">No</text>
</g>
<!-- _18_0916_19&#45;&gt;_18_0916_19_no -->
<g id="edge1" class="edge">
<title>_18_0916_19&#45;&gt;_18_0916_19_no</title>
<path fill="none" stroke="#000000" stroke-dasharray="1,5" d="M496.4976,-335C487.3602,-335 481.3623,-335 481.3623,-335 481.3623,-335 481.3623,-301.491 481.3623,-279.7625"/>
</g>
<!-- _18_0916_19_Yes -->
<g id="node5" class="node">
<title>_18_0916_19_Yes</title>
<ellipse fill="none" stroke="#515151" stroke-dasharray="5,2" cx="658" cy="-188.9686" rx="18.8137" ry="18.8137"/>
<text text-anchor="middle" x="658" y="-185.9686" font-family="Helvetica,sans-Serif" font-size="10.00" fill="#515151">Yes</text>
</g>
<!-- _18_0916_19&#45;&gt;_18_0916_19_Yes -->
<g id="edge3" class="edge">
<title>_18_0916_19&#45;&gt;_18_0916_19_Yes</title>
<path fill="none" stroke="#000000" stroke-dasharray="1,5" d="M658,-316.0174C658,-288.0067 658,-236.094 658,-208.0806"/>
</g>
<!-- _18_0917_19 -->
<g id="node6" class="node">
<title>_18_0917_19</title>
<path fill="#3b8298" stroke="#ffffff" d="M390.2837,-170.9686C390.2837,-170.9686 555.7163,-170.9686 555.7163,-170.9686 561.7163,-170.9686 567.7163,-176.9686 567.7163,-182.9686 567.7163,-182.9686 567.7163,-194.9686 567.7163,-194.9686 567.7163,-200.9686 561.7163,-206.9686 555.7163,-206.9686 555.7163,-206.9686 390.2837,-206.9686 390.2837,-206.9686 384.2837,-206.9686 378.2837,-200.9686 378.2837,-194.9686 378.2837,-194.9686 378.2837,-182.9686 378.2837,-182.9686 378.2837,-176.9686 384.2837,-170.9686 390.2837,-170.9686"/>
<text text-anchor="middle" x="473" y="-190.9686" font-family="Helvetica,sans-Serif" font-size="10.00" fill="#ffffff">Can you rewrite the pieces of code that</text>
<text text-anchor="middle" x="473" y="-180.9686" font-family="Helvetica,sans-Serif" font-size="10.00" fill="#ffffff">are proprietary?</text>
</g>
<!-- _18_0916_19_no&#45;&gt;_18_0917_19 -->
<g id="edge2" class="edge">
<title>_18_0916_19_no&#45;&gt;_18_0917_19</title>
<path fill="none" stroke="#000000" stroke-dasharray="1,5" d="M484,-243.2906C484,-243.2906 484,-217.0453 484,-217.0453"/>
<polygon fill="#000000" stroke="#000000" points="484,-207.0453 488.5001,-217.0452 484,-212.0453 484.0001,-217.0453 484.0001,-217.0453 484.0001,-217.0453 484,-212.0453 479.5001,-217.0453 484,-207.0453 484,-207.0453"/>
</g>
<!-- _18_0916_19_Yes&#45;&gt;_18_0920_19 -->
<g id="edge4" class="edge">
<title>_18_0916_19_Yes&#45;&gt;_18_0920_19</title>
<path fill="none" stroke="#000000" stroke-dasharray="1,5" d="M662.6562,-170.7144C662.6562,-170.7144 662.6562,-70.5241 662.6562,-70.5241"/>
<polygon fill="#000000" stroke="#000000" points="662.6562,-60.5241 667.1563,-70.5241 662.6562,-65.5241 662.6563,-70.5241 662.6563,-70.5241 662.6563,-70.5241 662.6562,-65.5241 658.1563,-70.5242 662.6562,-60.5241 662.6562,-60.5241"/>
</g>
<!-- _18_0917_19_no -->
<g id="node7" class="node">
<title>_18_0917_19_no</title>
<ellipse fill="#515151" stroke="#ffffff" cx="473" cy="-115.6562" rx="18" ry="18"/>
<text text-anchor="middle" x="473" y="-112.6562" font-family="Helvetica,sans-Serif" font-size="10.00" fill="#ffffff">No</text>
</g>
<!-- _18_0917_19&#45;&gt;_18_0917_19_no -->
<g id="edge5" class="edge">
<title>_18_0917_19&#45;&gt;_18_0917_19_no</title>
<path fill="none" stroke="#000000" stroke-dasharray="1,5" d="M473,-170.8464C473,-159.5674 473,-145.1115 473,-133.824"/>
</g>
<!-- _18_0917_19_Yes -->
<g id="node8" class="node">
<title>_18_0917_19_Yes</title>
<ellipse fill="none" stroke="#515151" stroke-dasharray="5,2" cx="630" cy="-115.6562" rx="18.8137" ry="18.8137"/>
<text text-anchor="middle" x="630" y="-112.6562" font-family="Helvetica,sans-Serif" font-size="10.00" fill="#515151">Yes</text>
</g>
<!-- _18_0917_19&#45;&gt;_18_0917_19_Yes -->
<g id="edge7" class="edge">
<title>_18_0917_19&#45;&gt;_18_0917_19_Yes</title>
<path fill="none" stroke="#000000" stroke-dasharray="1,5" d="M567.7491,-188C598.7297,-188 625.3438,-188 625.3438,-188 625.3438,-188 625.3438,-155.3428 625.3438,-133.9116"/>
</g>
<!-- _18_0918_19 -->
<g id="node30" class="node">
<title>_18_0918_19</title>
<path fill="#77a576" stroke="#ffffff" d="M446.0039,-24.5C446.0039,-24.5 499.9961,-24.5 499.9961,-24.5 505.9961,-24.5 511.9961,-30.5 511.9961,-36.5 511.9961,-36.5 511.9961,-48.5 511.9961,-48.5 511.9961,-54.5 505.9961,-60.5 499.9961,-60.5 499.9961,-60.5 446.0039,-60.5 446.0039,-60.5 440.0039,-60.5 434.0039,-54.5 434.0039,-48.5 434.0039,-48.5 434.0039,-36.5 434.0039,-36.5 434.0039,-30.5 440.0039,-24.5 446.0039,-24.5"/>
<text text-anchor="middle" x="473" y="-39.5" font-family="Helvetica,sans-Serif" font-size="10.00" fill="#ffffff">DataLevel=L2</text>
</g>
<!-- _18_0917_19_no&#45;&gt;_18_0918_19 -->
<g id="edge6" class="edge">
<title>_18_0917_19_no&#45;&gt;_18_0918_19</title>
<path fill="none" stroke="#000000" stroke-dasharray="1,5" d="M473,-97.5726C473,-97.5726 473,-70.6291 473,-70.6291"/>
<polygon fill="#000000" stroke="#000000" points="473,-60.6291 477.5001,-70.629 473,-65.6291 473.0001,-70.6291 473.0001,-70.6291 473.0001,-70.6291 473,-65.6291 468.5001,-70.6291 473,-60.6291 473,-60.6291"/>
</g>
<!-- _18_0917_19_Yes&#45;&gt;_18_0920_19 -->
<g id="edge8" class="edge">
<title>_18_0917_19_Yes&#45;&gt;_18_0920_19</title>
<path fill="none" stroke="#000000" stroke-dasharray="1,5" d="M630,-96.8167C630,-96.8167 630,-70.519 630,-70.519"/>
<polygon fill="#000000" stroke="#000000" points="630,-60.519 634.5001,-70.519 630,-65.519 630.0001,-70.519 630.0001,-70.519 630.0001,-70.519 630,-65.519 625.5001,-70.5191 630,-60.519 630,-60.519"/>
</g>
<!-- _18_099_19 -->
<g id="node9" class="node">
<title>_18_099_19</title>
<path fill="#77a576" stroke="#ffffff" d="M110.0039,-317.1248C110.0039,-317.1248 163.9961,-317.1248 163.9961,-317.1248 169.9961,-317.1248 175.9961,-323.1248 175.9961,-329.1248 175.9961,-329.1248 175.9961,-341.1248 175.9961,-341.1248 175.9961,-347.1248 169.9961,-353.1248 163.9961,-353.1248 163.9961,-353.1248 110.0039,-353.1248 110.0039,-353.1248 104.0039,-353.1248 98.0039,-347.1248 98.0039,-341.1248 98.0039,-341.1248 98.0039,-329.1248 98.0039,-329.1248 98.0039,-323.1248 104.0039,-317.1248 110.0039,-317.1248"/>
<text text-anchor="middle" x="137" y="-332.1248" font-family="Helvetica,sans-Serif" font-size="10.00" fill="#ffffff">DataLevel=L3</text>
</g>
<!-- _18_0913_19 -->
<g id="node10" class="node">
<title>_18_0913_19</title>
<polygon fill="#aaffaa" stroke="#ffffff" points="539.5368,-427.281 380.4632,-427.281 380.4632,-391.281 545.5368,-391.281 545.5368,-421.281 539.5368,-427.281"/>
<polyline fill="none" stroke="#ffffff" points="539.5368,-427.281 539.5368,-421.281 "/>
<polyline fill="none" stroke="#ffffff" points="545.5368,-421.281 539.5368,-421.281 "/>
<text text-anchor="middle" x="463" y="-411.281" font-family="Helvetica,sans-Serif" font-size="10.00" fill="#888888">todo</text>
<text text-anchor="middle" x="463" y="-401.281" font-family="Helvetica,sans-Serif" font-size="10.00" fill="#888888">Might also be L2 &#45; elaborate here.</text>
</g>
<!-- _18_0915_19 -->
<g id="node11" class="node">
<title>_18_0915_19</title>
<path fill="#3b8298" stroke="#ffffff" d="M585.8945,-464.4372C585.8945,-464.4372 764.1055,-464.4372 764.1055,-464.4372 770.1055,-464.4372 776.1055,-470.4372 776.1055,-476.4372 776.1055,-476.4372 776.1055,-490.4372 776.1055,-490.4372 776.1055,-496.4372 770.1055,-502.4372 764.1055,-502.4372 764.1055,-502.4372 585.8945,-502.4372 585.8945,-502.4372 579.8945,-502.4372 573.8945,-496.4372 573.8945,-490.4372 573.8945,-490.4372 573.8945,-476.4372 573.8945,-476.4372 573.8945,-470.4372 579.8945,-464.4372 585.8945,-464.4372"/>
<text text-anchor="middle" x="675" y="-490.4372" font-family="Helvetica,sans-Serif" font-size="10.00" fill="#ffffff">Does your code use code from others that</text>
<text text-anchor="middle" x="675" y="-480.4372" font-family="Helvetica,sans-Serif" font-size="10.00" fill="#ffffff">is allowed to be redistributed under a</text>
<text text-anchor="middle" x="675" y="-470.4372" font-family="Helvetica,sans-Serif" font-size="10.00" fill="#ffffff">permissive license?</text>
</g>
<!-- _18_0915_19_yes -->
<g id="node12" class="node">
<title>_18_0915_19_yes</title>
<ellipse fill="none" stroke="#515151" stroke-dasharray="5,2" cx="651" cy="-409.281" rx="18.8137" ry="18.8137"/>
<text text-anchor="middle" x="651" y="-406.281" font-family="Helvetica,sans-Serif" font-size="10.00" fill="#515151">Yes</text>
</g>
<!-- _18_0915_19&#45;&gt;_18_0915_19_yes -->
<g id="edge9" class="edge">
<title>_18_0915_19&#45;&gt;_18_0915_19_yes</title>
<path fill="none" stroke="#000000" stroke-dasharray="1,5" d="M651,-464.3401C651,-453.1825 651,-439.1585 651,-428.0566"/>
</g>
<!-- _18_0915_19_No -->
<g id="node13" class="node">
<title>_18_0915_19_No</title>
<ellipse fill="#515151" stroke="#ffffff" cx="750" cy="-261.6248" rx="18" ry="18"/>
<text text-anchor="middle" x="750" y="-258.6248" font-family="Helvetica,sans-Serif" font-size="10.00" fill="#ffffff">No</text>
</g>
<!-- _18_0915_19&#45;&gt;_18_0915_19_No -->
<g id="edge11" class="edge">
<title>_18_0915_19&#45;&gt;_18_0915_19_No</title>
<path fill="none" stroke="#000000" stroke-dasharray="1,5" d="M750,-464.1408C750,-421.7694 750,-321.0892 750,-279.784"/>
</g>
<!-- _18_0915_19_yes&#45;&gt;_18_0916_19 -->
<g id="edge10" class="edge">
<title>_18_0915_19_yes&#45;&gt;_18_0916_19</title>
<path fill="none" stroke="#000000" stroke-dasharray="1,5" d="M651,-390.5682C651,-390.5682 651,-364.3484 651,-364.3484"/>
<polygon fill="#000000" stroke="#000000" points="651,-354.3484 655.5001,-364.3484 651,-359.3484 651.0001,-364.3484 651.0001,-364.3484 651.0001,-364.3484 651,-359.3484 646.5001,-364.3485 651,-354.3484 651,-354.3484"/>
</g>
<!-- _18_0915_19_No&#45;&gt;_18_0920_19 -->
<g id="edge12" class="edge">
<title>_18_0915_19_No&#45;&gt;_18_0920_19</title>
<path fill="none" stroke="#000000" stroke-dasharray="1,5" d="M731.729,-261C711.9318,-261 683.1357,-261 683.1357,-261 683.1357,-261 683.1357,-70.7534 683.1357,-70.7534"/>
<polygon fill="#000000" stroke="#000000" points="683.1357,-60.7534 687.6358,-70.7533 683.1358,-65.7534 683.1358,-70.7534 683.1358,-70.7534 683.1358,-70.7534 683.1358,-65.7534 678.6358,-70.7534 683.1357,-60.7534 683.1357,-60.7534"/>
</g>
<!-- _18_0912_19 -->
<g id="node14" class="node">
<title>_18_0912_19</title>
<path fill="#77a576" stroke="#ffffff" d="M436.0039,-465.4372C436.0039,-465.4372 489.9961,-465.4372 489.9961,-465.4372 495.9961,-465.4372 501.9961,-471.4372 501.9961,-477.4372 501.9961,-477.4372 501.9961,-489.4372 501.9961,-489.4372 501.9961,-495.4372 495.9961,-501.4372 489.9961,-501.4372 489.9961,-501.4372 436.0039,-501.4372 436.0039,-501.4372 430.0039,-501.4372 424.0039,-495.4372 424.0039,-489.4372 424.0039,-489.4372 424.0039,-477.4372 424.0039,-477.4372 424.0039,-471.4372 430.0039,-465.4372 436.0039,-465.4372"/>
<text text-anchor="middle" x="463" y="-480.4372" font-family="Helvetica,sans-Serif" font-size="10.00" fill="#ffffff">DataLevel=L1</text>
</g>
<!-- _18_0912_19&#45;&gt;_18_0913_19 -->
<g id="edge13" class="edge">
<title>_18_0912_19&#45;&gt;_18_0913_19</title>
<path fill="none" stroke="#000000" stroke-dasharray="1,5" d="M463,-465.1064C463,-465.1064 463,-437.4009 463,-437.4009"/>
<polygon fill="#000000" stroke="#000000" points="463,-427.4009 467.5001,-437.4008 463,-432.4009 463.0001,-437.4009 463.0001,-437.4009 463.0001,-437.4009 463,-432.4009 458.5001,-437.4009 463,-427.4009 463,-427.4009"/>
</g>
<!-- _18_094_19 -->
<g id="node15" class="node">
<title>_18_094_19</title>
<path fill="#3b8298" stroke="#ffffff" d="M242.5127,-761.0619C242.5127,-761.0619 403.4873,-761.0619 403.4873,-761.0619 409.4873,-761.0619 415.4873,-767.0619 415.4873,-773.0619 415.4873,-773.0619 415.4873,-787.0619 415.4873,-787.0619 415.4873,-793.0619 409.4873,-799.0619 403.4873,-799.0619 403.4873,-799.0619 242.5127,-799.0619 242.5127,-799.0619 236.5127,-799.0619 230.5127,-793.0619 230.5127,-787.0619 230.5127,-787.0619 230.5127,-773.0619 230.5127,-773.0619 230.5127,-767.0619 236.5127,-761.0619 242.5127,-761.0619"/>
<text text-anchor="middle" x="323" y="-787.0619" font-family="Helvetica,sans-Serif" font-size="10.00" fill="#ffffff">Are there regulatory requirements that</text>
<text text-anchor="middle" x="323" y="-777.0619" font-family="Helvetica,sans-Serif" font-size="10.00" fill="#ffffff">must be satisfied that limit open</text>
<text text-anchor="middle" x="323" y="-767.0619" font-family="Helvetica,sans-Serif" font-size="10.00" fill="#ffffff">sharing?</text>
</g>
<!-- _18_094_19_yes -->
<g id="node16" class="node">
<title>_18_094_19_yes</title>
<ellipse fill="none" stroke="#515151" stroke-dasharray="5,2" cx="242" cy="-705.9057" rx="18.8137" ry="18.8137"/>
<text text-anchor="middle" x="242" y="-702.9057" font-family="Helvetica,sans-Serif" font-size="10.00" fill="#515151">Yes</text>
</g>
<!-- _18_094_19&#45;&gt;_18_094_19_yes -->
<g id="edge14" class="edge">
<title>_18_094_19&#45;&gt;_18_094_19_yes</title>
<path fill="none" stroke="#000000" stroke-dasharray="1,5" d="M245.5844,-760.9649C245.5844,-749.7214 245.5844,-735.5674 245.5844,-724.4257"/>
</g>
<!-- _18_094_19_No -->
<g id="node17" class="node">
<title>_18_094_19_No</title>
<ellipse fill="#515151" stroke="#ffffff" cx="380" cy="-705.9057" rx="18" ry="18"/>
<text text-anchor="middle" x="380" y="-702.9057" font-family="Helvetica,sans-Serif" font-size="10.00" fill="#ffffff">No</text>
</g>
<!-- _18_094_19&#45;&gt;_18_094_19_No -->
<g id="edge16" class="edge">
<title>_18_094_19&#45;&gt;_18_094_19_No</title>
<path fill="none" stroke="#000000" stroke-dasharray="1,5" d="M380,-760.9649C380,-749.5498 380,-735.1345 380,-723.9175"/>
</g>
<!-- _18_095_19 -->
<g id="node34" class="node">
<title>_18_095_19</title>
<path fill="#3b8298" stroke="#ffffff" d="M150.5029,-612.7496C150.5029,-612.7496 311.4971,-612.7496 311.4971,-612.7496 317.4971,-612.7496 323.4971,-618.7496 323.4971,-624.7496 323.4971,-624.7496 323.4971,-638.7496 323.4971,-638.7496 323.4971,-644.7496 317.4971,-650.7496 311.4971,-650.7496 311.4971,-650.7496 150.5029,-650.7496 150.5029,-650.7496 144.5029,-650.7496 138.5029,-644.7496 138.5029,-638.7496 138.5029,-638.7496 138.5029,-624.7496 138.5029,-624.7496 138.5029,-618.7496 144.5029,-612.7496 150.5029,-612.7496"/>
<text text-anchor="middle" x="231" y="-638.7496" font-family="Helvetica,sans-Serif" font-size="10.00" fill="#ffffff">Is there a clear set of requirements</text>
<text text-anchor="middle" x="231" y="-628.7496" font-family="Helvetica,sans-Serif" font-size="10.00" fill="#ffffff">that can be met to access and use the</text>
<text text-anchor="middle" x="231" y="-618.7496" font-family="Helvetica,sans-Serif" font-size="10.00" fill="#ffffff">software according to Principle 1?</text>
</g>
<!-- _18_094_19_yes&#45;&gt;_18_095_19 -->
<g id="edge15" class="edge">
<title>_18_094_19_yes&#45;&gt;_18_095_19</title>
<path fill="none" stroke="#000000" stroke-dasharray="1,5" d="M242,-687.193C242,-687.193 242,-660.9732 242,-660.9732"/>
<polygon fill="#000000" stroke="#000000" points="242,-650.9732 246.5001,-660.9732 242,-655.9732 242.0001,-660.9732 242.0001,-660.9732 242.0001,-660.9732 242,-655.9732 237.5001,-660.9733 242,-650.9732 242,-650.9732"/>
</g>
<!-- license -->
<g id="node22" class="node">
<title>license</title>
<path fill="#3b8298" stroke="#ffffff" d="M407.7393,-613.7496C407.7393,-613.7496 554.2607,-613.7496 554.2607,-613.7496 560.2607,-613.7496 566.2607,-619.7496 566.2607,-625.7496 566.2607,-625.7496 566.2607,-637.7496 566.2607,-637.7496 566.2607,-643.7496 560.2607,-649.7496 554.2607,-649.7496 554.2607,-649.7496 407.7393,-649.7496 407.7393,-649.7496 401.7393,-649.7496 395.7393,-643.7496 395.7393,-637.7496 395.7393,-637.7496 395.7393,-625.7496 395.7393,-625.7496 395.7393,-619.7496 401.7393,-613.7496 407.7393,-613.7496"/>
<text text-anchor="middle" x="481" y="-633.7496" font-family="Helvetica,sans-Serif" font-size="10.00" fill="#ffffff">license</text>
<text text-anchor="middle" x="481" y="-623.7496" font-family="Helvetica,sans-Serif" font-size="10.00" fill="#ffffff">Can you use a permissive license?</text>
</g>
<!-- _18_094_19_No&#45;&gt;license -->
<g id="edge17" class="edge">
<title>_18_094_19_No&#45;&gt;license</title>
<path fill="none" stroke="#000000" stroke-dasharray="1,5" d="M387.9856,-689.6523C387.9856,-667.6219 387.9856,-631 387.9856,-631 387.9856,-631 388.7468,-631 388.7468,-631"/>
<polygon fill="#000000" stroke="#000000" points="395.5974,-631 385.5974,-635.5001 390.5974,-631.0001 385.5974,-631.0001 385.5974,-631.0001 385.5974,-631.0001 390.5974,-631.0001 385.5973,-626.5001 395.5974,-631 395.5974,-631"/>
</g>
<!-- main_no -->
<g id="node19" class="node">
<title>main_no</title>
<ellipse fill="#515151" stroke="#ffffff" cx="80" cy="-1002.5305" rx="18" ry="18"/>
<text text-anchor="middle" x="80" y="-999.5305" font-family="Helvetica,sans-Serif" font-size="10.00" fill="#ffffff">No</text>
</g>
<!-- main&#45;&gt;main_no -->
<g id="edge18" class="edge">
<title>main&#45;&gt;main_no</title>
<path fill="none" stroke="#000000" stroke-dasharray="1,5" d="M80,-1057.5897C80,-1046.1745 80,-1031.7593 80,-1020.5423"/>
</g>
<!-- main_Yes -->
<g id="node20" class="node">
<title>main_Yes</title>
<ellipse fill="none" stroke="#515151" stroke-dasharray="5,2" cx="189" cy="-1002.5305" rx="18.8137" ry="18.8137"/>
<text text-anchor="middle" x="189" y="-999.5305" font-family="Helvetica,sans-Serif" font-size="10.00" fill="#515151">Yes</text>
</g>
<!-- main&#45;&gt;main_Yes -->
<g id="edge19" class="edge">
<title>main&#45;&gt;main_Yes</title>
<path fill="none" stroke="#000000" stroke-dasharray="1,5" d="M189,-1057.5897C189,-1046.432 189,-1032.4081 189,-1021.3062"/>
</g>
<!-- rights -->
<g id="node31" class="node">
<title>rights</title>
<path fill="#3b8298" stroke="#ffffff" d="M115.4561,-909.3743C115.4561,-909.3743 262.5439,-909.3743 262.5439,-909.3743 268.5439,-909.3743 274.5439,-915.3743 274.5439,-921.3743 274.5439,-921.3743 274.5439,-935.3743 274.5439,-935.3743 274.5439,-941.3743 268.5439,-947.3743 262.5439,-947.3743 262.5439,-947.3743 115.4561,-947.3743 115.4561,-947.3743 109.4561,-947.3743 103.4561,-941.3743 103.4561,-935.3743 103.4561,-935.3743 103.4561,-921.3743 103.4561,-921.3743 103.4561,-915.3743 109.4561,-909.3743 115.4561,-909.3743"/>
<text text-anchor="middle" x="189" y="-935.3743" font-family="Helvetica,sans-Serif" font-size="10.00" fill="#ffffff">rights</text>
<text text-anchor="middle" x="189" y="-925.3743" font-family="Helvetica,sans-Serif" font-size="10.00" fill="#ffffff">Do you have the rights to make the</text>
<text text-anchor="middle" x="189" y="-915.3743" font-family="Helvetica,sans-Serif" font-size="10.00" fill="#ffffff">software open?</text>
</g>
<!-- main_Yes&#45;&gt;rights -->
<g id="edge20" class="edge">
<title>main_Yes&#45;&gt;rights</title>
<path fill="none" stroke="#000000" stroke-dasharray="1,5" d="M189,-983.8178C189,-983.8178 189,-957.598 189,-957.598"/>
<polygon fill="#000000" stroke="#000000" points="189,-947.598 193.5001,-957.598 189,-952.598 189.0001,-957.598 189.0001,-957.598 189.0001,-957.598 189,-952.598 184.5001,-957.598 189,-947.598 189,-947.598"/>
</g>
<!-- _18_0910_19 -->
<g id="node21" class="node">
<title>_18_0910_19</title>
<path fill="#77a576" stroke="#ffffff" d="M260.0039,-317.1248C260.0039,-317.1248 313.9961,-317.1248 313.9961,-317.1248 319.9961,-317.1248 325.9961,-323.1248 325.9961,-329.1248 325.9961,-329.1248 325.9961,-341.1248 325.9961,-341.1248 325.9961,-347.1248 319.9961,-353.1248 313.9961,-353.1248 313.9961,-353.1248 260.0039,-353.1248 260.0039,-353.1248 254.0039,-353.1248 248.0039,-347.1248 248.0039,-341.1248 248.0039,-341.1248 248.0039,-329.1248 248.0039,-329.1248 248.0039,-323.1248 254.0039,-317.1248 260.0039,-317.1248"/>
<text text-anchor="middle" x="287" y="-332.1248" font-family="Helvetica,sans-Serif" font-size="10.00" fill="#ffffff">DataLevel=L4</text>
</g>
<!-- license_yes -->
<g id="node23" class="node">
<title>license_yes</title>
<ellipse fill="none" stroke="#515151" stroke-dasharray="5,2" cx="469" cy="-557.5934" rx="18.8137" ry="18.8137"/>
<text text-anchor="middle" x="469" y="-554.5934" font-family="Helvetica,sans-Serif" font-size="10.00" fill="#515151">Yes</text>
</g>
<!-- license&#45;&gt;license_yes -->
<g id="edge21" class="edge">
<title>license&#45;&gt;license_yes</title>
<path fill="none" stroke="#000000" stroke-dasharray="1,5" d="M469,-613.4188C469,-602.1816 469,-587.8267 469,-576.4875"/>
</g>
<!-- license_no -->
<g id="node24" class="node">
<title>license_no</title>
<ellipse fill="#515151" stroke="#ffffff" cx="629" cy="-557.5934" rx="18" ry="18"/>
<text text-anchor="middle" x="629" y="-554.5934" font-family="Helvetica,sans-Serif" font-size="10.00" fill="#ffffff">No</text>
</g>
<!-- license&#45;&gt;license_no -->
<g id="edge23" class="edge">
<title>license&#45;&gt;license_no</title>
<path fill="none" stroke="#000000" stroke-dasharray="1,5" d="M556.0144,-613.6548C556.0144,-591.5324 556.0144,-557 556.0144,-557 556.0144,-557 589.3455,-557 610.9586,-557"/>
</g>
<!-- license_yes&#45;&gt;_18_0912_19 -->
<g id="edge22" class="edge">
<title>license_yes&#45;&gt;_18_0912_19</title>
<path fill="none" stroke="#000000" stroke-dasharray="1,5" d="M469,-538.8806C469,-538.8806 469,-511.6312 469,-511.6312"/>
<polygon fill="#000000" stroke="#000000" points="469,-501.6312 473.5001,-511.6312 469,-506.6312 469.0001,-511.6312 469.0001,-511.6312 469.0001,-511.6312 469,-506.6312 464.5001,-511.6313 469,-501.6312 469,-501.6312"/>
</g>
<!-- license_no&#45;&gt;_18_0915_19 -->
<g id="edge24" class="edge">
<title>license_no&#45;&gt;_18_0915_19</title>
<path fill="none" stroke="#000000" stroke-dasharray="1,5" d="M629,-539.2626C629,-539.2626 629,-512.5915 629,-512.5915"/>
<polygon fill="#000000" stroke="#000000" points="629,-502.5915 633.5001,-512.5914 629,-507.5915 629.0001,-512.5915 629.0001,-512.5915 629.0001,-512.5915 629,-507.5915 624.5001,-512.5915 629,-502.5915 629,-502.5915"/>
</g>
<!-- _18_092_19 -->
<g id="node25" class="node">
<title>_18_092_19</title>
<path fill="#77a576" stroke="#ffffff" d="M93.0039,-762.0619C93.0039,-762.0619 146.9961,-762.0619 146.9961,-762.0619 152.9961,-762.0619 158.9961,-768.0619 158.9961,-774.0619 158.9961,-774.0619 158.9961,-786.0619 158.9961,-786.0619 158.9961,-792.0619 152.9961,-798.0619 146.9961,-798.0619 146.9961,-798.0619 93.0039,-798.0619 93.0039,-798.0619 87.0039,-798.0619 81.0039,-792.0619 81.0039,-786.0619 81.0039,-786.0619 81.0039,-774.0619 81.0039,-774.0619 81.0039,-768.0619 87.0039,-762.0619 93.0039,-762.0619"/>
<text text-anchor="middle" x="120" y="-777.0619" font-family="Helvetica,sans-Serif" font-size="10.00" fill="#ffffff">DataLevel=L4</text>
</g>
<!-- _18_096_19 -->
<g id="node26" class="node">
<title>_18_096_19</title>
<path fill="#77a576" stroke="#ffffff" d="M36.0039,-465.4372C36.0039,-465.4372 89.9961,-465.4372 89.9961,-465.4372 95.9961,-465.4372 101.9961,-471.4372 101.9961,-477.4372 101.9961,-477.4372 101.9961,-489.4372 101.9961,-489.4372 101.9961,-495.4372 95.9961,-501.4372 89.9961,-501.4372 89.9961,-501.4372 36.0039,-501.4372 36.0039,-501.4372 30.0039,-501.4372 24.0039,-495.4372 24.0039,-489.4372 24.0039,-489.4372 24.0039,-477.4372 24.0039,-477.4372 24.0039,-471.4372 30.0039,-465.4372 36.0039,-465.4372"/>
<text text-anchor="middle" x="63" y="-480.4372" font-family="Helvetica,sans-Serif" font-size="10.00" fill="#ffffff">DataLevel=L2</text>
</g>
<!-- _18_098_19 -->
<g id="node27" class="node">
<title>_18_098_19</title>
<path fill="#3b8298" stroke="#ffffff" d="M185.8501,-465.4372C185.8501,-465.4372 340.1499,-465.4372 340.1499,-465.4372 346.1499,-465.4372 352.1499,-471.4372 352.1499,-477.4372 352.1499,-477.4372 352.1499,-489.4372 352.1499,-489.4372 352.1499,-495.4372 346.1499,-501.4372 340.1499,-501.4372 340.1499,-501.4372 185.8501,-501.4372 185.8501,-501.4372 179.8501,-501.4372 173.8501,-495.4372 173.8501,-489.4372 173.8501,-489.4372 173.8501,-477.4372 173.8501,-477.4372 173.8501,-471.4372 179.8501,-465.4372 185.8501,-465.4372"/>
<text text-anchor="middle" x="263" y="-485.4372" font-family="Helvetica,sans-Serif" font-size="10.00" fill="#ffffff">Are there a clear set of requirements</text>
<text text-anchor="middle" x="263" y="-475.4372" font-family="Helvetica,sans-Serif" font-size="10.00" fill="#ffffff">for restricted use of the software?</text>
</g>
<!-- _18_098_19_yes -->
<g id="node28" class="node">
<title>_18_098_19_yes</title>
<ellipse fill="none" stroke="#515151" stroke-dasharray="5,2" cx="147" cy="-409.281" rx="18.8137" ry="18.8137"/>
<text text-anchor="middle" x="147" y="-406.281" font-family="Helvetica,sans-Serif" font-size="10.00" fill="#515151">Yes</text>
</g>
<!-- _18_098_19&#45;&gt;_18_098_19_yes -->
<g id="edge25" class="edge">
<title>_18_098_19&#45;&gt;_18_098_19_yes</title>
<path fill="none" stroke="#000000" stroke-dasharray="1,5" d="M173.6993,-483C163.4642,-483 156.6051,-483 156.6051,-483 156.6051,-483 156.6051,-446.9583 156.6051,-425.2769"/>
</g>
<!-- _18_098_19_no -->
<g id="node29" class="node">
<title>_18_098_19_no</title>
<ellipse fill="#515151" stroke="#ffffff" cx="276" cy="-409.281" rx="18" ry="18"/>
<text text-anchor="middle" x="276" y="-406.281" font-family="Helvetica,sans-Serif" font-size="10.00" fill="#ffffff">No</text>
</g>
<!-- _18_098_19&#45;&gt;_18_098_19_no -->
<g id="edge27" class="edge">
<title>_18_098_19&#45;&gt;_18_098_19_no</title>
<path fill="none" stroke="#000000" stroke-dasharray="1,5" d="M276,-465.1064C276,-453.6118 276,-438.8552 276,-427.4009"/>
</g>
<!-- _18_098_19_yes&#45;&gt;_18_099_19 -->
<g id="edge26" class="edge">
<title>_18_098_19_yes&#45;&gt;_18_099_19</title>
<path fill="none" stroke="#000000" stroke-dasharray="1,5" d="M147,-390.5682C147,-390.5682 147,-363.3188 147,-363.3188"/>
<polygon fill="#000000" stroke="#000000" points="147,-353.3188 151.5001,-363.3188 147,-358.3188 147.0001,-363.3188 147.0001,-363.3188 147.0001,-363.3188 147,-358.3188 142.5001,-363.3189 147,-353.3188 147,-353.3188"/>
</g>
<!-- _18_098_19_no&#45;&gt;_18_0910_19 -->
<g id="edge28" class="edge">
<title>_18_098_19_no&#45;&gt;_18_0910_19</title>
<path fill="none" stroke="#000000" stroke-dasharray="1,5" d="M276,-390.9502C276,-390.9502 276,-363.2447 276,-363.2447"/>
<polygon fill="#000000" stroke="#000000" points="276,-353.2447 280.5001,-363.2446 276,-358.2447 276.0001,-363.2447 276.0001,-363.2447 276.0001,-363.2447 276,-358.2447 271.5001,-363.2447 276,-353.2447 276,-353.2447"/>
</g>
<!-- rights_no -->
<g id="node32" class="node">
<title>rights_no</title>
<ellipse fill="#515151" stroke="#ffffff" cx="143" cy="-854.2181" rx="18" ry="18"/>
<text text-anchor="middle" x="143" y="-851.2181" font-family="Helvetica,sans-Serif" font-size="10.00" fill="#ffffff">No</text>
</g>
<!-- rights&#45;&gt;rights_no -->
<g id="edge29" class="edge">
<title>rights&#45;&gt;rights_no</title>
<path fill="none" stroke="#000000" stroke-dasharray="1,5" d="M143,-909.2773C143,-897.8622 143,-883.4469 143,-872.2299"/>
</g>
<!-- rights_Yes -->
<g id="node33" class="node">
<title>rights_Yes</title>
<ellipse fill="none" stroke="#515151" stroke-dasharray="5,2" cx="299" cy="-854.2181" rx="18.8137" ry="18.8137"/>
<text text-anchor="middle" x="299" y="-851.2181" font-family="Helvetica,sans-Serif" font-size="10.00" fill="#515151">Yes</text>
</g>
<!-- rights&#45;&gt;rights_Yes -->
<g id="edge31" class="edge">
<title>rights&#45;&gt;rights_Yes</title>
<path fill="none" stroke="#000000" stroke-dasharray="1,5" d="M274.5874,-928C288.7882,-928 299,-928 299,-928 299,-928 299,-895.0798 299,-873.2188"/>
</g>
<!-- rights_no&#45;&gt;_18_092_19 -->
<g id="edge30" class="edge">
<title>rights_no&#45;&gt;_18_092_19</title>
<path fill="none" stroke="#000000" stroke-dasharray="1,5" d="M141.998,-835.8874C141.998,-835.8874 141.998,-808.1818 141.998,-808.1818"/>
<polygon fill="#000000" stroke="#000000" points="141.998,-798.1818 146.4981,-808.1818 141.9981,-803.1818 141.9981,-808.1818 141.9981,-808.1818 141.9981,-808.1818 141.9981,-803.1818 137.4981,-808.1819 141.998,-798.1818 141.998,-798.1818"/>
</g>
<!-- rights_Yes&#45;&gt;_18_094_19 -->
<g id="edge32" class="edge">
<title>rights_Yes&#45;&gt;_18_094_19</title>
<path fill="none" stroke="#000000" stroke-dasharray="1,5" d="M299,-835.5054C299,-835.5054 299,-809.2856 299,-809.2856"/>
<polygon fill="#000000" stroke="#000000" points="299,-799.2856 303.5001,-809.2856 299,-804.2856 299.0001,-809.2856 299.0001,-809.2856 299.0001,-809.2856 299,-804.2856 294.5001,-809.2857 299,-799.2856 299,-799.2856"/>
</g>
<!-- _18_095_19_yes -->
<g id="node35" class="node">
<title>_18_095_19_yes</title>
<ellipse fill="none" stroke="#515151" stroke-dasharray="5,2" cx="96" cy="-557.5934" rx="18.8137" ry="18.8137"/>
<text text-anchor="middle" x="96" y="-554.5934" font-family="Helvetica,sans-Serif" font-size="10.00" fill="#515151">Yes</text>
</g>
<!-- _18_095_19&#45;&gt;_18_095_19_yes -->
<g id="edge33" class="edge">
<title>_18_095_19&#45;&gt;_18_095_19_yes</title>
<path fill="none" stroke="#000000" stroke-dasharray="1,5" d="M147.554,-612.4997C147.554,-590.3519 147.554,-557 147.554,-557 147.554,-557 129.6176,-557 114.9041,-557"/>
</g>
<!-- _18_095_19_no -->
<g id="node36" class="node">
<title>_18_095_19_no</title>
<ellipse fill="#515151" stroke="#ffffff" cx="238" cy="-557.5934" rx="18" ry="18"/>
<text text-anchor="middle" x="238" y="-554.5934" font-family="Helvetica,sans-Serif" font-size="10.00" fill="#ffffff">No</text>
</g>
<!-- _18_095_19&#45;&gt;_18_095_19_no -->
<g id="edge35" class="edge">
<title>_18_095_19&#45;&gt;_18_095_19_no</title>
<path fill="none" stroke="#000000" stroke-dasharray="1,5" d="M238,-612.6525C238,-601.2374 238,-586.8221 238,-575.6051"/>
</g>
<!-- _18_095_19_yes&#45;&gt;_18_096_19 -->
<g id="edge34" class="edge">
<title>_18_095_19_yes&#45;&gt;_18_096_19</title>
<path fill="none" stroke="#000000" stroke-dasharray="1,5" d="M89.6699,-540.0194C89.6699,-540.0194 89.6699,-511.6594 89.6699,-511.6594"/>
<polygon fill="#000000" stroke="#000000" points="89.6699,-501.6594 94.17,-511.6594 89.67,-506.6594 89.67,-511.6594 89.67,-511.6594 89.67,-511.6594 89.67,-506.6594 85.17,-511.6595 89.6699,-501.6594 89.6699,-501.6594"/>
</g>
<!-- _18_095_19_no&#45;&gt;_18_098_19 -->
<g id="edge36" class="edge">
<title>_18_095_19_no&#45;&gt;_18_098_19</title>
<path fill="none" stroke="#000000" stroke-dasharray="1,5" d="M238,-539.2626C238,-539.2626 238,-511.5571 238,-511.5571"/>
<polygon fill="#000000" stroke="#000000" points="238,-501.5571 242.5001,-511.557 238,-506.5571 238.0001,-511.5571 238.0001,-511.5571 238.0001,-511.5571 238,-506.5571 233.5001,-511.5571 238,-501.5571 238,-501.5571"/>
</g>
</g>
</svg>
