<?xml version="1.0" encoding="UTF-8" standalone="no"?>
<!DOCTYPE svg PUBLIC "-//W3C//DTD SVG 1.1//EN"
 "http://www.w3.org/Graphics/SVG/1.1/DTD/svg11.dtd">
<!-- Generated by graphviz version 2.40.1 (20161225.0304)
 -->
<!-- Title: DecisionGraph Pages: 1 -->
<svg width="582pt" height="1568pt"
 viewBox="0.00 0.00 582.00 1567.81" xmlns="http://www.w3.org/2000/svg" xmlns:xlink="http://www.w3.org/1999/xlink">
<g id="graph0" class="graph" transform="scale(1 1) rotate(0) translate(4 1563.8115)">
<title>DecisionGraph</title>
<polygon fill="#ffffff" stroke="transparent" points="-4,4 -4,-1563.8115 578,-1563.8115 578,4 -4,4"/>
<g id="clust1" class="cluster">
<title>cluster_DecisionGraph_171</title>
<polygon fill="none" stroke="#000000" points="8,-8 8,-1515.8115 566,-1515.8115 566,-8 8,-8"/>
<text text-anchor="middle" x="287" y="-1500.6115" font-family="Courier,monospace" font-size="14.00" fill="#000000">questionnaire.dg</text>
</g>
<g id="clust2" class="cluster">
<title>cluster_main</title>
<polygon fill="none" stroke="#aabbdd" points="16,-16 16,-1485.8115 558,-1485.8115 558,-16 16,-16"/>
<text text-anchor="middle" x="40.8027" y="-1470.6115" font-family="Courier,monospace" font-size="14.00" fill="#000000">main</text>
</g>
<!-- start -->
<g id="node1" class="node">
<title>start</title>
<polygon fill="transparent" stroke="transparent" points="196,-1559.8115 142,-1559.8115 142,-1523.8115 196,-1523.8115 196,-1559.8115"/>
<text text-anchor="middle" x="169" y="-1538.2115" font-family="Helvetica,sans-Serif" font-size="12.00" fill="#3b8298">start</text>
</g>
<!-- main -->
<g id="node23" class="node">
<title>main</title>
<path fill="#3b8298" stroke="#ffffff" d="M83.7813,-1417.3115C83.7813,-1417.3115 254.2188,-1417.3115 254.2188,-1417.3115 260.2188,-1417.3115 266.2188,-1423.3115 266.2188,-1429.3115 266.2188,-1429.3115 266.2188,-1443.3115 266.2188,-1443.3115 266.2188,-1449.3115 260.2188,-1455.3115 254.2188,-1455.3115 254.2188,-1455.3115 83.7813,-1455.3115 83.7813,-1455.3115 77.7813,-1455.3115 71.7813,-1449.3115 71.7813,-1443.3115 71.7813,-1443.3115 71.7813,-1429.3115 71.7813,-1429.3115 71.7813,-1423.3115 77.7813,-1417.3115 83.7813,-1417.3115"/>
<text text-anchor="middle" x="169" y="-1443.3115" font-family="Helvetica,sans-Serif" font-size="10.00" fill="#ffffff">main</text>
<text text-anchor="middle" x="169" y="-1433.3115" font-family="Helvetica,sans-Serif" font-size="10.00" fill="#ffffff">Does the data you wish to share already</text>
<text text-anchor="middle" x="169" y="-1423.3115" font-family="Helvetica,sans-Serif" font-size="10.00" fill="#ffffff">exist?</text>
</g>
<!-- start&#45;&gt;main -->
<g id="edge42" class="edge">
<title>start&#45;&gt;main</title>
<path fill="none" stroke="#3b8298" d="M169,-1523.4348C169,-1523.4348 169,-1465.5468 169,-1465.5468"/>
<polygon fill="#3b8298" stroke="#3b8298" points="169,-1455.5468 173.5001,-1465.5468 169,-1460.5468 169.0001,-1465.5468 169.0001,-1465.5468 169.0001,-1465.5468 169,-1460.5468 164.5001,-1465.5469 169,-1455.5468 169,-1455.5468"/>
</g>
<!-- _18_091_19 -->
<g id="node2" class="node">
<title>_18_091_19</title>
<path fill="#ff4444" stroke="#ffffff" d="M66.3921,-1270.9991C66.3921,-1270.9991 209.6079,-1270.9991 209.6079,-1270.9991 215.6079,-1270.9991 221.6079,-1276.9991 221.6079,-1282.9991 221.6079,-1282.9991 221.6079,-1294.9991 221.6079,-1294.9991 221.6079,-1300.9991 215.6079,-1306.9991 209.6079,-1306.9991 209.6079,-1306.9991 66.3921,-1306.9991 66.3921,-1306.9991 60.3921,-1306.9991 54.3921,-1300.9991 54.3921,-1294.9991 54.3921,-1294.9991 54.3921,-1282.9991 54.3921,-1282.9991 54.3921,-1276.9991 60.3921,-1270.9991 66.3921,-1270.9991"/>
<text text-anchor="middle" x="138" y="-1285.9991" font-family="Helvetica,sans-Serif" font-size="10.00" fill="#ffff44">See: making data open by design.</text>
</g>
<!-- sensitivity -->
<g id="node3" class="node">
<title>sensitivity</title>
<path fill="#3b8298" stroke="#ffffff" d="M231.1777,-536.4372C231.1777,-536.4372 368.8223,-536.4372 368.8223,-536.4372 374.8223,-536.4372 380.8223,-542.4372 380.8223,-548.4372 380.8223,-548.4372 380.8223,-562.4372 380.8223,-562.4372 380.8223,-568.4372 374.8223,-574.4372 368.8223,-574.4372 368.8223,-574.4372 231.1777,-574.4372 231.1777,-574.4372 225.1777,-574.4372 219.1777,-568.4372 219.1777,-562.4372 219.1777,-562.4372 219.1777,-548.4372 219.1777,-548.4372 219.1777,-542.4372 225.1777,-536.4372 231.1777,-536.4372"/>
<text text-anchor="middle" x="300" y="-562.4372" font-family="Helvetica,sans-Serif" font-size="10.00" fill="#ffffff">sensitivity</text>
<text text-anchor="middle" x="300" y="-552.4372" font-family="Helvetica,sans-Serif" font-size="10.00" fill="#ffffff">Is it sensitive data that cannot be</text>
<text text-anchor="middle" x="300" y="-542.4372" font-family="Helvetica,sans-Serif" font-size="10.00" fill="#ffffff">openly shared?</text>
</g>
<!-- sensitivity_no -->
<g id="node4" class="node">
<title>sensitivity_no</title>
<ellipse fill="#515151" stroke="#ffffff" cx="142" cy="-481.281" rx="18" ry="18"/>
<text text-anchor="middle" x="142" y="-478.281" font-family="Helvetica,sans-Serif" font-size="10.00" fill="#ffffff">No</text>
</g>
<!-- sensitivity&#45;&gt;sensitivity_no -->
<g id="edge1" class="edge">
<title>sensitivity&#45;&gt;sensitivity_no</title>
<path fill="none" stroke="#000000" stroke-dasharray="1,5" d="M225.895,-536.2677C225.895,-514.2125 225.895,-481 225.895,-481 225.895,-481 184.8782,-481 160.204,-481"/>
</g>
<!-- sensitivity_yes -->
<g id="node5" class="node">
<title>sensitivity_yes</title>
<ellipse fill="none" stroke="#515151" stroke-dasharray="5,2" cx="302" cy="-481.281" rx="18.8137" ry="18.8137"/>
<text text-anchor="middle" x="302" y="-478.281" font-family="Helvetica,sans-Serif" font-size="10.00" fill="#515151">Yes</text>
</g>
<!-- sensitivity&#45;&gt;sensitivity_yes -->
<g id="edge3" class="edge">
<title>sensitivity&#45;&gt;sensitivity_yes</title>
<path fill="none" stroke="#000000" stroke-dasharray="1,5" d="M302,-536.3401C302,-525.1825 302,-511.1585 302,-500.0566"/>
</g>
<!-- _18_0911_19 -->
<g id="node15" class="node">
<title>_18_0911_19</title>
<path fill="#77a576" stroke="#ffffff" d="M35.8315,-390.1248C35.8315,-390.1248 148.1685,-390.1248 148.1685,-390.1248 154.1685,-390.1248 160.1685,-396.1248 160.1685,-402.1248 160.1685,-402.1248 160.1685,-414.1248 160.1685,-414.1248 160.1685,-420.1248 154.1685,-426.1248 148.1685,-426.1248 148.1685,-426.1248 35.8315,-426.1248 35.8315,-426.1248 29.8315,-426.1248 23.8315,-420.1248 23.8315,-414.1248 23.8315,-414.1248 23.8315,-402.1248 23.8315,-402.1248 23.8315,-396.1248 29.8315,-390.1248 35.8315,-390.1248"/>
<text text-anchor="middle" x="92" y="-410.1248" font-family="Helvetica,sans-Serif" font-size="10.00" fill="#ffffff">Assertions=[IsSensitive:no]</text>
<text text-anchor="middle" x="92" y="-400.1248" font-family="Helvetica,sans-Serif" font-size="10.00" fill="#ffffff">DataLevel=L1</text>
</g>
<!-- sensitivity_no&#45;&gt;_18_0911_19 -->
<g id="edge2" class="edge">
<title>sensitivity_no&#45;&gt;_18_0911_19</title>
<path fill="none" stroke="#000000" stroke-dasharray="1,5" d="M142,-463.1974C142,-463.1974 142,-436.2538 142,-436.2538"/>
<polygon fill="#000000" stroke="#000000" points="142,-426.2538 146.5001,-436.2538 142,-431.2538 142.0001,-436.2538 142.0001,-436.2538 142.0001,-436.2538 142,-431.2538 137.5001,-436.2539 142,-426.2538 142,-426.2538"/>
</g>
<!-- _18_0913_19 -->
<g id="node10" class="node">
<title>_18_0913_19</title>
<path fill="#77a576" stroke="#ffffff" d="M244.6123,-390.1248C244.6123,-390.1248 361.3877,-390.1248 361.3877,-390.1248 367.3877,-390.1248 373.3877,-396.1248 373.3877,-402.1248 373.3877,-402.1248 373.3877,-414.1248 373.3877,-414.1248 373.3877,-420.1248 367.3877,-426.1248 361.3877,-426.1248 361.3877,-426.1248 244.6123,-426.1248 244.6123,-426.1248 238.6123,-426.1248 232.6123,-420.1248 232.6123,-414.1248 232.6123,-414.1248 232.6123,-402.1248 232.6123,-402.1248 232.6123,-396.1248 238.6123,-390.1248 244.6123,-390.1248"/>
<text text-anchor="middle" x="303" y="-405.1248" font-family="Helvetica,sans-Serif" font-size="10.00" fill="#ffffff">Assertions=[IsSensitive:yes]</text>
</g>
<!-- sensitivity_yes&#45;&gt;_18_0913_19 -->
<g id="edge4" class="edge">
<title>sensitivity_yes&#45;&gt;_18_0913_19</title>
<path fill="none" stroke="#000000" stroke-dasharray="1,5" d="M302,-462.4414C302,-462.4414 302,-436.1438 302,-436.1438"/>
<polygon fill="#000000" stroke="#000000" points="302,-426.1438 306.5001,-436.1438 302,-431.1438 302.0001,-436.1438 302.0001,-436.1438 302.0001,-436.1438 302,-431.1438 297.5001,-436.1438 302,-426.1438 302,-426.1438"/>
</g>
<!-- _18_0918_19 -->
<g id="node6" class="node">
<title>_18_0918_19</title>
<path fill="#77a576" stroke="#ffffff" d="M321.0039,-24.5C321.0039,-24.5 374.9961,-24.5 374.9961,-24.5 380.9961,-24.5 386.9961,-30.5 386.9961,-36.5 386.9961,-36.5 386.9961,-48.5 386.9961,-48.5 386.9961,-54.5 380.9961,-60.5 374.9961,-60.5 374.9961,-60.5 321.0039,-60.5 321.0039,-60.5 315.0039,-60.5 309.0039,-54.5 309.0039,-48.5 309.0039,-48.5 309.0039,-36.5 309.0039,-36.5 309.0039,-30.5 315.0039,-24.5 321.0039,-24.5"/>
<text text-anchor="middle" x="348" y="-39.5" font-family="Helvetica,sans-Serif" font-size="10.00" fill="#ffffff">DataLevel=L3</text>
</g>
<!-- _18_0917_19 -->
<g id="node7" class="node">
<title>_18_0917_19</title>
<path fill="#3b8298" stroke="#ffffff" d="M393.8379,-170.8124C393.8379,-170.8124 538.1621,-170.8124 538.1621,-170.8124 544.1621,-170.8124 550.1621,-176.8124 550.1621,-182.8124 550.1621,-182.8124 550.1621,-194.8124 550.1621,-194.8124 550.1621,-200.8124 544.1621,-206.8124 538.1621,-206.8124 538.1621,-206.8124 393.8379,-206.8124 393.8379,-206.8124 387.8379,-206.8124 381.8379,-200.8124 381.8379,-194.8124 381.8379,-194.8124 381.8379,-182.8124 381.8379,-182.8124 381.8379,-176.8124 387.8379,-170.8124 393.8379,-170.8124"/>
<text text-anchor="middle" x="466" y="-190.8124" font-family="Helvetica,sans-Serif" font-size="10.00" fill="#ffffff">Has a description of the data been</text>
<text text-anchor="middle" x="466" y="-180.8124" font-family="Helvetica,sans-Serif" font-size="10.00" fill="#ffffff">published or the data refereed?</text>
</g>
<!-- _18_0917_19_yes -->
<g id="node8" class="node">
<title>_18_0917_19_yes</title>
<ellipse fill="none" stroke="#515151" stroke-dasharray="5,2" cx="358" cy="-115.6562" rx="18.8137" ry="18.8137"/>
<text text-anchor="middle" x="358" y="-112.6562" font-family="Helvetica,sans-Serif" font-size="10.00" fill="#515151">Yes</text>
</g>
<!-- _18_0917_19&#45;&gt;_18_0917_19_yes -->
<g id="edge5" class="edge">
<title>_18_0917_19&#45;&gt;_18_0917_19_yes</title>
<path fill="none" stroke="#000000" stroke-dasharray="1,5" d="M381.5717,-188C374.1207,-188 369.3281,-188 369.3281,-188 369.3281,-188 369.3281,-151.8358 369.3281,-130.6459"/>
</g>
<!-- _18_0917_19_no -->
<g id="node9" class="node">
<title>_18_0917_19_no</title>
<ellipse fill="#515151" stroke="#ffffff" cx="478" cy="-115.6562" rx="18" ry="18"/>
<text text-anchor="middle" x="478" y="-112.6562" font-family="Helvetica,sans-Serif" font-size="10.00" fill="#ffffff">No</text>
</g>
<!-- _18_0917_19&#45;&gt;_18_0917_19_no -->
<g id="edge7" class="edge">
<title>_18_0917_19&#45;&gt;_18_0917_19_no</title>
<path fill="none" stroke="#000000" stroke-dasharray="1,5" d="M478,-170.7288C478,-159.4739 478,-145.0487 478,-133.7853"/>
</g>
<!-- _18_0917_19_yes&#45;&gt;_18_0918_19 -->
<g id="edge6" class="edge">
<title>_18_0917_19_yes&#45;&gt;_18_0918_19</title>
<path fill="none" stroke="#000000" stroke-dasharray="1,5" d="M358,-96.8167C358,-96.8167 358,-70.519 358,-70.519"/>
<polygon fill="#000000" stroke="#000000" points="358,-60.519 362.5001,-70.519 358,-65.519 358.0001,-70.519 358.0001,-70.519 358.0001,-70.519 358,-65.519 353.5001,-70.5191 358,-60.519 358,-60.519"/>
</g>
<!-- _18_0919_19 -->
<g id="node29" class="node">
<title>_18_0919_19</title>
<path fill="#77a576" stroke="#ffffff" d="M471.0039,-24.5C471.0039,-24.5 524.9961,-24.5 524.9961,-24.5 530.9961,-24.5 536.9961,-30.5 536.9961,-36.5 536.9961,-36.5 536.9961,-48.5 536.9961,-48.5 536.9961,-54.5 530.9961,-60.5 524.9961,-60.5 524.9961,-60.5 471.0039,-60.5 471.0039,-60.5 465.0039,-60.5 459.0039,-54.5 459.0039,-48.5 459.0039,-48.5 459.0039,-36.5 459.0039,-36.5 459.0039,-30.5 465.0039,-24.5 471.0039,-24.5"/>
<text text-anchor="middle" x="498" y="-39.5" font-family="Helvetica,sans-Serif" font-size="10.00" fill="#ffffff">DataLevel=L4</text>
</g>
<!-- _18_0917_19_no&#45;&gt;_18_0919_19 -->
<g id="edge8" class="edge">
<title>_18_0917_19_no&#45;&gt;_18_0919_19</title>
<path fill="none" stroke="#000000" stroke-dasharray="1,5" d="M478,-97.5726C478,-97.5726 478,-70.6291 478,-70.6291"/>
<polygon fill="#000000" stroke="#000000" points="478,-60.6291 482.5001,-70.629 478,-65.6291 478.0001,-70.6291 478.0001,-70.6291 478.0001,-70.6291 478,-65.6291 473.5001,-70.6291 478,-60.6291 478,-60.6291"/>
</g>
<!-- _18_0914_19 -->
<g id="node12" class="node">
<title>_18_0914_19</title>
<path fill="#3b8298" stroke="#ffffff" d="M217.709,-317.1248C217.709,-317.1248 386.291,-317.1248 386.291,-317.1248 392.291,-317.1248 398.291,-323.1248 398.291,-329.1248 398.291,-329.1248 398.291,-341.1248 398.291,-341.1248 398.291,-347.1248 392.291,-353.1248 386.291,-353.1248 386.291,-353.1248 217.709,-353.1248 217.709,-353.1248 211.709,-353.1248 205.709,-347.1248 205.709,-341.1248 205.709,-341.1248 205.709,-329.1248 205.709,-329.1248 205.709,-323.1248 211.709,-317.1248 217.709,-317.1248"/>
<text text-anchor="middle" x="302" y="-337.1248" font-family="Helvetica,sans-Serif" font-size="10.00" fill="#ffffff">Were permissions obtained to share the</text>
<text text-anchor="middle" x="302" y="-327.1248" font-family="Helvetica,sans-Serif" font-size="10.00" fill="#ffffff">data within regulatory requirements?</text>
</g>
<!-- _18_0913_19&#45;&gt;_18_0914_19 -->
<g id="edge9" class="edge">
<title>_18_0913_19&#45;&gt;_18_0914_19</title>
<path fill="none" stroke="#000000" stroke-dasharray="1,5" d="M303,-390.0798C303,-390.0798 303,-363.2151 303,-363.2151"/>
<polygon fill="#000000" stroke="#000000" points="303,-353.2151 307.5001,-363.2151 303,-358.2151 303.0001,-363.2151 303.0001,-363.2151 303.0001,-363.2151 303,-358.2151 298.5001,-363.2152 303,-353.2151 303,-353.2151"/>
</g>
<!-- _18_092_19 -->
<g id="node11" class="node">
<title>_18_092_19</title>
<path fill="#77a576" stroke="#ffffff" d="M143.8882,-1124.6867C143.8882,-1124.6867 250.1118,-1124.6867 250.1118,-1124.6867 256.1118,-1124.6867 262.1118,-1130.6867 262.1118,-1136.6867 262.1118,-1136.6867 262.1118,-1148.6867 262.1118,-1148.6867 262.1118,-1154.6867 256.1118,-1160.6867 250.1118,-1160.6867 250.1118,-1160.6867 143.8882,-1160.6867 143.8882,-1160.6867 137.8882,-1160.6867 131.8882,-1154.6867 131.8882,-1148.6867 131.8882,-1148.6867 131.8882,-1136.6867 131.8882,-1136.6867 131.8882,-1130.6867 137.8882,-1124.6867 143.8882,-1124.6867"/>
<text text-anchor="middle" x="197" y="-1139.6867" font-family="Helvetica,sans-Serif" font-size="10.00" fill="#ffffff">Assertions=[Media:digital]</text>
</g>
<!-- _18_093_19 -->
<g id="node16" class="node">
<title>_18_093_19</title>
<path fill="#3b8298" stroke="#ffffff" d="M119.0176,-1051.6867C119.0176,-1051.6867 264.9824,-1051.6867 264.9824,-1051.6867 270.9824,-1051.6867 276.9824,-1057.6867 276.9824,-1063.6867 276.9824,-1063.6867 276.9824,-1075.6867 276.9824,-1075.6867 276.9824,-1081.6867 270.9824,-1087.6867 264.9824,-1087.6867 264.9824,-1087.6867 119.0176,-1087.6867 119.0176,-1087.6867 113.0176,-1087.6867 107.0176,-1081.6867 107.0176,-1075.6867 107.0176,-1075.6867 107.0176,-1063.6867 107.0176,-1063.6867 107.0176,-1057.6867 113.0176,-1051.6867 119.0176,-1051.6867"/>
<text text-anchor="middle" x="192" y="-1071.6867" font-family="Helvetica,sans-Serif" font-size="10.00" fill="#ffffff">Are the data in proprietary (closed)</text>
<text text-anchor="middle" x="192" y="-1061.6867" font-family="Helvetica,sans-Serif" font-size="10.00" fill="#ffffff">format?</text>
</g>
<!-- _18_092_19&#45;&gt;_18_093_19 -->
<g id="edge10" class="edge">
<title>_18_092_19&#45;&gt;_18_093_19</title>
<path fill="none" stroke="#000000" stroke-dasharray="1,5" d="M197,-1124.6418C197,-1124.6418 197,-1097.7771 197,-1097.7771"/>
<polygon fill="#000000" stroke="#000000" points="197,-1087.7771 201.5001,-1097.777 197,-1092.7771 197.0001,-1097.7771 197.0001,-1097.7771 197.0001,-1097.7771 197,-1092.7771 192.5001,-1097.7771 197,-1087.7771 197,-1087.7771"/>
</g>
<!-- _18_0914_19_yes -->
<g id="node13" class="node">
<title>_18_0914_19_yes</title>
<ellipse fill="none" stroke="#515151" stroke-dasharray="5,2" cx="271" cy="-261.9686" rx="18.8137" ry="18.8137"/>
<text text-anchor="middle" x="271" y="-258.9686" font-family="Helvetica,sans-Serif" font-size="10.00" fill="#515151">Yes</text>
</g>
<!-- _18_0914_19&#45;&gt;_18_0914_19_yes -->
<g id="edge11" class="edge">
<title>_18_0914_19&#45;&gt;_18_0914_19_yes</title>
<path fill="none" stroke="#000000" stroke-dasharray="1,5" d="M271,-317.0412C271,-306.0402 271,-292.0103 271,-280.8646"/>
</g>
<!-- _18_0914_19_No -->
<g id="node14" class="node">
<title>_18_0914_19_No</title>
<ellipse fill="#515151" stroke="#ffffff" cx="380" cy="-261.9686" rx="18" ry="18"/>
<text text-anchor="middle" x="380" y="-258.9686" font-family="Helvetica,sans-Serif" font-size="10.00" fill="#ffffff">No</text>
</g>
<!-- _18_0914_19&#45;&gt;_18_0914_19_No -->
<g id="edge13" class="edge">
<title>_18_0914_19&#45;&gt;_18_0914_19_No</title>
<path fill="none" stroke="#000000" stroke-dasharray="1,5" d="M380,-317.0412C380,-305.7863 380,-291.3611 380,-280.0976"/>
</g>
<!-- _18_0915_19 -->
<g id="node26" class="node">
<title>_18_0915_19</title>
<path fill="#77a576" stroke="#ffffff" d="M244.0039,-170.8124C244.0039,-170.8124 297.9961,-170.8124 297.9961,-170.8124 303.9961,-170.8124 309.9961,-176.8124 309.9961,-182.8124 309.9961,-182.8124 309.9961,-194.8124 309.9961,-194.8124 309.9961,-200.8124 303.9961,-206.8124 297.9961,-206.8124 297.9961,-206.8124 244.0039,-206.8124 244.0039,-206.8124 238.0039,-206.8124 232.0039,-200.8124 232.0039,-194.8124 232.0039,-194.8124 232.0039,-182.8124 232.0039,-182.8124 232.0039,-176.8124 238.0039,-170.8124 244.0039,-170.8124"/>
<text text-anchor="middle" x="271" y="-185.8124" font-family="Helvetica,sans-Serif" font-size="10.00" fill="#ffffff">DataLevel=L2</text>
</g>
<!-- _18_0914_19_yes&#45;&gt;_18_0915_19 -->
<g id="edge12" class="edge">
<title>_18_0914_19_yes&#45;&gt;_18_0915_19</title>
<path fill="none" stroke="#000000" stroke-dasharray="1,5" d="M271,-243.129C271,-243.129 271,-216.8314 271,-216.8314"/>
<polygon fill="#000000" stroke="#000000" points="271,-206.8314 275.5001,-216.8314 271,-211.8314 271.0001,-216.8314 271.0001,-216.8314 271.0001,-216.8314 271,-211.8314 266.5001,-216.8315 271,-206.8314 271,-206.8314"/>
</g>
<!-- _18_0914_19_No&#45;&gt;_18_0917_19 -->
<g id="edge14" class="edge">
<title>_18_0914_19_No&#45;&gt;_18_0917_19</title>
<path fill="none" stroke="#000000" stroke-dasharray="1,5" d="M389.9189,-246.8106C389.9189,-246.8106 389.9189,-217.0576 389.9189,-217.0576"/>
<polygon fill="#000000" stroke="#000000" points="389.9189,-207.0576 394.419,-217.0575 389.919,-212.0576 389.919,-217.0576 389.919,-217.0576 389.919,-217.0576 389.919,-212.0576 385.419,-217.0576 389.9189,-207.0576 389.9189,-207.0576"/>
</g>
<!-- _18_093_19_yes -->
<g id="node17" class="node">
<title>_18_093_19_yes</title>
<ellipse fill="none" stroke="#515151" stroke-dasharray="5,2" cx="156" cy="-996.5305" rx="18.8137" ry="18.8137"/>
<text text-anchor="middle" x="156" y="-993.5305" font-family="Helvetica,sans-Serif" font-size="10.00" fill="#515151">Yes</text>
</g>
<!-- _18_093_19&#45;&gt;_18_093_19_yes -->
<g id="edge15" class="edge">
<title>_18_093_19&#45;&gt;_18_093_19_yes</title>
<path fill="none" stroke="#000000" stroke-dasharray="1,5" d="M156,-1051.6032C156,-1040.6021 156,-1026.5722 156,-1015.4265"/>
</g>
<!-- _18_093_19_No -->
<g id="node18" class="node">
<title>_18_093_19_No</title>
<ellipse fill="#515151" stroke="#ffffff" cx="309" cy="-777.9057" rx="18" ry="18"/>
<text text-anchor="middle" x="309" y="-774.9057" font-family="Helvetica,sans-Serif" font-size="10.00" fill="#ffffff">No</text>
</g>
<!-- _18_093_19&#45;&gt;_18_093_19_No -->
<g id="edge17" class="edge">
<title>_18_093_19&#45;&gt;_18_093_19_No</title>
<path fill="none" stroke="#000000" stroke-dasharray="1,5" d="M277.2738,-1069C294.6098,-1069 307.6628,-1069 307.6628,-1069 307.6628,-1069 307.6628,-859.8426 307.6628,-796.115"/>
</g>
<!-- _18_094_19 -->
<g id="node20" class="node">
<title>_18_094_19</title>
<path fill="#3b8298" stroke="#ffffff" d="M36.1558,-905.2181C36.1558,-905.2181 203.8442,-905.2181 203.8442,-905.2181 209.8442,-905.2181 215.8442,-911.2181 215.8442,-917.2181 215.8442,-917.2181 215.8442,-929.2181 215.8442,-929.2181 215.8442,-935.2181 209.8442,-941.2181 203.8442,-941.2181 203.8442,-941.2181 36.1558,-941.2181 36.1558,-941.2181 30.1558,-941.2181 24.1558,-935.2181 24.1558,-929.2181 24.1558,-929.2181 24.1558,-917.2181 24.1558,-917.2181 24.1558,-911.2181 30.1558,-905.2181 36.1558,-905.2181"/>
<text text-anchor="middle" x="120" y="-925.2181" font-family="Helvetica,sans-Serif" font-size="10.00" fill="#ffffff">Can the data be converted into an open</text>
<text text-anchor="middle" x="120" y="-915.2181" font-family="Helvetica,sans-Serif" font-size="10.00" fill="#ffffff">format?</text>
</g>
<!-- _18_093_19_yes&#45;&gt;_18_094_19 -->
<g id="edge16" class="edge">
<title>_18_093_19_yes&#45;&gt;_18_094_19</title>
<path fill="none" stroke="#000000" stroke-dasharray="1,5" d="M156,-977.6508C156,-977.6508 156,-951.2756 156,-951.2756"/>
<polygon fill="#000000" stroke="#000000" points="156,-941.2756 160.5001,-951.2756 156,-946.2756 156.0001,-951.2756 156.0001,-951.2756 156.0001,-951.2756 156,-946.2756 151.5001,-951.2757 156,-941.2756 156,-941.2756"/>
</g>
<!-- rights -->
<g id="node34" class="node">
<title>rights</title>
<path fill="#3b8298" stroke="#ffffff" d="M223.3354,-684.7496C223.3354,-684.7496 392.6646,-684.7496 392.6646,-684.7496 398.6646,-684.7496 404.6646,-690.7496 404.6646,-696.7496 404.6646,-696.7496 404.6646,-710.7496 404.6646,-710.7496 404.6646,-716.7496 398.6646,-722.7496 392.6646,-722.7496 392.6646,-722.7496 223.3354,-722.7496 223.3354,-722.7496 217.3354,-722.7496 211.3354,-716.7496 211.3354,-710.7496 211.3354,-710.7496 211.3354,-696.7496 211.3354,-696.7496 211.3354,-690.7496 217.3354,-684.7496 223.3354,-684.7496"/>
<text text-anchor="middle" x="308" y="-710.7496" font-family="Helvetica,sans-Serif" font-size="10.00" fill="#ffffff">rights</text>
<text text-anchor="middle" x="308" y="-700.7496" font-family="Helvetica,sans-Serif" font-size="10.00" fill="#ffffff">Do you have the rights to make the data</text>
<text text-anchor="middle" x="308" y="-690.7496" font-family="Helvetica,sans-Serif" font-size="10.00" fill="#ffffff">open?</text>
</g>
<!-- _18_093_19_No&#45;&gt;rights -->
<g id="edge18" class="edge">
<title>_18_093_19_No&#45;&gt;rights</title>
<path fill="none" stroke="#000000" stroke-dasharray="1,5" d="M309,-759.575C309,-759.575 309,-732.9039 309,-732.9039"/>
<polygon fill="#000000" stroke="#000000" points="309,-722.9039 313.5001,-732.9038 309,-727.9039 309.0001,-732.9039 309.0001,-732.9039 309.0001,-732.9039 309,-727.9039 304.5001,-732.9039 309,-722.9039 309,-722.9039"/>
</g>
<!-- _18_099_19 -->
<g id="node19" class="node">
<title>_18_099_19</title>
<polygon fill="#aaffaa" stroke="#ffffff" points="470.399,-868.5619 321.601,-868.5619 321.601,-832.5619 476.399,-832.5619 476.399,-862.5619 470.399,-868.5619"/>
<polyline fill="none" stroke="#ffffff" points="470.399,-868.5619 470.399,-862.5619 "/>
<polyline fill="none" stroke="#ffffff" points="476.399,-862.5619 470.399,-862.5619 "/>
<text text-anchor="middle" x="399" y="-852.5619" font-family="Helvetica,sans-Serif" font-size="10.00" fill="#888888">todo</text>
<text text-anchor="middle" x="399" y="-842.5619" font-family="Helvetica,sans-Serif" font-size="10.00" fill="#888888">Data may be L3 &#45; complete this</text>
</g>
<!-- _18_094_19_no -->
<g id="node21" class="node">
<title>_18_094_19_no</title>
<ellipse fill="#515151" stroke="#ffffff" cx="71" cy="-850.5619" rx="18" ry="18"/>
<text text-anchor="middle" x="71" y="-847.5619" font-family="Helvetica,sans-Serif" font-size="10.00" fill="#ffffff">No</text>
</g>
<!-- _18_094_19&#45;&gt;_18_094_19_no -->
<g id="edge19" class="edge">
<title>_18_094_19&#45;&gt;_18_094_19_no</title>
<path fill="none" stroke="#000000" stroke-dasharray="1,5" d="M71,-904.8839C71,-893.7857 71,-879.69 71,-868.6386"/>
</g>
<!-- _18_094_19_Yes -->
<g id="node22" class="node">
<title>_18_094_19_Yes</title>
<ellipse fill="none" stroke="#515151" stroke-dasharray="5,2" cx="200" cy="-777.9057" rx="18.8137" ry="18.8137"/>
<text text-anchor="middle" x="200" y="-774.9057" font-family="Helvetica,sans-Serif" font-size="10.00" fill="#515151">Yes</text>
</g>
<!-- _18_094_19&#45;&gt;_18_094_19_Yes -->
<g id="edge21" class="edge">
<title>_18_094_19&#45;&gt;_18_094_19_Yes</title>
<path fill="none" stroke="#000000" stroke-dasharray="1,5" d="M198.594,-905.108C198.594,-877.4145 198.594,-824.8056 198.594,-796.7051"/>
</g>
<!-- _18_095_19 -->
<g id="node33" class="node">
<title>_18_095_19</title>
<path fill="#77a576" stroke="#ffffff" d="M43.0039,-759.9057C43.0039,-759.9057 96.9961,-759.9057 96.9961,-759.9057 102.9961,-759.9057 108.9961,-765.9057 108.9961,-771.9057 108.9961,-771.9057 108.9961,-783.9057 108.9961,-783.9057 108.9961,-789.9057 102.9961,-795.9057 96.9961,-795.9057 96.9961,-795.9057 43.0039,-795.9057 43.0039,-795.9057 37.0039,-795.9057 31.0039,-789.9057 31.0039,-783.9057 31.0039,-783.9057 31.0039,-771.9057 31.0039,-771.9057 31.0039,-765.9057 37.0039,-759.9057 43.0039,-759.9057"/>
<text text-anchor="middle" x="70" y="-774.9057" font-family="Helvetica,sans-Serif" font-size="10.00" fill="#ffffff">DataLevel=L3</text>
</g>
<!-- _18_094_19_no&#45;&gt;_18_095_19 -->
<g id="edge20" class="edge">
<title>_18_094_19_no&#45;&gt;_18_095_19</title>
<path fill="none" stroke="#000000" stroke-dasharray="1,5" d="M71,-832.2277C71,-832.2277 71,-805.9824 71,-805.9824"/>
<polygon fill="#000000" stroke="#000000" points="71,-795.9824 75.5001,-805.9824 71,-800.9824 71.0001,-805.9824 71.0001,-805.9824 71.0001,-805.9824 71,-800.9824 66.5001,-805.9825 71,-795.9824 71,-795.9824"/>
</g>
<!-- _18_094_19_Yes&#45;&gt;rights -->
<g id="edge22" class="edge">
<title>_18_094_19_Yes&#45;&gt;rights</title>
<path fill="none" stroke="#000000" stroke-dasharray="1,5" d="M214.9958,-766.643C214.9958,-766.643 214.9958,-732.9204 214.9958,-732.9204"/>
<polygon fill="#000000" stroke="#000000" points="214.9958,-722.9204 219.4959,-732.9204 214.9959,-727.9204 214.9959,-732.9204 214.9959,-732.9204 214.9959,-732.9204 214.9959,-727.9204 210.4959,-732.9205 214.9958,-722.9204 214.9958,-722.9204"/>
</g>
<!-- main_no -->
<g id="node24" class="node">
<title>main_no</title>
<ellipse fill="#515151" stroke="#ffffff" cx="153" cy="-1362.1553" rx="18" ry="18"/>
<text text-anchor="middle" x="153" y="-1359.1553" font-family="Helvetica,sans-Serif" font-size="10.00" fill="#ffffff">No</text>
</g>
<!-- main&#45;&gt;main_no -->
<g id="edge23" class="edge">
<title>main&#45;&gt;main_no</title>
<path fill="none" stroke="#000000" stroke-dasharray="1,5" d="M153,-1417.2144C153,-1405.7993 153,-1391.3841 153,-1380.1671"/>
</g>
<!-- main_Yes -->
<g id="node25" class="node">
<title>main_Yes</title>
<ellipse fill="none" stroke="#515151" stroke-dasharray="5,2" cx="311" cy="-1362.1553" rx="18.8137" ry="18.8137"/>
<text text-anchor="middle" x="311" y="-1359.1553" font-family="Helvetica,sans-Serif" font-size="10.00" fill="#515151">Yes</text>
</g>
<!-- main&#45;&gt;main_Yes -->
<g id="edge25" class="edge">
<title>main&#45;&gt;main_Yes</title>
<path fill="none" stroke="#000000" stroke-dasharray="1,5" d="M248.884,-1417.1744C248.884,-1395.1565 248.884,-1362 248.884,-1362 248.884,-1362 273.7585,-1362 292.0256,-1362"/>
</g>
<!-- main_no&#45;&gt;_18_091_19 -->
<g id="edge24" class="edge">
<title>main_no&#45;&gt;_18_091_19</title>
<path fill="none" stroke="#000000" stroke-dasharray="1,5" d="M153,-1344.0717C153,-1344.0717 153,-1317.1282 153,-1317.1282"/>
<polygon fill="#000000" stroke="#000000" points="153,-1307.1282 157.5001,-1317.1281 153,-1312.1282 153.0001,-1317.1282 153.0001,-1317.1282 153.0001,-1317.1282 153,-1312.1282 148.5001,-1317.1282 153,-1307.1282 153,-1307.1282"/>
</g>
<!-- isDigital -->
<g id="node37" class="node">
<title>isDigital</title>
<path fill="#3b8298" stroke="#ffffff" d="M305.5249,-1270.9991C305.5249,-1270.9991 386.4751,-1270.9991 386.4751,-1270.9991 392.4751,-1270.9991 398.4751,-1276.9991 398.4751,-1282.9991 398.4751,-1282.9991 398.4751,-1294.9991 398.4751,-1294.9991 398.4751,-1300.9991 392.4751,-1306.9991 386.4751,-1306.9991 386.4751,-1306.9991 305.5249,-1306.9991 305.5249,-1306.9991 299.5249,-1306.9991 293.5249,-1300.9991 293.5249,-1294.9991 293.5249,-1294.9991 293.5249,-1282.9991 293.5249,-1282.9991 293.5249,-1276.9991 299.5249,-1270.9991 305.5249,-1270.9991"/>
<text text-anchor="middle" x="346" y="-1290.9991" font-family="Helvetica,sans-Serif" font-size="10.00" fill="#ffffff">isDigital</text>
<text text-anchor="middle" x="346" y="-1280.9991" font-family="Helvetica,sans-Serif" font-size="10.00" fill="#ffffff">Are the data digital?</text>
</g>
<!-- main_Yes&#45;&gt;isDigital -->
<g id="edge26" class="edge">
<title>main_Yes&#45;&gt;isDigital</title>
<path fill="none" stroke="#000000" stroke-dasharray="1,5" d="M311.5905,-1343.3158C311.5905,-1343.3158 311.5905,-1317.0181 311.5905,-1317.0181"/>
<polygon fill="#000000" stroke="#000000" points="311.5905,-1307.0181 316.0906,-1317.0181 311.5906,-1312.0181 311.5906,-1317.0181 311.5906,-1317.0181 311.5906,-1317.0181 311.5906,-1312.0181 307.0906,-1317.0182 311.5905,-1307.0181 311.5905,-1307.0181"/>
</g>
<!-- _18_096_19 -->
<g id="node27" class="node">
<title>_18_096_19</title>
<path fill="#77a576" stroke="#ffffff" d="M354.9375,-1124.6867C354.9375,-1124.6867 465.0625,-1124.6867 465.0625,-1124.6867 471.0625,-1124.6867 477.0625,-1130.6867 477.0625,-1136.6867 477.0625,-1136.6867 477.0625,-1148.6867 477.0625,-1148.6867 477.0625,-1154.6867 471.0625,-1160.6867 465.0625,-1160.6867 465.0625,-1160.6867 354.9375,-1160.6867 354.9375,-1160.6867 348.9375,-1160.6867 342.9375,-1154.6867 342.9375,-1148.6867 342.9375,-1148.6867 342.9375,-1136.6867 342.9375,-1136.6867 342.9375,-1130.6867 348.9375,-1124.6867 354.9375,-1124.6867"/>
<text text-anchor="middle" x="410" y="-1139.6867" font-family="Helvetica,sans-Serif" font-size="10.00" fill="#ffffff">Assertions=[Media:analog]</text>
</g>
<!-- _18_097_19 -->
<g id="node30" class="node">
<title>_18_097_19</title>
<path fill="#3b8298" stroke="#ffffff" d="M360.9019,-1051.6867C360.9019,-1051.6867 469.0981,-1051.6867 469.0981,-1051.6867 475.0981,-1051.6867 481.0981,-1057.6867 481.0981,-1063.6867 481.0981,-1063.6867 481.0981,-1075.6867 481.0981,-1075.6867 481.0981,-1081.6867 475.0981,-1087.6867 469.0981,-1087.6867 469.0981,-1087.6867 360.9019,-1087.6867 360.9019,-1087.6867 354.9019,-1087.6867 348.9019,-1081.6867 348.9019,-1075.6867 348.9019,-1075.6867 348.9019,-1063.6867 348.9019,-1063.6867 348.9019,-1057.6867 354.9019,-1051.6867 360.9019,-1051.6867"/>
<text text-anchor="middle" x="415" y="-1066.6867" font-family="Helvetica,sans-Serif" font-size="10.00" fill="#ffffff">Can the data be digitized?</text>
</g>
<!-- _18_096_19&#45;&gt;_18_097_19 -->
<g id="edge27" class="edge">
<title>_18_096_19&#45;&gt;_18_097_19</title>
<path fill="none" stroke="#000000" stroke-dasharray="1,5" d="M412.9822,-1124.6418C412.9822,-1124.6418 412.9822,-1097.7771 412.9822,-1097.7771"/>
<polygon fill="#000000" stroke="#000000" points="412.9822,-1087.7771 417.4823,-1097.777 412.9822,-1092.7771 412.9823,-1097.7771 412.9823,-1097.7771 412.9823,-1097.7771 412.9822,-1092.7771 408.4823,-1097.7771 412.9822,-1087.7771 412.9822,-1087.7771"/>
</g>
<!-- _18_098_19 -->
<g id="node28" class="node">
<title>_18_098_19</title>
<path fill="#77a576" stroke="#ffffff" d="M374.0039,-905.2181C374.0039,-905.2181 427.9961,-905.2181 427.9961,-905.2181 433.9961,-905.2181 439.9961,-911.2181 439.9961,-917.2181 439.9961,-917.2181 439.9961,-929.2181 439.9961,-929.2181 439.9961,-935.2181 433.9961,-941.2181 427.9961,-941.2181 427.9961,-941.2181 374.0039,-941.2181 374.0039,-941.2181 368.0039,-941.2181 362.0039,-935.2181 362.0039,-929.2181 362.0039,-929.2181 362.0039,-917.2181 362.0039,-917.2181 362.0039,-911.2181 368.0039,-905.2181 374.0039,-905.2181"/>
<text text-anchor="middle" x="401" y="-920.2181" font-family="Helvetica,sans-Serif" font-size="10.00" fill="#ffffff">DataLevel=L4</text>
</g>
<!-- _18_098_19&#45;&gt;_18_099_19 -->
<g id="edge28" class="edge">
<title>_18_098_19&#45;&gt;_18_099_19</title>
<path fill="none" stroke="#000000" stroke-dasharray="1,5" d="M401,-904.8839C401,-904.8839 401,-878.6386 401,-878.6386"/>
<polygon fill="#000000" stroke="#000000" points="401,-868.6386 405.5001,-878.6386 401,-873.6386 401.0001,-878.6386 401.0001,-878.6386 401.0001,-878.6386 401,-873.6386 396.5001,-878.6387 401,-868.6386 401,-868.6386"/>
</g>
<!-- _18_097_19_no -->
<g id="node31" class="node">
<title>_18_097_19_no</title>
<ellipse fill="#515151" stroke="#ffffff" cx="406" cy="-996.5305" rx="18" ry="18"/>
<text text-anchor="middle" x="406" y="-993.5305" font-family="Helvetica,sans-Serif" font-size="10.00" fill="#ffffff">No</text>
</g>
<!-- _18_097_19&#45;&gt;_18_097_19_no -->
<g id="edge29" class="edge">
<title>_18_097_19&#45;&gt;_18_097_19_no</title>
<path fill="none" stroke="#000000" stroke-dasharray="1,5" d="M406,-1051.6032C406,-1040.3482 406,-1025.9231 406,-1014.6596"/>
</g>
<!-- _18_097_19_Yes -->
<g id="node32" class="node">
<title>_18_097_19_Yes</title>
<ellipse fill="none" stroke="#515151" stroke-dasharray="5,2" cx="531" cy="-923.2181" rx="18.8137" ry="18.8137"/>
<text text-anchor="middle" x="531" y="-920.2181" font-family="Helvetica,sans-Serif" font-size="10.00" fill="#515151">Yes</text>
</g>
<!-- _18_097_19&#45;&gt;_18_097_19_Yes -->
<g id="edge31" class="edge">
<title>_18_097_19&#45;&gt;_18_097_19_Yes</title>
<path fill="none" stroke="#000000" stroke-dasharray="1,5" d="M481.1324,-1069C507.1826,-1069 531,-1069 531,-1069 531,-1069 531,-981.3515 531,-941.9781"/>
</g>
<!-- _18_097_19_no&#45;&gt;_18_098_19 -->
<g id="edge30" class="edge">
<title>_18_097_19_no&#45;&gt;_18_098_19</title>
<path fill="none" stroke="#000000" stroke-dasharray="1,5" d="M406,-978.4084C406,-978.4084 406,-951.3859 406,-951.3859"/>
<polygon fill="#000000" stroke="#000000" points="406,-941.3859 410.5001,-951.3859 406,-946.3859 406.0001,-951.3859 406.0001,-951.3859 406.0001,-951.3859 406,-946.3859 401.5001,-951.386 406,-941.3859 406,-941.3859"/>
</g>
<!-- _18_097_19_Yes&#45;&gt;rights -->
<g id="edge32" class="edge">
<title>_18_097_19_Yes&#45;&gt;rights</title>
<path fill="none" stroke="#000000" stroke-dasharray="1,5" d="M531,-904.2965C531,-852.114 531,-710 531,-710 531,-710 414.8381,-710 414.8381,-710"/>
<polygon fill="#000000" stroke="#000000" points="404.8381,-710 414.8382,-705.5001 409.8381,-710 414.8381,-710.0001 414.8381,-710.0001 414.8381,-710.0001 409.8381,-710 414.8381,-714.5001 404.8381,-710 404.8381,-710"/>
</g>
<!-- _18_095_19&#45;&gt;rights -->
<g id="edge33" class="edge">
<title>_18_095_19&#45;&gt;rights</title>
<path fill="none" stroke="#000000" stroke-dasharray="1,5" d="M70,-759.7732C70,-737.6046 70,-703 70,-703 70,-703 201.1963,-703 201.1963,-703"/>
<polygon fill="#000000" stroke="#000000" points="211.1963,-703 201.1963,-707.5001 206.1963,-703 201.1963,-703.0001 201.1963,-703.0001 201.1963,-703.0001 206.1963,-703 201.1962,-698.5001 211.1963,-703 211.1963,-703"/>
</g>
<!-- rights_yes -->
<g id="node35" class="node">
<title>rights_yes</title>
<ellipse fill="none" stroke="#515151" stroke-dasharray="5,2" cx="302" cy="-629.5934" rx="18.8137" ry="18.8137"/>
<text text-anchor="middle" x="302" y="-626.5934" font-family="Helvetica,sans-Serif" font-size="10.00" fill="#515151">Yes</text>
</g>
<!-- rights&#45;&gt;rights_yes -->
<g id="edge34" class="edge">
<title>rights&#45;&gt;rights_yes</title>
<path fill="none" stroke="#000000" stroke-dasharray="1,5" d="M302,-684.6525C302,-673.4949 302,-659.4709 302,-648.369"/>
</g>
<!-- rights_No -->
<g id="node36" class="node">
<title>rights_No</title>
<ellipse fill="#515151" stroke="#ffffff" cx="471" cy="-555.4372" rx="18" ry="18"/>
<text text-anchor="middle" x="471" y="-552.4372" font-family="Helvetica,sans-Serif" font-size="10.00" fill="#ffffff">No</text>
</g>
<!-- rights&#45;&gt;rights_No -->
<g id="edge36" class="edge">
<title>rights&#45;&gt;rights_No</title>
<path fill="none" stroke="#000000" stroke-dasharray="1,5" d="M404.9493,-697C436.9857,-697 464.5996,-697 464.5996,-697 464.5996,-697 464.5996,-610.1643 464.5996,-572.513"/>
</g>
<!-- rights_yes&#45;&gt;sensitivity -->
<g id="edge35" class="edge">
<title>rights_yes&#45;&gt;sensitivity</title>
<path fill="none" stroke="#000000" stroke-dasharray="1,5" d="M302,-610.8806C302,-610.8806 302,-584.6608 302,-584.6608"/>
<polygon fill="#000000" stroke="#000000" points="302,-574.6608 306.5001,-584.6608 302,-579.6608 302.0001,-584.6608 302.0001,-584.6608 302.0001,-584.6608 302,-579.6608 297.5001,-584.6609 302,-574.6608 302,-574.6608"/>
</g>
<!-- rights_No&#45;&gt;_18_0917_19 -->
<g id="edge37" class="edge">
<title>rights_No&#45;&gt;_18_0917_19</title>
<path fill="none" stroke="#000000" stroke-dasharray="1,5" d="M471,-537.2562C471,-537.2562 471,-217.1031 471,-217.1031"/>
<polygon fill="#000000" stroke="#000000" points="471,-207.1031 475.5001,-217.1031 471,-212.1031 471.0001,-217.1031 471.0001,-217.1031 471.0001,-217.1031 471,-212.1031 466.5001,-217.1031 471,-207.1031 471,-207.1031"/>
</g>
<!-- isDigital_yes -->
<g id="node38" class="node">
<title>isDigital_yes</title>
<ellipse fill="none" stroke="#515151" stroke-dasharray="5,2" cx="217" cy="-1215.8429" rx="18.8137" ry="18.8137"/>
<text text-anchor="middle" x="217" y="-1212.8429" font-family="Helvetica,sans-Serif" font-size="10.00" fill="#515151">Yes</text>
</g>
<!-- isDigital&#45;&gt;isDigital_yes -->
<g id="edge38" class="edge">
<title>isDigital&#45;&gt;isDigital_yes</title>
<path fill="none" stroke="#000000" stroke-dasharray="1,5" d="M293.4952,-1288C262.2453,-1288 228.6321,-1288 228.6321,-1288 228.6321,-1288 228.6321,-1251.5295 228.6321,-1230.445"/>
</g>
<!-- isDigital_no -->
<g id="node39" class="node">
<title>isDigital_no</title>
<ellipse fill="#515151" stroke="#ffffff" cx="378" cy="-1215.8429" rx="18" ry="18"/>
<text text-anchor="middle" x="378" y="-1212.8429" font-family="Helvetica,sans-Serif" font-size="10.00" fill="#ffffff">No</text>
</g>
<!-- isDigital&#45;&gt;isDigital_no -->
<g id="edge40" class="edge">
<title>isDigital&#45;&gt;isDigital_no</title>
<path fill="none" stroke="#000000" stroke-dasharray="1,5" d="M378,-1270.9156C378,-1259.6606 378,-1245.2355 378,-1233.972"/>
</g>
<!-- isDigital_yes&#45;&gt;_18_092_19 -->
<g id="edge39" class="edge">
<title>isDigital_yes&#45;&gt;_18_092_19</title>
<path fill="none" stroke="#000000" stroke-dasharray="1,5" d="M217,-1197.0034C217,-1197.0034 217,-1170.7057 217,-1170.7057"/>
<polygon fill="#000000" stroke="#000000" points="217,-1160.7057 221.5001,-1170.7057 217,-1165.7057 217.0001,-1170.7057 217.0001,-1170.7057 217.0001,-1170.7057 217,-1165.7057 212.5001,-1170.7058 217,-1160.7057 217,-1160.7057"/>
</g>
<!-- isDigital_no&#45;&gt;_18_096_19 -->
<g id="edge41" class="edge">
<title>isDigital_no&#45;&gt;_18_096_19</title>
<path fill="none" stroke="#000000" stroke-dasharray="1,5" d="M378,-1197.7594C378,-1197.7594 378,-1170.8158 378,-1170.8158"/>
<polygon fill="#000000" stroke="#000000" points="378,-1160.8158 382.5001,-1170.8157 378,-1165.8158 378.0001,-1170.8158 378.0001,-1170.8158 378.0001,-1170.8158 378,-1165.8158 373.5001,-1170.8158 378,-1160.8158 378,-1160.8158"/>
</g>
</g>
</svg>
