<?xml version="1.0" encoding="UTF-8" standalone="no"?>
<!DOCTYPE svg PUBLIC "-//W3C//DTD SVG 1.1//EN"
 "http://www.w3.org/Graphics/SVG/1.1/DTD/svg11.dtd">
<!-- Generated by graphviz version 2.40.1 (20161225.0304)
 -->
<!-- Title: DecisionGraph Pages: 1 -->
<svg width="1145pt" height="925pt"
 viewBox="0.00 0.00 1145.00 924.56" xmlns="http://www.w3.org/2000/svg" xmlns:xlink="http://www.w3.org/1999/xlink">
<g id="graph0" class="graph" transform="scale(1 1) rotate(0) translate(4 920.5619)">
<title>DecisionGraph</title>
<polygon fill="#ffffff" stroke="transparent" points="-4,4 -4,-920.5619 1141,-920.5619 1141,4 -4,4"/>
<g id="clust1" class="cluster">
<title>cluster_DecisionGraph_172</title>
<polygon fill="none" stroke="#000000" points="8,-8 8,-872.5619 1129,-872.5619 1129,-8 8,-8"/>
<text text-anchor="middle" x="568.5" y="-857.3619" font-family="Courier,monospace" font-size="14.00" fill="#000000">questionnaire.dg</text>
</g>
<g id="clust2" class="cluster">
<title>cluster_open</title>
<polygon fill="none" stroke="#aabbdd" points="907,-163.3124 907,-842.5619 1121,-842.5619 1121,-163.3124 907,-163.3124"/>
<text text-anchor="middle" x="931.8027" y="-827.3619" font-family="Courier,monospace" font-size="14.00" fill="#000000">open</text>
</g>
<g id="clust3" class="cluster">
<title>cluster_citable</title>
<polygon fill="none" stroke="#aabbdd" points="655,-459.9372 655,-837.5619 865,-837.5619 865,-459.9372 655,-459.9372"/>
<text text-anchor="middle" x="692.4048" y="-822.3619" font-family="Courier,monospace" font-size="14.00" fill="#000000">citable</text>
</g>
<g id="clust4" class="cluster">
<title>cluster_trustworthy</title>
<polygon fill="none" stroke="#aabbdd" points="403,-163.3124 403,-842.5619 614,-842.5619 614,-163.3124 403,-163.3124"/>
<text text-anchor="middle" x="457.2075" y="-827.3619" font-family="Courier,monospace" font-size="14.00" fill="#000000">trustworthy</text>
</g>
<g id="clust5" class="cluster">
<title>cluster_main</title>
<polygon fill="none" stroke="#aabbdd" points="275,-534.5934 275,-836.0619 355,-836.0619 355,-534.5934 275,-534.5934"/>
<text text-anchor="middle" x="299.8027" y="-820.8619" font-family="Courier,monospace" font-size="14.00" fill="#000000">main</text>
</g>
<g id="clust6" class="cluster">
<title>cluster_FAIR</title>
<polygon fill="none" stroke="#aabbdd" points="16,-16 16,-837.5619 222,-837.5619 222,-16 16,-16"/>
<text text-anchor="middle" x="40.8027" y="-822.3619" font-family="Courier,monospace" font-size="14.00" fill="#000000">FAIR</text>
</g>
<!-- start -->
<g id="node1" class="node">
<title>start</title>
<polygon fill="transparent" stroke="transparent" points="339,-916.5619 285,-916.5619 285,-880.5619 339,-880.5619 339,-916.5619"/>
<text text-anchor="middle" x="312" y="-894.9619" font-family="Helvetica,sans-Serif" font-size="12.00" fill="#3b8298">start</text>
</g>
<!-- main -->
<g id="node36" class="node">
<title>main</title>
<polygon fill="#bbbbff" stroke="#ffffff" points="327,-800.0619 285,-800.0619 285,-776.0619 327,-776.0619 339,-788.0619 327,-800.0619"/>
<text text-anchor="middle" x="312" y="-790.0619" font-family="Helvetica,sans-Serif" font-size="10.00" fill="#ffffff">main</text>
<text text-anchor="middle" x="312" y="-780.0619" font-family="Helvetica,sans-Serif" font-size="10.00" fill="#ffffff">open</text>
</g>
<!-- start&#45;&gt;main -->
<g id="edge49" class="edge">
<title>start&#45;&gt;main</title>
<path fill="none" stroke="#3b8298" d="M312,-880.3151C312,-880.3151 312,-816.3359 312,-816.3359"/>
<polygon fill="#3b8298" stroke="#3b8298" points="312,-806.3359 316.5001,-816.3358 312,-811.3359 312.0001,-816.3359 312.0001,-816.3359 312.0001,-816.3359 312,-811.3359 307.5001,-816.3359 312,-806.3359 312,-806.3359"/>
</g>
<!-- _18_098_19 -->
<g id="node2" class="node">
<title>_18_098_19</title>
<path fill="#77a576" stroke="#ffffff" d="M944.1924,-171.8124C944.1924,-171.8124 991.8076,-171.8124 991.8076,-171.8124 997.8076,-171.8124 1003.8076,-177.8124 1003.8076,-183.8124 1003.8076,-183.8124 1003.8076,-195.8124 1003.8076,-195.8124 1003.8076,-201.8124 997.8076,-207.8124 991.8076,-207.8124 991.8076,-207.8124 944.1924,-207.8124 944.1924,-207.8124 938.1924,-207.8124 932.1924,-201.8124 932.1924,-195.8124 932.1924,-195.8124 932.1924,-183.8124 932.1924,-183.8124 932.1924,-177.8124 938.1924,-171.8124 944.1924,-171.8124"/>
<text text-anchor="middle" x="968" y="-186.8124" font-family="Helvetica,sans-Serif" font-size="10.00" fill="#ffffff">_18_098_19</text>
</g>
<!-- open -->
<g id="node3" class="node">
<title>open</title>
<path fill="#3b8298" stroke="#ffffff" d="M941.3477,-764.0619C941.3477,-764.0619 1100.6523,-764.0619 1100.6523,-764.0619 1106.6523,-764.0619 1112.6523,-770.0619 1112.6523,-776.0619 1112.6523,-776.0619 1112.6523,-800.0619 1112.6523,-800.0619 1112.6523,-806.0619 1106.6523,-812.0619 1100.6523,-812.0619 1100.6523,-812.0619 941.3477,-812.0619 941.3477,-812.0619 935.3477,-812.0619 929.3477,-806.0619 929.3477,-800.0619 929.3477,-800.0619 929.3477,-776.0619 929.3477,-776.0619 929.3477,-770.0619 935.3477,-764.0619 941.3477,-764.0619"/>
<text text-anchor="middle" x="1021" y="-800.0619" font-family="Helvetica,sans-Serif" font-size="10.00" fill="#ffffff">open</text>
<text text-anchor="middle" x="1021" y="-790.0619" font-family="Helvetica,sans-Serif" font-size="10.00" fill="#ffffff">Does the repository provide access to</text>
<text text-anchor="middle" x="1021" y="-780.0619" font-family="Helvetica,sans-Serif" font-size="10.00" fill="#ffffff">the data with minimal or no</text>
<text text-anchor="middle" x="1021" y="-770.0619" font-family="Helvetica,sans-Serif" font-size="10.00" fill="#ffffff">restrictions?</text>
</g>
<!-- open_yes -->
<g id="node4" class="node">
<title>open_yes</title>
<ellipse fill="none" stroke="#515151" stroke-dasharray="5,2" cx="986" cy="-708.9057" rx="18.8137" ry="18.8137"/>
<text text-anchor="middle" x="986" y="-705.9057" font-family="Helvetica,sans-Serif" font-size="10.00" fill="#515151">Yes</text>
</g>
<!-- open&#45;&gt;open_yes -->
<g id="edge1" class="edge">
<title>open&#45;&gt;open_yes</title>
<path fill="none" stroke="#000000" stroke-dasharray="1,5" d="M986,-763.8824C986,-752.2432 986,-738.499 986,-727.6647"/>
</g>
<!-- open_No -->
<g id="node5" class="node">
<title>open_No</title>
<ellipse fill="#515151" stroke="#ffffff" cx="1095" cy="-708.9057" rx="18" ry="18"/>
<text text-anchor="middle" x="1095" y="-705.9057" font-family="Helvetica,sans-Serif" font-size="10.00" fill="#ffffff">No</text>
</g>
<!-- open&#45;&gt;open_No -->
<g id="edge3" class="edge">
<title>open&#45;&gt;open_No</title>
<path fill="none" stroke="#000000" stroke-dasharray="1,5" d="M1094.8262,-763.8824C1094.8262,-751.9704 1094.8262,-737.8536 1094.8262,-726.9077"/>
</g>
<!-- _18_095_19 -->
<g id="node9" class="node">
<title>_18_095_19</title>
<path fill="#3b8298" stroke="#ffffff" d="M927.2173,-615.7496C927.2173,-615.7496 1088.7827,-615.7496 1088.7827,-615.7496 1094.7827,-615.7496 1100.7827,-621.7496 1100.7827,-627.7496 1100.7827,-627.7496 1100.7827,-641.7496 1100.7827,-641.7496 1100.7827,-647.7496 1094.7827,-653.7496 1088.7827,-653.7496 1088.7827,-653.7496 927.2173,-653.7496 927.2173,-653.7496 921.2173,-653.7496 915.2173,-647.7496 915.2173,-641.7496 915.2173,-641.7496 915.2173,-627.7496 915.2173,-627.7496 915.2173,-621.7496 921.2173,-615.7496 927.2173,-615.7496"/>
<text text-anchor="middle" x="1008" y="-641.7496" font-family="Helvetica,sans-Serif" font-size="10.00" fill="#ffffff">Are you free to download the data and</text>
<text text-anchor="middle" x="1008" y="-631.7496" font-family="Helvetica,sans-Serif" font-size="10.00" fill="#ffffff">reuse it with no or minimal</text>
<text text-anchor="middle" x="1008" y="-621.7496" font-family="Helvetica,sans-Serif" font-size="10.00" fill="#ffffff">restrictions?</text>
</g>
<!-- open_yes&#45;&gt;_18_095_19 -->
<g id="edge2" class="edge">
<title>open_yes&#45;&gt;_18_095_19</title>
<path fill="none" stroke="#000000" stroke-dasharray="1,5" d="M986,-690.193C986,-690.193 986,-663.9732 986,-663.9732"/>
<polygon fill="#000000" stroke="#000000" points="986,-653.9732 990.5001,-663.9732 986,-658.9732 986.0001,-663.9732 986.0001,-663.9732 986.0001,-663.9732 986,-658.9732 981.5001,-663.9733 986,-653.9732 986,-653.9732"/>
</g>
<!-- _18_097_19 -->
<g id="node6" class="node">
<title>_18_097_19</title>
<path fill="#3b8298" stroke="#ffffff" d="M927.1064,-320.1248C927.1064,-320.1248 1100.8936,-320.1248 1100.8936,-320.1248 1106.8936,-320.1248 1112.8936,-326.1248 1112.8936,-332.1248 1112.8936,-332.1248 1112.8936,-344.1248 1112.8936,-344.1248 1112.8936,-350.1248 1106.8936,-356.1248 1100.8936,-356.1248 1100.8936,-356.1248 927.1064,-356.1248 927.1064,-356.1248 921.1064,-356.1248 915.1064,-350.1248 915.1064,-344.1248 915.1064,-344.1248 915.1064,-332.1248 915.1064,-332.1248 915.1064,-326.1248 921.1064,-320.1248 927.1064,-320.1248"/>
<text text-anchor="middle" x="1014" y="-335.1248" font-family="Helvetica,sans-Serif" font-size="10.00" fill="#ffffff">Are the data provided in an open format?</text>
</g>
<!-- _18_097_19_yes -->
<g id="node7" class="node">
<title>_18_097_19_yes</title>
<ellipse fill="none" stroke="#515151" stroke-dasharray="5,2" cx="968" cy="-263.9686" rx="18.8137" ry="18.8137"/>
<text text-anchor="middle" x="968" y="-260.9686" font-family="Helvetica,sans-Serif" font-size="10.00" fill="#515151">Yes</text>
</g>
<!-- _18_097_19&#45;&gt;_18_097_19_yes -->
<g id="edge4" class="edge">
<title>_18_097_19&#45;&gt;_18_097_19_yes</title>
<path fill="none" stroke="#000000" stroke-dasharray="1,5" d="M968,-319.794C968,-308.5568 968,-294.2019 968,-282.8627"/>
</g>
<!-- _18_097_19_No -->
<g id="node8" class="node">
<title>_18_097_19_No</title>
<ellipse fill="#515151" stroke="#ffffff" cx="1077" cy="-263.9686" rx="18" ry="18"/>
<text text-anchor="middle" x="1077" y="-260.9686" font-family="Helvetica,sans-Serif" font-size="10.00" fill="#ffffff">No</text>
</g>
<!-- _18_097_19&#45;&gt;_18_097_19_No -->
<g id="edge6" class="edge">
<title>_18_097_19&#45;&gt;_18_097_19_No</title>
<path fill="none" stroke="#000000" stroke-dasharray="1,5" d="M1077,-319.794C1077,-308.2995 1077,-293.5428 1077,-282.0885"/>
</g>
<!-- _18_097_19_yes&#45;&gt;_18_098_19 -->
<g id="edge5" class="edge">
<title>_18_097_19_yes&#45;&gt;_18_098_19</title>
<path fill="none" stroke="#000000" stroke-dasharray="1,5" d="M968,-245.2558C968,-245.2558 968,-218.0064 968,-218.0064"/>
<polygon fill="#000000" stroke="#000000" points="968,-208.0064 972.5001,-218.0064 968,-213.0064 968.0001,-218.0064 968.0001,-218.0064 968.0001,-218.0064 968,-213.0064 963.5001,-218.0065 968,-208.0064 968,-208.0064"/>
</g>
<!-- _18_095_19_yes -->
<g id="node10" class="node">
<title>_18_095_19_yes</title>
<ellipse fill="none" stroke="#515151" stroke-dasharray="5,2" cx="986" cy="-560.5934" rx="18.8137" ry="18.8137"/>
<text text-anchor="middle" x="986" y="-557.5934" font-family="Helvetica,sans-Serif" font-size="10.00" fill="#515151">Yes</text>
</g>
<!-- _18_095_19&#45;&gt;_18_095_19_yes -->
<g id="edge7" class="edge">
<title>_18_095_19&#45;&gt;_18_095_19_yes</title>
<path fill="none" stroke="#000000" stroke-dasharray="1,5" d="M986,-615.6525C986,-604.4949 986,-590.4709 986,-579.369"/>
</g>
<!-- _18_095_19_No -->
<g id="node11" class="node">
<title>_18_095_19_No</title>
<ellipse fill="#515151" stroke="#ffffff" cx="1095" cy="-560.5934" rx="18" ry="18"/>
<text text-anchor="middle" x="1095" y="-557.5934" font-family="Helvetica,sans-Serif" font-size="10.00" fill="#ffffff">No</text>
</g>
<!-- _18_095_19&#45;&gt;_18_095_19_No -->
<g id="edge9" class="edge">
<title>_18_095_19&#45;&gt;_18_095_19_No</title>
<path fill="none" stroke="#000000" stroke-dasharray="1,5" d="M1088.8914,-615.6525C1088.8914,-603.9799 1088.8914,-589.1703 1088.8914,-577.851"/>
</g>
<!-- _18_096_19 -->
<g id="node12" class="node">
<title>_18_096_19</title>
<path fill="#3b8298" stroke="#ffffff" d="M926.5298,-468.4372C926.5298,-468.4372 1047.4702,-468.4372 1047.4702,-468.4372 1053.4702,-468.4372 1059.4702,-474.4372 1059.4702,-480.4372 1059.4702,-480.4372 1059.4702,-492.4372 1059.4702,-492.4372 1059.4702,-498.4372 1053.4702,-504.4372 1047.4702,-504.4372 1047.4702,-504.4372 926.5298,-504.4372 926.5298,-504.4372 920.5298,-504.4372 914.5298,-498.4372 914.5298,-492.4372 914.5298,-492.4372 914.5298,-480.4372 914.5298,-480.4372 914.5298,-474.4372 920.5298,-468.4372 926.5298,-468.4372"/>
<text text-anchor="middle" x="987" y="-488.4372" font-family="Helvetica,sans-Serif" font-size="10.00" fill="#ffffff">Are the data covered by a</text>
<text text-anchor="middle" x="987" y="-478.4372" font-family="Helvetica,sans-Serif" font-size="10.00" fill="#ffffff">commons&#45;compliant license?</text>
</g>
<!-- _18_095_19_yes&#45;&gt;_18_096_19 -->
<g id="edge8" class="edge">
<title>_18_095_19_yes&#45;&gt;_18_096_19</title>
<path fill="none" stroke="#000000" stroke-dasharray="1,5" d="M986,-541.8806C986,-541.8806 986,-514.6312 986,-514.6312"/>
<polygon fill="#000000" stroke="#000000" points="986,-504.6312 990.5001,-514.6312 986,-509.6312 986.0001,-514.6312 986.0001,-514.6312 986.0001,-514.6312 986,-509.6312 981.5001,-514.6313 986,-504.6312 986,-504.6312"/>
</g>
<!-- _18_096_19_yes -->
<g id="node13" class="node">
<title>_18_096_19_yes</title>
<ellipse fill="none" stroke="#515151" stroke-dasharray="5,2" cx="986" cy="-412.281" rx="18.8137" ry="18.8137"/>
<text text-anchor="middle" x="986" y="-409.281" font-family="Helvetica,sans-Serif" font-size="10.00" fill="#515151">Yes</text>
</g>
<!-- _18_096_19&#45;&gt;_18_096_19_yes -->
<g id="edge10" class="edge">
<title>_18_096_19&#45;&gt;_18_096_19_yes</title>
<path fill="none" stroke="#000000" stroke-dasharray="1,5" d="M986,-468.1064C986,-456.8692 986,-442.5143 986,-431.1751"/>
</g>
<!-- _18_096_19_No -->
<g id="node14" class="node">
<title>_18_096_19_No</title>
<ellipse fill="#515151" stroke="#ffffff" cx="1095" cy="-412.281" rx="18" ry="18"/>
<text text-anchor="middle" x="1095" y="-409.281" font-family="Helvetica,sans-Serif" font-size="10.00" fill="#ffffff">No</text>
</g>
<!-- _18_096_19&#45;&gt;_18_096_19_No -->
<g id="edge12" class="edge">
<title>_18_096_19&#45;&gt;_18_096_19_No</title>
<path fill="none" stroke="#000000" stroke-dasharray="1,5" d="M1059.6368,-486C1079.1731,-486 1095,-486 1095,-486 1095,-486 1095,-452.334 1095,-430.5037"/>
</g>
<!-- _18_096_19_yes&#45;&gt;_18_097_19 -->
<g id="edge11" class="edge">
<title>_18_096_19_yes&#45;&gt;_18_097_19</title>
<path fill="none" stroke="#000000" stroke-dasharray="1,5" d="M986,-393.5682C986,-393.5682 986,-366.3188 986,-366.3188"/>
<polygon fill="#000000" stroke="#000000" points="986,-356.3188 990.5001,-366.3188 986,-361.3188 986.0001,-366.3188 986.0001,-366.3188 986.0001,-366.3188 986,-361.3188 981.5001,-366.3189 986,-356.3188 986,-356.3188"/>
</g>
<!-- _18_0916_19 -->
<g id="node15" class="node">
<title>_18_0916_19</title>
<path fill="#3b8298" stroke="#ffffff" d="M690.168,-616.7496C690.168,-616.7496 827.832,-616.7496 827.832,-616.7496 833.832,-616.7496 839.832,-622.7496 839.832,-628.7496 839.832,-628.7496 839.832,-640.7496 839.832,-640.7496 839.832,-646.7496 833.832,-652.7496 827.832,-652.7496 827.832,-652.7496 690.168,-652.7496 690.168,-652.7496 684.168,-652.7496 678.168,-646.7496 678.168,-640.7496 678.168,-640.7496 678.168,-628.7496 678.168,-628.7496 678.168,-622.7496 684.168,-616.7496 690.168,-616.7496"/>
<text text-anchor="middle" x="759" y="-636.7496" font-family="Helvetica,sans-Serif" font-size="10.00" fill="#ffffff">Does the repository provide a</text>
<text text-anchor="middle" x="759" y="-626.7496" font-family="Helvetica,sans-Serif" font-size="10.00" fill="#ffffff">machine&#45;readable landing page?</text>
</g>
<!-- _18_0916_19_yes -->
<g id="node16" class="node">
<title>_18_0916_19_yes</title>
<ellipse fill="none" stroke="#515151" stroke-dasharray="5,2" cx="716" cy="-560.5934" rx="18.8137" ry="18.8137"/>
<text text-anchor="middle" x="716" y="-557.5934" font-family="Helvetica,sans-Serif" font-size="10.00" fill="#515151">Yes</text>
</g>
<!-- _18_0916_19&#45;&gt;_18_0916_19_yes -->
<g id="edge13" class="edge">
<title>_18_0916_19&#45;&gt;_18_0916_19_yes</title>
<path fill="none" stroke="#000000" stroke-dasharray="1,5" d="M716,-616.4188C716,-605.1816 716,-590.8267 716,-579.4875"/>
</g>
<!-- _18_0916_19_No -->
<g id="node17" class="node">
<title>_18_0916_19_No</title>
<ellipse fill="#515151" stroke="#ffffff" cx="825" cy="-560.5934" rx="18" ry="18"/>
<text text-anchor="middle" x="825" y="-557.5934" font-family="Helvetica,sans-Serif" font-size="10.00" fill="#ffffff">No</text>
</g>
<!-- _18_0916_19&#45;&gt;_18_0916_19_No -->
<g id="edge15" class="edge">
<title>_18_0916_19&#45;&gt;_18_0916_19_No</title>
<path fill="none" stroke="#000000" stroke-dasharray="1,5" d="M823.416,-616.4188C823.416,-604.9242 823.416,-590.1676 823.416,-578.7133"/>
</g>
<!-- _18_0917_19 -->
<g id="node18" class="node">
<title>_18_0917_19</title>
<path fill="#77a576" stroke="#ffffff" d="M689.4116,-468.4372C689.4116,-468.4372 742.5884,-468.4372 742.5884,-468.4372 748.5884,-468.4372 754.5884,-474.4372 754.5884,-480.4372 754.5884,-480.4372 754.5884,-492.4372 754.5884,-492.4372 754.5884,-498.4372 748.5884,-504.4372 742.5884,-504.4372 742.5884,-504.4372 689.4116,-504.4372 689.4116,-504.4372 683.4116,-504.4372 677.4116,-498.4372 677.4116,-492.4372 677.4116,-492.4372 677.4116,-480.4372 677.4116,-480.4372 677.4116,-474.4372 683.4116,-468.4372 689.4116,-468.4372"/>
<text text-anchor="middle" x="716" y="-483.4372" font-family="Helvetica,sans-Serif" font-size="10.00" fill="#ffffff">_18_0917_19</text>
</g>
<!-- _18_0916_19_yes&#45;&gt;_18_0917_19 -->
<g id="edge14" class="edge">
<title>_18_0916_19_yes&#45;&gt;_18_0917_19</title>
<path fill="none" stroke="#000000" stroke-dasharray="1,5" d="M716,-541.8806C716,-541.8806 716,-514.6312 716,-514.6312"/>
<polygon fill="#000000" stroke="#000000" points="716,-504.6312 720.5001,-514.6312 716,-509.6312 716.0001,-514.6312 716.0001,-514.6312 716.0001,-514.6312 716,-509.6312 711.5001,-514.6313 716,-504.6312 716,-504.6312"/>
</g>
<!-- citable -->
<g id="node19" class="node">
<title>citable</title>
<path fill="#3b8298" stroke="#ffffff" d="M674.7837,-769.0619C674.7837,-769.0619 845.2163,-769.0619 845.2163,-769.0619 851.2163,-769.0619 857.2163,-775.0619 857.2163,-781.0619 857.2163,-781.0619 857.2163,-795.0619 857.2163,-795.0619 857.2163,-801.0619 851.2163,-807.0619 845.2163,-807.0619 845.2163,-807.0619 674.7837,-807.0619 674.7837,-807.0619 668.7837,-807.0619 662.7837,-801.0619 662.7837,-795.0619 662.7837,-795.0619 662.7837,-781.0619 662.7837,-781.0619 662.7837,-775.0619 668.7837,-769.0619 674.7837,-769.0619"/>
<text text-anchor="middle" x="760" y="-795.0619" font-family="Helvetica,sans-Serif" font-size="10.00" fill="#ffffff">citable</text>
<text text-anchor="middle" x="760" y="-785.0619" font-family="Helvetica,sans-Serif" font-size="10.00" fill="#ffffff">Does the repository provide the required</text>
<text text-anchor="middle" x="760" y="-775.0619" font-family="Helvetica,sans-Serif" font-size="10.00" fill="#ffffff">metadata for supporting data citation?</text>
</g>
<!-- citable_yes -->
<g id="node20" class="node">
<title>citable_yes</title>
<ellipse fill="none" stroke="#515151" stroke-dasharray="5,2" cx="730" cy="-708.9057" rx="18.8137" ry="18.8137"/>
<text text-anchor="middle" x="730" y="-705.9057" font-family="Helvetica,sans-Serif" font-size="10.00" fill="#515151">Yes</text>
</g>
<!-- citable&#45;&gt;citable_yes -->
<g id="edge16" class="edge">
<title>citable&#45;&gt;citable_yes</title>
<path fill="none" stroke="#000000" stroke-dasharray="1,5" d="M730,-768.9004C730,-756.3636 730,-740.0631 730,-727.6177"/>
</g>
<!-- citable_No -->
<g id="node21" class="node">
<title>citable_No</title>
<ellipse fill="#515151" stroke="#ffffff" cx="839" cy="-708.9057" rx="18" ry="18"/>
<text text-anchor="middle" x="839" y="-705.9057" font-family="Helvetica,sans-Serif" font-size="10.00" fill="#ffffff">No</text>
</g>
<!-- citable&#45;&gt;citable_No -->
<g id="edge18" class="edge">
<title>citable&#45;&gt;citable_No</title>
<path fill="none" stroke="#000000" stroke-dasharray="1,5" d="M839,-768.9004C839,-756.1806 839,-739.5864 839,-727.0751"/>
</g>
<!-- citable_yes&#45;&gt;_18_0916_19 -->
<g id="edge17" class="edge">
<title>citable_yes&#45;&gt;_18_0916_19</title>
<path fill="none" stroke="#000000" stroke-dasharray="1,5" d="M730,-690.193C730,-690.193 730,-662.9436 730,-662.9436"/>
<polygon fill="#000000" stroke="#000000" points="730,-652.9436 734.5001,-662.9436 730,-657.9436 730.0001,-662.9436 730.0001,-662.9436 730.0001,-662.9436 730,-657.9436 725.5001,-662.9437 730,-652.9436 730,-652.9436"/>
</g>
<!-- trustworthy -->
<g id="node22" class="node">
<title>trustworthy</title>
<path fill="#3b8298" stroke="#ffffff" d="M423.0176,-764.0619C423.0176,-764.0619 578.9824,-764.0619 578.9824,-764.0619 584.9824,-764.0619 590.9824,-770.0619 590.9824,-776.0619 590.9824,-776.0619 590.9824,-800.0619 590.9824,-800.0619 590.9824,-806.0619 584.9824,-812.0619 578.9824,-812.0619 578.9824,-812.0619 423.0176,-812.0619 423.0176,-812.0619 417.0176,-812.0619 411.0176,-806.0619 411.0176,-800.0619 411.0176,-800.0619 411.0176,-776.0619 411.0176,-776.0619 411.0176,-770.0619 417.0176,-764.0619 423.0176,-764.0619"/>
<text text-anchor="middle" x="501" y="-800.0619" font-family="Helvetica,sans-Serif" font-size="10.00" fill="#ffffff">trustworthy</text>
<text text-anchor="middle" x="501" y="-790.0619" font-family="Helvetica,sans-Serif" font-size="10.00" fill="#ffffff">Does the repository adhere to the</text>
<text text-anchor="middle" x="501" y="-780.0619" font-family="Helvetica,sans-Serif" font-size="10.00" fill="#ffffff">requirements for the Data Repository</text>
<text text-anchor="middle" x="501" y="-770.0619" font-family="Helvetica,sans-Serif" font-size="10.00" fill="#ffffff">Gold Seal of Approval?</text>
</g>
<!-- trustworthy_yes -->
<g id="node23" class="node">
<title>trustworthy_yes</title>
<ellipse fill="none" stroke="#515151" stroke-dasharray="5,2" cx="479" cy="-708.9057" rx="18.8137" ry="18.8137"/>
<text text-anchor="middle" x="479" y="-705.9057" font-family="Helvetica,sans-Serif" font-size="10.00" fill="#515151">Yes</text>
</g>
<!-- trustworthy&#45;&gt;trustworthy_yes -->
<g id="edge19" class="edge">
<title>trustworthy&#45;&gt;trustworthy_yes</title>
<path fill="none" stroke="#000000" stroke-dasharray="1,5" d="M479,-763.8824C479,-752.2432 479,-738.499 479,-727.6647"/>
</g>
<!-- trustworthy_No -->
<g id="node24" class="node">
<title>trustworthy_No</title>
<ellipse fill="#515151" stroke="#ffffff" cx="588" cy="-708.9057" rx="18" ry="18"/>
<text text-anchor="middle" x="588" y="-705.9057" font-family="Helvetica,sans-Serif" font-size="10.00" fill="#ffffff">No</text>
</g>
<!-- trustworthy&#45;&gt;trustworthy_No -->
<g id="edge21" class="edge">
<title>trustworthy&#45;&gt;trustworthy_No</title>
<path fill="none" stroke="#000000" stroke-dasharray="1,5" d="M580.4912,-763.8824C580.4912,-751.5157 580.4912,-736.7728 580.4912,-725.6685"/>
</g>
<!-- _18_0919_19 -->
<g id="node25" class="node">
<title>_18_0919_19</title>
<path fill="#3b8298" stroke="#ffffff" d="M423.7813,-616.7496C423.7813,-616.7496 594.2188,-616.7496 594.2188,-616.7496 600.2188,-616.7496 606.2188,-622.7496 606.2188,-628.7496 606.2188,-628.7496 606.2188,-640.7496 606.2188,-640.7496 606.2188,-646.7496 600.2188,-652.7496 594.2188,-652.7496 594.2188,-652.7496 423.7813,-652.7496 423.7813,-652.7496 417.7813,-652.7496 411.7813,-646.7496 411.7813,-640.7496 411.7813,-640.7496 411.7813,-628.7496 411.7813,-628.7496 411.7813,-622.7496 417.7813,-616.7496 423.7813,-616.7496"/>
<text text-anchor="middle" x="509" y="-631.7496" font-family="Helvetica,sans-Serif" font-size="10.00" fill="#ffffff">Is the repository stakeholder governed? </text>
</g>
<!-- trustworthy_yes&#45;&gt;_18_0919_19 -->
<g id="edge20" class="edge">
<title>trustworthy_yes&#45;&gt;_18_0919_19</title>
<path fill="none" stroke="#000000" stroke-dasharray="1,5" d="M479,-690.193C479,-690.193 479,-662.9436 479,-662.9436"/>
<polygon fill="#000000" stroke="#000000" points="479,-652.9436 483.5001,-662.9436 479,-657.9436 479.0001,-662.9436 479.0001,-662.9436 479.0001,-662.9436 479,-657.9436 474.5001,-662.9437 479,-652.9436 479,-652.9436"/>
</g>
<!-- _18_0919_19_yes -->
<g id="node26" class="node">
<title>_18_0919_19_yes</title>
<ellipse fill="none" stroke="#515151" stroke-dasharray="5,2" cx="479" cy="-560.5934" rx="18.8137" ry="18.8137"/>
<text text-anchor="middle" x="479" y="-557.5934" font-family="Helvetica,sans-Serif" font-size="10.00" fill="#515151">Yes</text>
</g>
<!-- _18_0919_19&#45;&gt;_18_0919_19_yes -->
<g id="edge22" class="edge">
<title>_18_0919_19&#45;&gt;_18_0919_19_yes</title>
<path fill="none" stroke="#000000" stroke-dasharray="1,5" d="M479,-616.4188C479,-605.1816 479,-590.8267 479,-579.4875"/>
</g>
<!-- _18_0919_19_No -->
<g id="node27" class="node">
<title>_18_0919_19_No</title>
<ellipse fill="#515151" stroke="#ffffff" cx="588" cy="-560.5934" rx="18" ry="18"/>
<text text-anchor="middle" x="588" y="-557.5934" font-family="Helvetica,sans-Serif" font-size="10.00" fill="#ffffff">No</text>
</g>
<!-- _18_0919_19&#45;&gt;_18_0919_19_No -->
<g id="edge24" class="edge">
<title>_18_0919_19&#45;&gt;_18_0919_19_No</title>
<path fill="none" stroke="#000000" stroke-dasharray="1,5" d="M588,-616.4188C588,-604.9242 588,-590.1676 588,-578.7133"/>
</g>
<!-- _18_0920_19 -->
<g id="node29" class="node">
<title>_18_0920_19</title>
<path fill="#3b8298" stroke="#ffffff" d="M423.0103,-468.4372C423.0103,-468.4372 568.9897,-468.4372 568.9897,-468.4372 574.9897,-468.4372 580.9897,-474.4372 580.9897,-480.4372 580.9897,-480.4372 580.9897,-492.4372 580.9897,-492.4372 580.9897,-498.4372 574.9897,-504.4372 568.9897,-504.4372 568.9897,-504.4372 423.0103,-504.4372 423.0103,-504.4372 417.0103,-504.4372 411.0103,-498.4372 411.0103,-492.4372 411.0103,-492.4372 411.0103,-480.4372 411.0103,-480.4372 411.0103,-474.4372 417.0103,-468.4372 423.0103,-468.4372"/>
<text text-anchor="middle" x="496" y="-488.4372" font-family="Helvetica,sans-Serif" font-size="10.00" fill="#ffffff">Is the governance of the repository</text>
<text text-anchor="middle" x="496" y="-478.4372" font-family="Helvetica,sans-Serif" font-size="10.00" fill="#ffffff">transparent?</text>
</g>
<!-- _18_0919_19_yes&#45;&gt;_18_0920_19 -->
<g id="edge23" class="edge">
<title>_18_0919_19_yes&#45;&gt;_18_0920_19</title>
<path fill="none" stroke="#000000" stroke-dasharray="1,5" d="M479,-541.8806C479,-541.8806 479,-514.6312 479,-514.6312"/>
<polygon fill="#000000" stroke="#000000" points="479,-504.6312 483.5001,-514.6312 479,-509.6312 479.0001,-514.6312 479.0001,-514.6312 479.0001,-514.6312 479,-509.6312 474.5001,-514.6313 479,-504.6312 479,-504.6312"/>
</g>
<!-- _18_0922_19 -->
<g id="node28" class="node">
<title>_18_0922_19</title>
<path fill="#77a576" stroke="#ffffff" d="M437.4116,-171.8124C437.4116,-171.8124 490.5884,-171.8124 490.5884,-171.8124 496.5884,-171.8124 502.5884,-177.8124 502.5884,-183.8124 502.5884,-183.8124 502.5884,-195.8124 502.5884,-195.8124 502.5884,-201.8124 496.5884,-207.8124 490.5884,-207.8124 490.5884,-207.8124 437.4116,-207.8124 437.4116,-207.8124 431.4116,-207.8124 425.4116,-201.8124 425.4116,-195.8124 425.4116,-195.8124 425.4116,-183.8124 425.4116,-183.8124 425.4116,-177.8124 431.4116,-171.8124 437.4116,-171.8124"/>
<text text-anchor="middle" x="464" y="-186.8124" font-family="Helvetica,sans-Serif" font-size="10.00" fill="#ffffff">_18_0922_19</text>
</g>
<!-- _18_0920_19_yes -->
<g id="node30" class="node">
<title>_18_0920_19_yes</title>
<ellipse fill="none" stroke="#515151" stroke-dasharray="5,2" cx="479" cy="-412.281" rx="18.8137" ry="18.8137"/>
<text text-anchor="middle" x="479" y="-409.281" font-family="Helvetica,sans-Serif" font-size="10.00" fill="#515151">Yes</text>
</g>
<!-- _18_0920_19&#45;&gt;_18_0920_19_yes -->
<g id="edge25" class="edge">
<title>_18_0920_19&#45;&gt;_18_0920_19_yes</title>
<path fill="none" stroke="#000000" stroke-dasharray="1,5" d="M479,-468.1064C479,-456.8692 479,-442.5143 479,-431.1751"/>
</g>
<!-- _18_0920_19_No -->
<g id="node31" class="node">
<title>_18_0920_19_No</title>
<ellipse fill="#515151" stroke="#ffffff" cx="588" cy="-412.281" rx="18" ry="18"/>
<text text-anchor="middle" x="588" y="-409.281" font-family="Helvetica,sans-Serif" font-size="10.00" fill="#ffffff">No</text>
</g>
<!-- _18_0920_19&#45;&gt;_18_0920_19_No -->
<g id="edge27" class="edge">
<title>_18_0920_19&#45;&gt;_18_0920_19_No</title>
<path fill="none" stroke="#000000" stroke-dasharray="1,5" d="M575.4949,-468.1064C575.4949,-454.8962 575.4949,-437.3776 575.4949,-425.5146"/>
</g>
<!-- _18_0921_19 -->
<g id="node32" class="node">
<title>_18_0921_19</title>
<path fill="#3b8298" stroke="#ffffff" d="M423.0054,-319.1248C423.0054,-319.1248 578.9946,-319.1248 578.9946,-319.1248 584.9946,-319.1248 590.9946,-325.1248 590.9946,-331.1248 590.9946,-331.1248 590.9946,-345.1248 590.9946,-345.1248 590.9946,-351.1248 584.9946,-357.1248 578.9946,-357.1248 578.9946,-357.1248 423.0054,-357.1248 423.0054,-357.1248 417.0054,-357.1248 411.0054,-351.1248 411.0054,-345.1248 411.0054,-345.1248 411.0054,-331.1248 411.0054,-331.1248 411.0054,-325.1248 417.0054,-319.1248 423.0054,-319.1248"/>
<text text-anchor="middle" x="501" y="-345.1248" font-family="Helvetica,sans-Serif" font-size="10.00" fill="#ffffff">Is the code that runs the data</text>
<text text-anchor="middle" x="501" y="-335.1248" font-family="Helvetica,sans-Serif" font-size="10.00" fill="#ffffff">infrastructure covered under an open</text>
<text text-anchor="middle" x="501" y="-325.1248" font-family="Helvetica,sans-Serif" font-size="10.00" fill="#ffffff">source license?</text>
</g>
<!-- _18_0920_19_yes&#45;&gt;_18_0921_19 -->
<g id="edge26" class="edge">
<title>_18_0920_19_yes&#45;&gt;_18_0921_19</title>
<path fill="none" stroke="#000000" stroke-dasharray="1,5" d="M479,-393.5682C479,-393.5682 479,-367.3484 479,-367.3484"/>
<polygon fill="#000000" stroke="#000000" points="479,-357.3484 483.5001,-367.3484 479,-362.3484 479.0001,-367.3484 479.0001,-367.3484 479.0001,-367.3484 479,-362.3484 474.5001,-367.3485 479,-357.3484 479,-357.3484"/>
</g>
<!-- _18_0921_19_yes -->
<g id="node33" class="node">
<title>_18_0921_19_yes</title>
<ellipse fill="none" stroke="#515151" stroke-dasharray="5,2" cx="464" cy="-263.9686" rx="18.8137" ry="18.8137"/>
<text text-anchor="middle" x="464" y="-260.9686" font-family="Helvetica,sans-Serif" font-size="10.00" fill="#515151">Yes</text>
</g>
<!-- _18_0921_19&#45;&gt;_18_0921_19_yes -->
<g id="edge28" class="edge">
<title>_18_0921_19&#45;&gt;_18_0921_19_yes</title>
<path fill="none" stroke="#000000" stroke-dasharray="1,5" d="M464,-319.0277C464,-307.8701 464,-293.8461 464,-282.7442"/>
</g>
<!-- _18_0921_19_No -->
<g id="node34" class="node">
<title>_18_0921_19_No</title>
<ellipse fill="#515151" stroke="#ffffff" cx="573" cy="-263.9686" rx="18" ry="18"/>
<text text-anchor="middle" x="573" y="-260.9686" font-family="Helvetica,sans-Serif" font-size="10.00" fill="#ffffff">No</text>
</g>
<!-- _18_0921_19&#45;&gt;_18_0921_19_No -->
<g id="edge30" class="edge">
<title>_18_0921_19&#45;&gt;_18_0921_19_No</title>
<path fill="none" stroke="#000000" stroke-dasharray="1,5" d="M572.9973,-319.0277C572.9973,-307.6126 572.9973,-293.1973 572.9973,-281.9804"/>
</g>
<!-- _18_0921_19_yes&#45;&gt;_18_0922_19 -->
<g id="edge29" class="edge">
<title>_18_0921_19_yes&#45;&gt;_18_0922_19</title>
<path fill="none" stroke="#000000" stroke-dasharray="1,5" d="M464,-245.2558C464,-245.2558 464,-218.0064 464,-218.0064"/>
<polygon fill="#000000" stroke="#000000" points="464,-208.0064 468.5001,-218.0064 464,-213.0064 464.0001,-218.0064 464.0001,-218.0064 464.0001,-218.0064 464,-213.0064 459.5001,-218.0065 464,-208.0064 464,-208.0064"/>
</g>
<!-- _18_091_19 -->
<g id="node35" class="node">
<title>_18_091_19</title>
<polygon fill="#bbbbff" stroke="#ffffff" points="328,-720.9057 286,-720.9057 286,-696.9057 328,-696.9057 340,-708.9057 328,-720.9057"/>
<text text-anchor="middle" x="313" y="-705.9057" font-family="Helvetica,sans-Serif" font-size="10.00" fill="#ffffff">FAIR</text>
</g>
<!-- _18_092_19 -->
<g id="node37" class="node">
<title>_18_092_19</title>
<polygon fill="#bbbbff" stroke="#ffffff" points="328,-646.7496 286,-646.7496 286,-622.7496 328,-622.7496 340,-634.7496 328,-646.7496"/>
<text text-anchor="middle" x="313" y="-631.7496" font-family="Helvetica,sans-Serif" font-size="10.00" fill="#ffffff">citable</text>
</g>
<!-- _18_091_19&#45;&gt;_18_092_19 -->
<g id="edge31" class="edge">
<title>_18_091_19&#45;&gt;_18_092_19</title>
<path fill="none" stroke="#000000" stroke-dasharray="1,5" d="M313,-690.575C313,-690.575 313,-662.8694 313,-662.8694"/>
<polygon fill="#000000" stroke="#000000" points="313,-652.8694 317.5001,-662.8694 313,-657.8694 313.0001,-662.8694 313.0001,-662.8694 313.0001,-662.8694 313,-657.8694 308.5001,-662.8695 313,-652.8694 313,-652.8694"/>
</g>
<!-- main&#45;&gt;_18_091_19 -->
<g id="edge32" class="edge">
<title>main&#45;&gt;_18_091_19</title>
<path fill="none" stroke="#000000" stroke-dasharray="1,5" d="M312.5,-769.703C312.5,-769.703 312.5,-737.1652 312.5,-737.1652"/>
<polygon fill="#000000" stroke="#000000" points="312.5,-727.1652 317.0001,-737.1651 312.5,-732.1652 312.5001,-737.1652 312.5001,-737.1652 312.5001,-737.1652 312.5,-732.1652 308.0001,-737.1652 312.5,-727.1652 312.5,-727.1652"/>
</g>
<!-- _18_093_19 -->
<g id="node38" class="node">
<title>_18_093_19</title>
<polygon fill="#bbbbff" stroke="#ffffff" points="335.4014,-572.5934 282.5986,-572.5934 282.5986,-548.5934 335.4014,-548.5934 347.4014,-560.5934 335.4014,-572.5934"/>
<text text-anchor="middle" x="315" y="-557.5934" font-family="Helvetica,sans-Serif" font-size="10.00" fill="#ffffff">trustworthy</text>
</g>
<!-- _18_092_19&#45;&gt;_18_093_19 -->
<g id="edge33" class="edge">
<title>_18_092_19&#45;&gt;_18_093_19</title>
<path fill="none" stroke="#000000" stroke-dasharray="1,5" d="M313,-616.4188C313,-616.4188 313,-588.7133 313,-588.7133"/>
<polygon fill="#000000" stroke="#000000" points="313,-578.7133 317.5001,-588.7132 313,-583.7133 313.0001,-588.7133 313.0001,-588.7133 313.0001,-588.7133 313,-583.7133 308.5001,-588.7133 313,-578.7133 313,-578.7133"/>
</g>
<!-- _18_0914_19 -->
<g id="node39" class="node">
<title>_18_0914_19</title>
<path fill="#77a576" stroke="#ffffff" d="M48.4116,-24.5C48.4116,-24.5 101.5884,-24.5 101.5884,-24.5 107.5884,-24.5 113.5884,-30.5 113.5884,-36.5 113.5884,-36.5 113.5884,-48.5 113.5884,-48.5 113.5884,-54.5 107.5884,-60.5 101.5884,-60.5 101.5884,-60.5 48.4116,-60.5 48.4116,-60.5 42.4116,-60.5 36.4116,-54.5 36.4116,-48.5 36.4116,-48.5 36.4116,-36.5 36.4116,-36.5 36.4116,-30.5 42.4116,-24.5 48.4116,-24.5"/>
<text text-anchor="middle" x="75" y="-39.5" font-family="Helvetica,sans-Serif" font-size="10.00" fill="#ffffff">_18_0914_19</text>
</g>
<!-- _18_0912_19 -->
<g id="node40" class="node">
<title>_18_0912_19</title>
<path fill="#3b8298" stroke="#ffffff" d="M36.0078,-319.1248C36.0078,-319.1248 201.9922,-319.1248 201.9922,-319.1248 207.9922,-319.1248 213.9922,-325.1248 213.9922,-331.1248 213.9922,-331.1248 213.9922,-345.1248 213.9922,-345.1248 213.9922,-351.1248 207.9922,-357.1248 201.9922,-357.1248 201.9922,-357.1248 36.0078,-357.1248 36.0078,-357.1248 30.0078,-357.1248 24.0078,-351.1248 24.0078,-345.1248 24.0078,-345.1248 24.0078,-331.1248 24.0078,-331.1248 24.0078,-325.1248 30.0078,-319.1248 36.0078,-319.1248"/>
<text text-anchor="middle" x="119" y="-345.1248" font-family="Helvetica,sans-Serif" font-size="10.00" fill="#ffffff">Does the repository provide web&#45;based</text>
<text text-anchor="middle" x="119" y="-335.1248" font-family="Helvetica,sans-Serif" font-size="10.00" fill="#ffffff">search and access to the data and</text>
<text text-anchor="middle" x="119" y="-325.1248" font-family="Helvetica,sans-Serif" font-size="10.00" fill="#ffffff">metadata?</text>
</g>
<!-- _18_0912_19_yes -->
<g id="node41" class="node">
<title>_18_0912_19_yes</title>
<ellipse fill="none" stroke="#515151" stroke-dasharray="5,2" cx="87" cy="-263.9686" rx="18.8137" ry="18.8137"/>
<text text-anchor="middle" x="87" y="-260.9686" font-family="Helvetica,sans-Serif" font-size="10.00" fill="#515151">Yes</text>
</g>
<!-- _18_0912_19&#45;&gt;_18_0912_19_yes -->
<g id="edge34" class="edge">
<title>_18_0912_19&#45;&gt;_18_0912_19_yes</title>
<path fill="none" stroke="#000000" stroke-dasharray="1,5" d="M87,-319.0277C87,-307.8701 87,-293.8461 87,-282.7442"/>
</g>
<!-- _18_0912_19_No -->
<g id="node42" class="node">
<title>_18_0912_19_No</title>
<ellipse fill="#515151" stroke="#ffffff" cx="196" cy="-263.9686" rx="18" ry="18"/>
<text text-anchor="middle" x="196" y="-260.9686" font-family="Helvetica,sans-Serif" font-size="10.00" fill="#ffffff">No</text>
</g>
<!-- _18_0912_19&#45;&gt;_18_0912_19_No -->
<g id="edge36" class="edge">
<title>_18_0912_19&#45;&gt;_18_0912_19_No</title>
<path fill="none" stroke="#000000" stroke-dasharray="1,5" d="M195.9961,-319.0277C195.9961,-307.6126 195.9961,-293.1973 195.9961,-281.9804"/>
</g>
<!-- _18_0913_19 -->
<g id="node43" class="node">
<title>_18_0913_19</title>
<path fill="#3b8298" stroke="#ffffff" d="M36.3921,-170.8124C36.3921,-170.8124 199.6079,-170.8124 199.6079,-170.8124 205.6079,-170.8124 211.6079,-176.8124 211.6079,-182.8124 211.6079,-182.8124 211.6079,-196.8124 211.6079,-196.8124 211.6079,-202.8124 205.6079,-208.8124 199.6079,-208.8124 199.6079,-208.8124 36.3921,-208.8124 36.3921,-208.8124 30.3921,-208.8124 24.3921,-202.8124 24.3921,-196.8124 24.3921,-196.8124 24.3921,-182.8124 24.3921,-182.8124 24.3921,-176.8124 30.3921,-170.8124 36.3921,-170.8124"/>
<text text-anchor="middle" x="118" y="-196.8124" font-family="Helvetica,sans-Serif" font-size="10.00" fill="#ffffff">Does the repository adhere to</text>
<text text-anchor="middle" x="118" y="-186.8124" font-family="Helvetica,sans-Serif" font-size="10.00" fill="#ffffff">machine&#45;readable metadata standards</text>
<text text-anchor="middle" x="118" y="-176.8124" font-family="Helvetica,sans-Serif" font-size="10.00" fill="#ffffff">within use in the community?</text>
</g>
<!-- _18_0912_19_yes&#45;&gt;_18_0913_19 -->
<g id="edge35" class="edge">
<title>_18_0912_19_yes&#45;&gt;_18_0913_19</title>
<path fill="none" stroke="#000000" stroke-dasharray="1,5" d="M87,-245.2558C87,-245.2558 87,-219.0361 87,-219.0361"/>
<polygon fill="#000000" stroke="#000000" points="87,-209.0361 91.5001,-219.036 87,-214.0361 87.0001,-219.0361 87.0001,-219.0361 87.0001,-219.0361 87,-214.0361 82.5001,-219.0361 87,-209.0361 87,-209.0361"/>
</g>
<!-- _18_0913_19_yes -->
<g id="node44" class="node">
<title>_18_0913_19_yes</title>
<ellipse fill="none" stroke="#515151" stroke-dasharray="5,2" cx="75" cy="-115.6562" rx="18.8137" ry="18.8137"/>
<text text-anchor="middle" x="75" y="-112.6562" font-family="Helvetica,sans-Serif" font-size="10.00" fill="#515151">Yes</text>
</g>
<!-- _18_0913_19&#45;&gt;_18_0913_19_yes -->
<g id="edge37" class="edge">
<title>_18_0913_19&#45;&gt;_18_0913_19_yes</title>
<path fill="none" stroke="#000000" stroke-dasharray="1,5" d="M75,-170.7153C75,-159.5577 75,-145.5337 75,-134.4318"/>
</g>
<!-- _18_0913_19_No -->
<g id="node45" class="node">
<title>_18_0913_19_No</title>
<ellipse fill="#515151" stroke="#ffffff" cx="184" cy="-115.6562" rx="18" ry="18"/>
<text text-anchor="middle" x="184" y="-112.6562" font-family="Helvetica,sans-Serif" font-size="10.00" fill="#ffffff">No</text>
</g>
<!-- _18_0913_19&#45;&gt;_18_0913_19_No -->
<g id="edge39" class="edge">
<title>_18_0913_19&#45;&gt;_18_0913_19_No</title>
<path fill="none" stroke="#000000" stroke-dasharray="1,5" d="M184,-170.7153C184,-159.3002 184,-144.885 184,-133.668"/>
</g>
<!-- _18_0913_19_yes&#45;&gt;_18_0914_19 -->
<g id="edge38" class="edge">
<title>_18_0913_19_yes&#45;&gt;_18_0914_19</title>
<path fill="none" stroke="#000000" stroke-dasharray="1,5" d="M75,-96.8167C75,-96.8167 75,-70.519 75,-70.519"/>
<polygon fill="#000000" stroke="#000000" points="75,-60.519 79.5001,-70.519 75,-65.519 75.0001,-70.519 75.0001,-70.519 75.0001,-70.519 75,-65.519 70.5001,-70.5191 75,-60.519 75,-60.519"/>
</g>
<!-- FAIR -->
<g id="node46" class="node">
<title>FAIR</title>
<path fill="#3b8298" stroke="#ffffff" d="M37.9609,-769.0619C37.9609,-769.0619 200.0391,-769.0619 200.0391,-769.0619 206.0391,-769.0619 212.0391,-775.0619 212.0391,-781.0619 212.0391,-781.0619 212.0391,-795.0619 212.0391,-795.0619 212.0391,-801.0619 206.0391,-807.0619 200.0391,-807.0619 200.0391,-807.0619 37.9609,-807.0619 37.9609,-807.0619 31.9609,-807.0619 25.9609,-801.0619 25.9609,-795.0619 25.9609,-795.0619 25.9609,-781.0619 25.9609,-781.0619 25.9609,-775.0619 31.9609,-769.0619 37.9609,-769.0619"/>
<text text-anchor="middle" x="119" y="-795.0619" font-family="Helvetica,sans-Serif" font-size="10.00" fill="#ffffff">FAIR</text>
<text text-anchor="middle" x="119" y="-785.0619" font-family="Helvetica,sans-Serif" font-size="10.00" fill="#ffffff">Does your repository assign persistent</text>
<text text-anchor="middle" x="119" y="-775.0619" font-family="Helvetica,sans-Serif" font-size="10.00" fill="#ffffff">identifiers (PID)?</text>
</g>
<!-- FAIR_yes -->
<g id="node47" class="node">
<title>FAIR_yes</title>
<ellipse fill="none" stroke="#515151" stroke-dasharray="5,2" cx="87" cy="-708.9057" rx="18.8137" ry="18.8137"/>
<text text-anchor="middle" x="87" y="-705.9057" font-family="Helvetica,sans-Serif" font-size="10.00" fill="#515151">Yes</text>
</g>
<!-- FAIR&#45;&gt;FAIR_yes -->
<g id="edge40" class="edge">
<title>FAIR&#45;&gt;FAIR_yes</title>
<path fill="none" stroke="#000000" stroke-dasharray="1,5" d="M87,-768.9004C87,-756.3636 87,-740.0631 87,-727.6177"/>
</g>
<!-- FAIR_No -->
<g id="node48" class="node">
<title>FAIR_No</title>
<ellipse fill="#515151" stroke="#ffffff" cx="196" cy="-708.9057" rx="18" ry="18"/>
<text text-anchor="middle" x="196" y="-705.9057" font-family="Helvetica,sans-Serif" font-size="10.00" fill="#ffffff">No</text>
</g>
<!-- FAIR&#45;&gt;FAIR_No -->
<g id="edge42" class="edge">
<title>FAIR&#45;&gt;FAIR_No</title>
<path fill="none" stroke="#000000" stroke-dasharray="1,5" d="M195.0195,-768.9004C195.0195,-756.1806 195.0195,-739.5864 195.0195,-727.0751"/>
</g>
<!-- _18_0910_19 -->
<g id="node49" class="node">
<title>_18_0910_19</title>
<path fill="#3b8298" stroke="#ffffff" d="M36.0005,-616.7496C36.0005,-616.7496 201.9995,-616.7496 201.9995,-616.7496 207.9995,-616.7496 213.9995,-622.7496 213.9995,-628.7496 213.9995,-628.7496 213.9995,-640.7496 213.9995,-640.7496 213.9995,-646.7496 207.9995,-652.7496 201.9995,-652.7496 201.9995,-652.7496 36.0005,-652.7496 36.0005,-652.7496 30.0005,-652.7496 24.0005,-646.7496 24.0005,-640.7496 24.0005,-640.7496 24.0005,-628.7496 24.0005,-628.7496 24.0005,-622.7496 30.0005,-616.7496 36.0005,-616.7496"/>
<text text-anchor="middle" x="119" y="-636.7496" font-family="Helvetica,sans-Serif" font-size="10.00" fill="#ffffff">Does the PID resolve to a landing page</text>
<text text-anchor="middle" x="119" y="-626.7496" font-family="Helvetica,sans-Serif" font-size="10.00" fill="#ffffff">that describes the data?</text>
</g>
<!-- FAIR_yes&#45;&gt;_18_0910_19 -->
<g id="edge41" class="edge">
<title>FAIR_yes&#45;&gt;_18_0910_19</title>
<path fill="none" stroke="#000000" stroke-dasharray="1,5" d="M87,-690.193C87,-690.193 87,-662.9436 87,-662.9436"/>
<polygon fill="#000000" stroke="#000000" points="87,-652.9436 91.5001,-662.9436 87,-657.9436 87.0001,-662.9436 87.0001,-662.9436 87.0001,-662.9436 87,-657.9436 82.5001,-662.9437 87,-652.9436 87,-652.9436"/>
</g>
<!-- _18_0910_19_yes -->
<g id="node50" class="node">
<title>_18_0910_19_yes</title>
<ellipse fill="none" stroke="#515151" stroke-dasharray="5,2" cx="84" cy="-560.5934" rx="18.8137" ry="18.8137"/>
<text text-anchor="middle" x="84" y="-557.5934" font-family="Helvetica,sans-Serif" font-size="10.00" fill="#515151">Yes</text>
</g>
<!-- _18_0910_19&#45;&gt;_18_0910_19_yes -->
<g id="edge43" class="edge">
<title>_18_0910_19&#45;&gt;_18_0910_19_yes</title>
<path fill="none" stroke="#000000" stroke-dasharray="1,5" d="M84,-616.4188C84,-605.1816 84,-590.8267 84,-579.4875"/>
</g>
<!-- _18_0910_19_No -->
<g id="node51" class="node">
<title>_18_0910_19_No</title>
<ellipse fill="#515151" stroke="#ffffff" cx="193" cy="-560.5934" rx="18" ry="18"/>
<text text-anchor="middle" x="193" y="-557.5934" font-family="Helvetica,sans-Serif" font-size="10.00" fill="#ffffff">No</text>
</g>
<!-- _18_0910_19&#45;&gt;_18_0910_19_No -->
<g id="edge45" class="edge">
<title>_18_0910_19&#45;&gt;_18_0910_19_No</title>
<path fill="none" stroke="#000000" stroke-dasharray="1,5" d="M193,-616.4188C193,-604.9242 193,-590.1676 193,-578.7133"/>
</g>
<!-- _18_0911_19 -->
<g id="node52" class="node">
<title>_18_0911_19</title>
<path fill="#3b8298" stroke="#ffffff" d="M36.3306,-467.4372C36.3306,-467.4372 195.6694,-467.4372 195.6694,-467.4372 201.6694,-467.4372 207.6694,-473.4372 207.6694,-479.4372 207.6694,-479.4372 207.6694,-493.4372 207.6694,-493.4372 207.6694,-499.4372 201.6694,-505.4372 195.6694,-505.4372 195.6694,-505.4372 36.3306,-505.4372 36.3306,-505.4372 30.3306,-505.4372 24.3306,-499.4372 24.3306,-493.4372 24.3306,-493.4372 24.3306,-479.4372 24.3306,-479.4372 24.3306,-473.4372 30.3306,-467.4372 36.3306,-467.4372"/>
<text text-anchor="middle" x="116" y="-493.4372" font-family="Helvetica,sans-Serif" font-size="10.00" fill="#ffffff">Does the repository ensure the</text>
<text text-anchor="middle" x="116" y="-483.4372" font-family="Helvetica,sans-Serif" font-size="10.00" fill="#ffffff">persistence of the data and/or landing</text>
<text text-anchor="middle" x="116" y="-473.4372" font-family="Helvetica,sans-Serif" font-size="10.00" fill="#ffffff">pages?</text>
</g>
<!-- _18_0910_19_yes&#45;&gt;_18_0911_19 -->
<g id="edge44" class="edge">
<title>_18_0910_19_yes&#45;&gt;_18_0911_19</title>
<path fill="none" stroke="#000000" stroke-dasharray="1,5" d="M84,-541.8806C84,-541.8806 84,-515.6608 84,-515.6608"/>
<polygon fill="#000000" stroke="#000000" points="84,-505.6608 88.5001,-515.6608 84,-510.6608 84.0001,-515.6608 84.0001,-515.6608 84.0001,-515.6608 84,-510.6608 79.5001,-515.6609 84,-505.6608 84,-505.6608"/>
</g>
<!-- _18_0911_19_yes -->
<g id="node53" class="node">
<title>_18_0911_19_yes</title>
<ellipse fill="none" stroke="#515151" stroke-dasharray="5,2" cx="87" cy="-412.281" rx="18.8137" ry="18.8137"/>
<text text-anchor="middle" x="87" y="-409.281" font-family="Helvetica,sans-Serif" font-size="10.00" fill="#515151">Yes</text>
</g>
<!-- _18_0911_19&#45;&gt;_18_0911_19_yes -->
<g id="edge46" class="edge">
<title>_18_0911_19&#45;&gt;_18_0911_19_yes</title>
<path fill="none" stroke="#000000" stroke-dasharray="1,5" d="M87,-467.3401C87,-456.1825 87,-442.1585 87,-431.0566"/>
</g>
<!-- _18_0911_19_No -->
<g id="node54" class="node">
<title>_18_0911_19_No</title>
<ellipse fill="#515151" stroke="#ffffff" cx="196" cy="-412.281" rx="18" ry="18"/>
<text text-anchor="middle" x="196" y="-409.281" font-family="Helvetica,sans-Serif" font-size="10.00" fill="#ffffff">No</text>
</g>
<!-- _18_0911_19&#45;&gt;_18_0911_19_No -->
<g id="edge48" class="edge">
<title>_18_0911_19&#45;&gt;_18_0911_19_No</title>
<path fill="none" stroke="#000000" stroke-dasharray="1,5" d="M192.8347,-467.3401C192.8347,-455.8392 192.8347,-441.2928 192.8347,-430.0403"/>
</g>
<!-- _18_0911_19_yes&#45;&gt;_18_0912_19 -->
<g id="edge47" class="edge">
<title>_18_0911_19_yes&#45;&gt;_18_0912_19</title>
<path fill="none" stroke="#000000" stroke-dasharray="1,5" d="M87,-393.5682C87,-393.5682 87,-367.3484 87,-367.3484"/>
<polygon fill="#000000" stroke="#000000" points="87,-357.3484 91.5001,-367.3484 87,-362.3484 87.0001,-367.3484 87.0001,-367.3484 87.0001,-367.3484 87,-362.3484 82.5001,-367.3485 87,-357.3484 87,-357.3484"/>
</g>
</g>
</svg>
