<?xml version="1.0" encoding="UTF-8" standalone="no"?>
<!DOCTYPE svg PUBLIC "-//W3C//DTD SVG 1.1//EN"
 "http://www.w3.org/Graphics/SVG/1.1/DTD/svg11.dtd">
<!-- Generated by graphviz version 2.40.1 (20161225.0304)
 -->
<!-- Title: DecisionGraph Pages: 1 -->
<svg width="1144pt" height="925pt"
 viewBox="0.00 0.00 1144.00 924.56" xmlns="http://www.w3.org/2000/svg" xmlns:xlink="http://www.w3.org/1999/xlink">
<g id="graph0" class="graph" transform="scale(1 1) rotate(0) translate(4 920.5619)">
<title>DecisionGraph</title>
<polygon fill="#ffffff" stroke="transparent" points="-4,4 -4,-920.5619 1140,-920.5619 1140,4 -4,4"/>
<g id="clust1" class="cluster">
<title>cluster_DecisionGraph_171</title>
<polygon fill="none" stroke="#000000" points="8,-8 8,-872.5619 1128,-872.5619 1128,-8 8,-8"/>
<text text-anchor="middle" x="568" y="-857.3619" font-family="Courier,monospace" font-size="14.00" fill="#000000">questionnaire.dg</text>
</g>
<g id="clust2" class="cluster">
<title>cluster_open</title>
<polygon fill="none" stroke="#aabbdd" points="906,-163.3124 906,-842.5619 1120,-842.5619 1120,-163.3124 906,-163.3124"/>
<text text-anchor="middle" x="930.8027" y="-827.3619" font-family="Courier,monospace" font-size="14.00" fill="#000000">open</text>
</g>
<g id="clust3" class="cluster">
<title>cluster_citable</title>
<polygon fill="none" stroke="#aabbdd" points="654,-459.9372 654,-837.5619 864,-837.5619 864,-459.9372 654,-459.9372"/>
<text text-anchor="middle" x="691.4048" y="-822.3619" font-family="Courier,monospace" font-size="14.00" fill="#000000">citable</text>
</g>
<g id="clust4" class="cluster">
<title>cluster_trustworthy</title>
<polygon fill="none" stroke="#aabbdd" points="402,-163.3124 402,-842.5619 614,-842.5619 614,-163.3124 402,-163.3124"/>
<text text-anchor="middle" x="456.2075" y="-827.3619" font-family="Courier,monospace" font-size="14.00" fill="#000000">trustworthy</text>
</g>
<g id="clust6" class="cluster">
<title>cluster_FAIR</title>
<polygon fill="none" stroke="#aabbdd" points="142,-16 142,-837.5619 348,-837.5619 348,-16 142,-16"/>
<text text-anchor="middle" x="166.8027" y="-822.3619" font-family="Courier,monospace" font-size="14.00" fill="#000000">FAIR</text>
</g>
<g id="clust5" class="cluster">
<title>cluster_main</title>
<polygon fill="none" stroke="#aabbdd" points="16,-534.5934 16,-836.0619 96,-836.0619 96,-534.5934 16,-534.5934"/>
<text text-anchor="middle" x="40.8027" y="-820.8619" font-family="Courier,monospace" font-size="14.00" fill="#000000">main</text>
</g>
<!-- start -->
<g id="node1" class="node">
<title>start</title>
<polygon fill="transparent" stroke="transparent" points="78,-916.5619 24,-916.5619 24,-880.5619 78,-880.5619 78,-916.5619"/>
<text text-anchor="middle" x="51" y="-894.9619" font-family="Helvetica,sans-Serif" font-size="12.00" fill="#3b8298">start</text>
</g>
<!-- main -->
<g id="node36" class="node">
<title>main</title>
<polygon fill="#bbbbff" stroke="#ffffff" points="66,-800.0619 24,-800.0619 24,-776.0619 66,-776.0619 78,-788.0619 66,-800.0619"/>
<text text-anchor="middle" x="51" y="-790.0619" font-family="Helvetica,sans-Serif" font-size="10.00" fill="#ffffff">main</text>
<text text-anchor="middle" x="51" y="-780.0619" font-family="Helvetica,sans-Serif" font-size="10.00" fill="#ffffff">open</text>
</g>
<!-- start&#45;&gt;main -->
<g id="edge49" class="edge">
<title>start&#45;&gt;main</title>
<path fill="none" stroke="#3b8298" d="M51,-880.3151C51,-880.3151 51,-816.3359 51,-816.3359"/>
<polygon fill="#3b8298" stroke="#3b8298" points="51,-806.3359 55.5001,-816.3358 51,-811.3359 51.0001,-816.3359 51.0001,-816.3359 51.0001,-816.3359 51,-811.3359 46.5001,-816.3359 51,-806.3359 51,-806.3359"/>
</g>
<!-- _18_098_19 -->
<g id="node2" class="node">
<title>_18_098_19</title>
<path fill="#77a576" stroke="#ffffff" d="M936.1665,-171.8124C936.1665,-171.8124 1011.8335,-171.8124 1011.8335,-171.8124 1017.8335,-171.8124 1023.8335,-177.8124 1023.8335,-183.8124 1023.8335,-183.8124 1023.8335,-195.8124 1023.8335,-195.8124 1023.8335,-201.8124 1017.8335,-207.8124 1011.8335,-207.8124 1011.8335,-207.8124 936.1665,-207.8124 936.1665,-207.8124 930.1665,-207.8124 924.1665,-201.8124 924.1665,-195.8124 924.1665,-195.8124 924.1665,-183.8124 924.1665,-183.8124 924.1665,-177.8124 930.1665,-171.8124 936.1665,-171.8124"/>
<text text-anchor="middle" x="974" y="-186.8124" font-family="Helvetica,sans-Serif" font-size="10.00" fill="#ffffff">Assertions={Open}</text>
</g>
<!-- open -->
<g id="node3" class="node">
<title>open</title>
<path fill="#3b8298" stroke="#ffffff" d="M940.3477,-764.0619C940.3477,-764.0619 1099.6523,-764.0619 1099.6523,-764.0619 1105.6523,-764.0619 1111.6523,-770.0619 1111.6523,-776.0619 1111.6523,-776.0619 1111.6523,-800.0619 1111.6523,-800.0619 1111.6523,-806.0619 1105.6523,-812.0619 1099.6523,-812.0619 1099.6523,-812.0619 940.3477,-812.0619 940.3477,-812.0619 934.3477,-812.0619 928.3477,-806.0619 928.3477,-800.0619 928.3477,-800.0619 928.3477,-776.0619 928.3477,-776.0619 928.3477,-770.0619 934.3477,-764.0619 940.3477,-764.0619"/>
<text text-anchor="middle" x="1020" y="-800.0619" font-family="Helvetica,sans-Serif" font-size="10.00" fill="#ffffff">open</text>
<text text-anchor="middle" x="1020" y="-790.0619" font-family="Helvetica,sans-Serif" font-size="10.00" fill="#ffffff">Does the repository provide access to</text>
<text text-anchor="middle" x="1020" y="-780.0619" font-family="Helvetica,sans-Serif" font-size="10.00" fill="#ffffff">the data with minimal or no</text>
<text text-anchor="middle" x="1020" y="-770.0619" font-family="Helvetica,sans-Serif" font-size="10.00" fill="#ffffff">restrictions?</text>
</g>
<!-- open_yes -->
<g id="node4" class="node">
<title>open_yes</title>
<ellipse fill="none" stroke="#515151" stroke-dasharray="5,2" cx="985" cy="-708.9057" rx="18.8137" ry="18.8137"/>
<text text-anchor="middle" x="985" y="-705.9057" font-family="Helvetica,sans-Serif" font-size="10.00" fill="#515151">Yes</text>
</g>
<!-- open&#45;&gt;open_yes -->
<g id="edge1" class="edge">
<title>open&#45;&gt;open_yes</title>
<path fill="none" stroke="#000000" stroke-dasharray="1,5" d="M985,-763.8824C985,-752.2432 985,-738.499 985,-727.6647"/>
</g>
<!-- open_No -->
<g id="node5" class="node">
<title>open_No</title>
<ellipse fill="#515151" stroke="#ffffff" cx="1094" cy="-708.9057" rx="18" ry="18"/>
<text text-anchor="middle" x="1094" y="-705.9057" font-family="Helvetica,sans-Serif" font-size="10.00" fill="#ffffff">No</text>
</g>
<!-- open&#45;&gt;open_No -->
<g id="edge3" class="edge">
<title>open&#45;&gt;open_No</title>
<path fill="none" stroke="#000000" stroke-dasharray="1,5" d="M1093.8262,-763.8824C1093.8262,-751.9704 1093.8262,-737.8536 1093.8262,-726.9077"/>
</g>
<!-- _18_095_19 -->
<g id="node9" class="node">
<title>_18_095_19</title>
<path fill="#3b8298" stroke="#ffffff" d="M926.2173,-615.7496C926.2173,-615.7496 1087.7827,-615.7496 1087.7827,-615.7496 1093.7827,-615.7496 1099.7827,-621.7496 1099.7827,-627.7496 1099.7827,-627.7496 1099.7827,-641.7496 1099.7827,-641.7496 1099.7827,-647.7496 1093.7827,-653.7496 1087.7827,-653.7496 1087.7827,-653.7496 926.2173,-653.7496 926.2173,-653.7496 920.2173,-653.7496 914.2173,-647.7496 914.2173,-641.7496 914.2173,-641.7496 914.2173,-627.7496 914.2173,-627.7496 914.2173,-621.7496 920.2173,-615.7496 926.2173,-615.7496"/>
<text text-anchor="middle" x="1007" y="-641.7496" font-family="Helvetica,sans-Serif" font-size="10.00" fill="#ffffff">Are you free to download the data and</text>
<text text-anchor="middle" x="1007" y="-631.7496" font-family="Helvetica,sans-Serif" font-size="10.00" fill="#ffffff">reuse it with no or minimal</text>
<text text-anchor="middle" x="1007" y="-621.7496" font-family="Helvetica,sans-Serif" font-size="10.00" fill="#ffffff">restrictions?</text>
</g>
<!-- open_yes&#45;&gt;_18_095_19 -->
<g id="edge2" class="edge">
<title>open_yes&#45;&gt;_18_095_19</title>
<path fill="none" stroke="#000000" stroke-dasharray="1,5" d="M985,-690.193C985,-690.193 985,-663.9732 985,-663.9732"/>
<polygon fill="#000000" stroke="#000000" points="985,-653.9732 989.5001,-663.9732 985,-658.9732 985.0001,-663.9732 985.0001,-663.9732 985.0001,-663.9732 985,-658.9732 980.5001,-663.9733 985,-653.9732 985,-653.9732"/>
</g>
<!-- _18_097_19 -->
<g id="node6" class="node">
<title>_18_097_19</title>
<path fill="#3b8298" stroke="#ffffff" d="M926.1064,-320.1248C926.1064,-320.1248 1099.8936,-320.1248 1099.8936,-320.1248 1105.8936,-320.1248 1111.8936,-326.1248 1111.8936,-332.1248 1111.8936,-332.1248 1111.8936,-344.1248 1111.8936,-344.1248 1111.8936,-350.1248 1105.8936,-356.1248 1099.8936,-356.1248 1099.8936,-356.1248 926.1064,-356.1248 926.1064,-356.1248 920.1064,-356.1248 914.1064,-350.1248 914.1064,-344.1248 914.1064,-344.1248 914.1064,-332.1248 914.1064,-332.1248 914.1064,-326.1248 920.1064,-320.1248 926.1064,-320.1248"/>
<text text-anchor="middle" x="1013" y="-335.1248" font-family="Helvetica,sans-Serif" font-size="10.00" fill="#ffffff">Are the data provided in an open format?</text>
</g>
<!-- _18_097_19_yes -->
<g id="node7" class="node">
<title>_18_097_19_yes</title>
<ellipse fill="none" stroke="#515151" stroke-dasharray="5,2" cx="974" cy="-263.9686" rx="18.8137" ry="18.8137"/>
<text text-anchor="middle" x="974" y="-260.9686" font-family="Helvetica,sans-Serif" font-size="10.00" fill="#515151">Yes</text>
</g>
<!-- _18_097_19&#45;&gt;_18_097_19_yes -->
<g id="edge4" class="edge">
<title>_18_097_19&#45;&gt;_18_097_19_yes</title>
<path fill="none" stroke="#000000" stroke-dasharray="1,5" d="M974,-319.794C974,-308.5568 974,-294.2019 974,-282.8627"/>
</g>
<!-- _18_097_19_No -->
<g id="node8" class="node">
<title>_18_097_19_No</title>
<ellipse fill="#515151" stroke="#ffffff" cx="1083" cy="-263.9686" rx="18" ry="18"/>
<text text-anchor="middle" x="1083" y="-260.9686" font-family="Helvetica,sans-Serif" font-size="10.00" fill="#ffffff">No</text>
</g>
<!-- _18_097_19&#45;&gt;_18_097_19_No -->
<g id="edge6" class="edge">
<title>_18_097_19&#45;&gt;_18_097_19_No</title>
<path fill="none" stroke="#000000" stroke-dasharray="1,5" d="M1083,-319.794C1083,-308.2995 1083,-293.5428 1083,-282.0885"/>
</g>
<!-- _18_097_19_yes&#45;&gt;_18_098_19 -->
<g id="edge5" class="edge">
<title>_18_097_19_yes&#45;&gt;_18_098_19</title>
<path fill="none" stroke="#000000" stroke-dasharray="1,5" d="M974,-245.2558C974,-245.2558 974,-218.0064 974,-218.0064"/>
<polygon fill="#000000" stroke="#000000" points="974,-208.0064 978.5001,-218.0064 974,-213.0064 974.0001,-218.0064 974.0001,-218.0064 974.0001,-218.0064 974,-213.0064 969.5001,-218.0065 974,-208.0064 974,-208.0064"/>
</g>
<!-- _18_095_19_yes -->
<g id="node10" class="node">
<title>_18_095_19_yes</title>
<ellipse fill="none" stroke="#515151" stroke-dasharray="5,2" cx="985" cy="-560.5934" rx="18.8137" ry="18.8137"/>
<text text-anchor="middle" x="985" y="-557.5934" font-family="Helvetica,sans-Serif" font-size="10.00" fill="#515151">Yes</text>
</g>
<!-- _18_095_19&#45;&gt;_18_095_19_yes -->
<g id="edge7" class="edge">
<title>_18_095_19&#45;&gt;_18_095_19_yes</title>
<path fill="none" stroke="#000000" stroke-dasharray="1,5" d="M985,-615.6525C985,-604.4949 985,-590.4709 985,-579.369"/>
</g>
<!-- _18_095_19_No -->
<g id="node11" class="node">
<title>_18_095_19_No</title>
<ellipse fill="#515151" stroke="#ffffff" cx="1094" cy="-560.5934" rx="18" ry="18"/>
<text text-anchor="middle" x="1094" y="-557.5934" font-family="Helvetica,sans-Serif" font-size="10.00" fill="#ffffff">No</text>
</g>
<!-- _18_095_19&#45;&gt;_18_095_19_No -->
<g id="edge9" class="edge">
<title>_18_095_19&#45;&gt;_18_095_19_No</title>
<path fill="none" stroke="#000000" stroke-dasharray="1,5" d="M1087.8914,-615.6525C1087.8914,-603.9799 1087.8914,-589.1703 1087.8914,-577.851"/>
</g>
<!-- _18_096_19 -->
<g id="node12" class="node">
<title>_18_096_19</title>
<path fill="#3b8298" stroke="#ffffff" d="M925.5298,-468.4372C925.5298,-468.4372 1046.4702,-468.4372 1046.4702,-468.4372 1052.4702,-468.4372 1058.4702,-474.4372 1058.4702,-480.4372 1058.4702,-480.4372 1058.4702,-492.4372 1058.4702,-492.4372 1058.4702,-498.4372 1052.4702,-504.4372 1046.4702,-504.4372 1046.4702,-504.4372 925.5298,-504.4372 925.5298,-504.4372 919.5298,-504.4372 913.5298,-498.4372 913.5298,-492.4372 913.5298,-492.4372 913.5298,-480.4372 913.5298,-480.4372 913.5298,-474.4372 919.5298,-468.4372 925.5298,-468.4372"/>
<text text-anchor="middle" x="986" y="-488.4372" font-family="Helvetica,sans-Serif" font-size="10.00" fill="#ffffff">Are the data covered by a</text>
<text text-anchor="middle" x="986" y="-478.4372" font-family="Helvetica,sans-Serif" font-size="10.00" fill="#ffffff">commons&#45;compliant license?</text>
</g>
<!-- _18_095_19_yes&#45;&gt;_18_096_19 -->
<g id="edge8" class="edge">
<title>_18_095_19_yes&#45;&gt;_18_096_19</title>
<path fill="none" stroke="#000000" stroke-dasharray="1,5" d="M985,-541.8806C985,-541.8806 985,-514.6312 985,-514.6312"/>
<polygon fill="#000000" stroke="#000000" points="985,-504.6312 989.5001,-514.6312 985,-509.6312 985.0001,-514.6312 985.0001,-514.6312 985.0001,-514.6312 985,-509.6312 980.5001,-514.6313 985,-504.6312 985,-504.6312"/>
</g>
<!-- _18_096_19_yes -->
<g id="node13" class="node">
<title>_18_096_19_yes</title>
<ellipse fill="none" stroke="#515151" stroke-dasharray="5,2" cx="985" cy="-412.281" rx="18.8137" ry="18.8137"/>
<text text-anchor="middle" x="985" y="-409.281" font-family="Helvetica,sans-Serif" font-size="10.00" fill="#515151">Yes</text>
</g>
<!-- _18_096_19&#45;&gt;_18_096_19_yes -->
<g id="edge10" class="edge">
<title>_18_096_19&#45;&gt;_18_096_19_yes</title>
<path fill="none" stroke="#000000" stroke-dasharray="1,5" d="M985,-468.1064C985,-456.8692 985,-442.5143 985,-431.1751"/>
</g>
<!-- _18_096_19_No -->
<g id="node14" class="node">
<title>_18_096_19_No</title>
<ellipse fill="#515151" stroke="#ffffff" cx="1094" cy="-412.281" rx="18" ry="18"/>
<text text-anchor="middle" x="1094" y="-409.281" font-family="Helvetica,sans-Serif" font-size="10.00" fill="#ffffff">No</text>
</g>
<!-- _18_096_19&#45;&gt;_18_096_19_No -->
<g id="edge12" class="edge">
<title>_18_096_19&#45;&gt;_18_096_19_No</title>
<path fill="none" stroke="#000000" stroke-dasharray="1,5" d="M1058.6368,-486C1078.1731,-486 1094,-486 1094,-486 1094,-486 1094,-452.334 1094,-430.5037"/>
</g>
<!-- _18_096_19_yes&#45;&gt;_18_097_19 -->
<g id="edge11" class="edge">
<title>_18_096_19_yes&#45;&gt;_18_097_19</title>
<path fill="none" stroke="#000000" stroke-dasharray="1,5" d="M985,-393.5682C985,-393.5682 985,-366.3188 985,-366.3188"/>
<polygon fill="#000000" stroke="#000000" points="985,-356.3188 989.5001,-366.3188 985,-361.3188 985.0001,-366.3188 985.0001,-366.3188 985.0001,-366.3188 985,-361.3188 980.5001,-366.3189 985,-356.3188 985,-356.3188"/>
</g>
<!-- _18_0917_19 -->
<g id="node15" class="node">
<title>_18_0917_19</title>
<path fill="#77a576" stroke="#ffffff" d="M680.834,-468.4372C680.834,-468.4372 763.166,-468.4372 763.166,-468.4372 769.166,-468.4372 775.166,-474.4372 775.166,-480.4372 775.166,-480.4372 775.166,-492.4372 775.166,-492.4372 775.166,-498.4372 769.166,-504.4372 763.166,-504.4372 763.166,-504.4372 680.834,-504.4372 680.834,-504.4372 674.834,-504.4372 668.834,-498.4372 668.834,-492.4372 668.834,-492.4372 668.834,-480.4372 668.834,-480.4372 668.834,-474.4372 674.834,-468.4372 680.834,-468.4372"/>
<text text-anchor="middle" x="722" y="-483.4372" font-family="Helvetica,sans-Serif" font-size="10.00" fill="#ffffff">Assertions={Citable}</text>
</g>
<!-- _18_0916_19 -->
<g id="node16" class="node">
<title>_18_0916_19</title>
<path fill="#3b8298" stroke="#ffffff" d="M690.168,-616.7496C690.168,-616.7496 827.832,-616.7496 827.832,-616.7496 833.832,-616.7496 839.832,-622.7496 839.832,-628.7496 839.832,-628.7496 839.832,-640.7496 839.832,-640.7496 839.832,-646.7496 833.832,-652.7496 827.832,-652.7496 827.832,-652.7496 690.168,-652.7496 690.168,-652.7496 684.168,-652.7496 678.168,-646.7496 678.168,-640.7496 678.168,-640.7496 678.168,-628.7496 678.168,-628.7496 678.168,-622.7496 684.168,-616.7496 690.168,-616.7496"/>
<text text-anchor="middle" x="759" y="-636.7496" font-family="Helvetica,sans-Serif" font-size="10.00" fill="#ffffff">Does the repository provide a</text>
<text text-anchor="middle" x="759" y="-626.7496" font-family="Helvetica,sans-Serif" font-size="10.00" fill="#ffffff">machine&#45;readable landing page?</text>
</g>
<!-- _18_0916_19_yes -->
<g id="node17" class="node">
<title>_18_0916_19_yes</title>
<ellipse fill="none" stroke="#515151" stroke-dasharray="5,2" cx="722" cy="-560.5934" rx="18.8137" ry="18.8137"/>
<text text-anchor="middle" x="722" y="-557.5934" font-family="Helvetica,sans-Serif" font-size="10.00" fill="#515151">Yes</text>
</g>
<!-- _18_0916_19&#45;&gt;_18_0916_19_yes -->
<g id="edge13" class="edge">
<title>_18_0916_19&#45;&gt;_18_0916_19_yes</title>
<path fill="none" stroke="#000000" stroke-dasharray="1,5" d="M722,-616.4188C722,-605.1816 722,-590.8267 722,-579.4875"/>
</g>
<!-- _18_0916_19_No -->
<g id="node18" class="node">
<title>_18_0916_19_No</title>
<ellipse fill="#515151" stroke="#ffffff" cx="831" cy="-560.5934" rx="18" ry="18"/>
<text text-anchor="middle" x="831" y="-557.5934" font-family="Helvetica,sans-Serif" font-size="10.00" fill="#ffffff">No</text>
</g>
<!-- _18_0916_19&#45;&gt;_18_0916_19_No -->
<g id="edge15" class="edge">
<title>_18_0916_19&#45;&gt;_18_0916_19_No</title>
<path fill="none" stroke="#000000" stroke-dasharray="1,5" d="M826.416,-616.4188C826.416,-604.7527 826.416,-589.7264 826.416,-578.2026"/>
</g>
<!-- _18_0916_19_yes&#45;&gt;_18_0917_19 -->
<g id="edge14" class="edge">
<title>_18_0916_19_yes&#45;&gt;_18_0917_19</title>
<path fill="none" stroke="#000000" stroke-dasharray="1,5" d="M722,-541.8806C722,-541.8806 722,-514.6312 722,-514.6312"/>
<polygon fill="#000000" stroke="#000000" points="722,-504.6312 726.5001,-514.6312 722,-509.6312 722.0001,-514.6312 722.0001,-514.6312 722.0001,-514.6312 722,-509.6312 717.5001,-514.6313 722,-504.6312 722,-504.6312"/>
</g>
<!-- citable -->
<g id="node19" class="node">
<title>citable</title>
<path fill="#3b8298" stroke="#ffffff" d="M673.7837,-769.0619C673.7837,-769.0619 844.2163,-769.0619 844.2163,-769.0619 850.2163,-769.0619 856.2163,-775.0619 856.2163,-781.0619 856.2163,-781.0619 856.2163,-795.0619 856.2163,-795.0619 856.2163,-801.0619 850.2163,-807.0619 844.2163,-807.0619 844.2163,-807.0619 673.7837,-807.0619 673.7837,-807.0619 667.7837,-807.0619 661.7837,-801.0619 661.7837,-795.0619 661.7837,-795.0619 661.7837,-781.0619 661.7837,-781.0619 661.7837,-775.0619 667.7837,-769.0619 673.7837,-769.0619"/>
<text text-anchor="middle" x="759" y="-795.0619" font-family="Helvetica,sans-Serif" font-size="10.00" fill="#ffffff">citable</text>
<text text-anchor="middle" x="759" y="-785.0619" font-family="Helvetica,sans-Serif" font-size="10.00" fill="#ffffff">Does the repository provide the required</text>
<text text-anchor="middle" x="759" y="-775.0619" font-family="Helvetica,sans-Serif" font-size="10.00" fill="#ffffff">metadata for supporting data citation?</text>
</g>
<!-- citable_yes -->
<g id="node20" class="node">
<title>citable_yes</title>
<ellipse fill="none" stroke="#515151" stroke-dasharray="5,2" cx="729" cy="-708.9057" rx="18.8137" ry="18.8137"/>
<text text-anchor="middle" x="729" y="-705.9057" font-family="Helvetica,sans-Serif" font-size="10.00" fill="#515151">Yes</text>
</g>
<!-- citable&#45;&gt;citable_yes -->
<g id="edge16" class="edge">
<title>citable&#45;&gt;citable_yes</title>
<path fill="none" stroke="#000000" stroke-dasharray="1,5" d="M729,-768.9004C729,-756.3636 729,-740.0631 729,-727.6177"/>
</g>
<!-- citable_No -->
<g id="node21" class="node">
<title>citable_No</title>
<ellipse fill="#515151" stroke="#ffffff" cx="838" cy="-708.9057" rx="18" ry="18"/>
<text text-anchor="middle" x="838" y="-705.9057" font-family="Helvetica,sans-Serif" font-size="10.00" fill="#ffffff">No</text>
</g>
<!-- citable&#45;&gt;citable_No -->
<g id="edge18" class="edge">
<title>citable&#45;&gt;citable_No</title>
<path fill="none" stroke="#000000" stroke-dasharray="1,5" d="M838,-768.9004C838,-756.1806 838,-739.5864 838,-727.0751"/>
</g>
<!-- citable_yes&#45;&gt;_18_0916_19 -->
<g id="edge17" class="edge">
<title>citable_yes&#45;&gt;_18_0916_19</title>
<path fill="none" stroke="#000000" stroke-dasharray="1,5" d="M729,-690.193C729,-690.193 729,-662.9436 729,-662.9436"/>
<polygon fill="#000000" stroke="#000000" points="729,-652.9436 733.5001,-662.9436 729,-657.9436 729.0001,-662.9436 729.0001,-662.9436 729.0001,-662.9436 729,-657.9436 724.5001,-662.9437 729,-652.9436 729,-652.9436"/>
</g>
<!-- trustworthy -->
<g id="node22" class="node">
<title>trustworthy</title>
<path fill="#3b8298" stroke="#ffffff" d="M422.0176,-764.0619C422.0176,-764.0619 577.9824,-764.0619 577.9824,-764.0619 583.9824,-764.0619 589.9824,-770.0619 589.9824,-776.0619 589.9824,-776.0619 589.9824,-800.0619 589.9824,-800.0619 589.9824,-806.0619 583.9824,-812.0619 577.9824,-812.0619 577.9824,-812.0619 422.0176,-812.0619 422.0176,-812.0619 416.0176,-812.0619 410.0176,-806.0619 410.0176,-800.0619 410.0176,-800.0619 410.0176,-776.0619 410.0176,-776.0619 410.0176,-770.0619 416.0176,-764.0619 422.0176,-764.0619"/>
<text text-anchor="middle" x="500" y="-800.0619" font-family="Helvetica,sans-Serif" font-size="10.00" fill="#ffffff">trustworthy</text>
<text text-anchor="middle" x="500" y="-790.0619" font-family="Helvetica,sans-Serif" font-size="10.00" fill="#ffffff">Does the repository adhere to the</text>
<text text-anchor="middle" x="500" y="-780.0619" font-family="Helvetica,sans-Serif" font-size="10.00" fill="#ffffff">requirements for the Data Repository</text>
<text text-anchor="middle" x="500" y="-770.0619" font-family="Helvetica,sans-Serif" font-size="10.00" fill="#ffffff">Gold Seal of Approval?</text>
</g>
<!-- trustworthy_yes -->
<g id="node23" class="node">
<title>trustworthy_yes</title>
<ellipse fill="none" stroke="#515151" stroke-dasharray="5,2" cx="479" cy="-708.9057" rx="18.8137" ry="18.8137"/>
<text text-anchor="middle" x="479" y="-705.9057" font-family="Helvetica,sans-Serif" font-size="10.00" fill="#515151">Yes</text>
</g>
<!-- trustworthy&#45;&gt;trustworthy_yes -->
<g id="edge19" class="edge">
<title>trustworthy&#45;&gt;trustworthy_yes</title>
<path fill="none" stroke="#000000" stroke-dasharray="1,5" d="M479,-763.8824C479,-752.2432 479,-738.499 479,-727.6647"/>
</g>
<!-- trustworthy_No -->
<g id="node24" class="node">
<title>trustworthy_No</title>
<ellipse fill="#515151" stroke="#ffffff" cx="588" cy="-708.9057" rx="18" ry="18"/>
<text text-anchor="middle" x="588" y="-705.9057" font-family="Helvetica,sans-Serif" font-size="10.00" fill="#ffffff">No</text>
</g>
<!-- trustworthy&#45;&gt;trustworthy_No -->
<g id="edge21" class="edge">
<title>trustworthy&#45;&gt;trustworthy_No</title>
<path fill="none" stroke="#000000" stroke-dasharray="1,5" d="M579.9912,-763.8824C579.9912,-751.3339 579.9912,-736.3386 579.9912,-725.181"/>
</g>
<!-- _18_0919_19 -->
<g id="node25" class="node">
<title>_18_0919_19</title>
<path fill="#3b8298" stroke="#ffffff" d="M423.7813,-616.7496C423.7813,-616.7496 594.2188,-616.7496 594.2188,-616.7496 600.2188,-616.7496 606.2188,-622.7496 606.2188,-628.7496 606.2188,-628.7496 606.2188,-640.7496 606.2188,-640.7496 606.2188,-646.7496 600.2188,-652.7496 594.2188,-652.7496 594.2188,-652.7496 423.7813,-652.7496 423.7813,-652.7496 417.7813,-652.7496 411.7813,-646.7496 411.7813,-640.7496 411.7813,-640.7496 411.7813,-628.7496 411.7813,-628.7496 411.7813,-622.7496 417.7813,-616.7496 423.7813,-616.7496"/>
<text text-anchor="middle" x="509" y="-631.7496" font-family="Helvetica,sans-Serif" font-size="10.00" fill="#ffffff">Is the repository stakeholder governed? </text>
</g>
<!-- trustworthy_yes&#45;&gt;_18_0919_19 -->
<g id="edge20" class="edge">
<title>trustworthy_yes&#45;&gt;_18_0919_19</title>
<path fill="none" stroke="#000000" stroke-dasharray="1,5" d="M479,-690.193C479,-690.193 479,-662.9436 479,-662.9436"/>
<polygon fill="#000000" stroke="#000000" points="479,-652.9436 483.5001,-662.9436 479,-657.9436 479.0001,-662.9436 479.0001,-662.9436 479.0001,-662.9436 479,-657.9436 474.5001,-662.9437 479,-652.9436 479,-652.9436"/>
</g>
<!-- _18_0919_19_yes -->
<g id="node26" class="node">
<title>_18_0919_19_yes</title>
<ellipse fill="none" stroke="#515151" stroke-dasharray="5,2" cx="479" cy="-560.5934" rx="18.8137" ry="18.8137"/>
<text text-anchor="middle" x="479" y="-557.5934" font-family="Helvetica,sans-Serif" font-size="10.00" fill="#515151">Yes</text>
</g>
<!-- _18_0919_19&#45;&gt;_18_0919_19_yes -->
<g id="edge22" class="edge">
<title>_18_0919_19&#45;&gt;_18_0919_19_yes</title>
<path fill="none" stroke="#000000" stroke-dasharray="1,5" d="M479,-616.4188C479,-605.1816 479,-590.8267 479,-579.4875"/>
</g>
<!-- _18_0919_19_No -->
<g id="node27" class="node">
<title>_18_0919_19_No</title>
<ellipse fill="#515151" stroke="#ffffff" cx="588" cy="-560.5934" rx="18" ry="18"/>
<text text-anchor="middle" x="588" y="-557.5934" font-family="Helvetica,sans-Serif" font-size="10.00" fill="#ffffff">No</text>
</g>
<!-- _18_0919_19&#45;&gt;_18_0919_19_No -->
<g id="edge24" class="edge">
<title>_18_0919_19&#45;&gt;_18_0919_19_No</title>
<path fill="none" stroke="#000000" stroke-dasharray="1,5" d="M588,-616.4188C588,-604.9242 588,-590.1676 588,-578.7133"/>
</g>
<!-- _18_0920_19 -->
<g id="node29" class="node">
<title>_18_0920_19</title>
<path fill="#3b8298" stroke="#ffffff" d="M422.0103,-468.4372C422.0103,-468.4372 567.9897,-468.4372 567.9897,-468.4372 573.9897,-468.4372 579.9897,-474.4372 579.9897,-480.4372 579.9897,-480.4372 579.9897,-492.4372 579.9897,-492.4372 579.9897,-498.4372 573.9897,-504.4372 567.9897,-504.4372 567.9897,-504.4372 422.0103,-504.4372 422.0103,-504.4372 416.0103,-504.4372 410.0103,-498.4372 410.0103,-492.4372 410.0103,-492.4372 410.0103,-480.4372 410.0103,-480.4372 410.0103,-474.4372 416.0103,-468.4372 422.0103,-468.4372"/>
<text text-anchor="middle" x="495" y="-488.4372" font-family="Helvetica,sans-Serif" font-size="10.00" fill="#ffffff">Is the governance of the repository</text>
<text text-anchor="middle" x="495" y="-478.4372" font-family="Helvetica,sans-Serif" font-size="10.00" fill="#ffffff">transparent?</text>
</g>
<!-- _18_0919_19_yes&#45;&gt;_18_0920_19 -->
<g id="edge23" class="edge">
<title>_18_0919_19_yes&#45;&gt;_18_0920_19</title>
<path fill="none" stroke="#000000" stroke-dasharray="1,5" d="M479,-541.8806C479,-541.8806 479,-514.6312 479,-514.6312"/>
<polygon fill="#000000" stroke="#000000" points="479,-504.6312 483.5001,-514.6312 479,-509.6312 479.0001,-514.6312 479.0001,-514.6312 479.0001,-514.6312 479,-509.6312 474.5001,-514.6313 479,-504.6312 479,-504.6312"/>
</g>
<!-- _18_0922_19 -->
<g id="node28" class="node">
<title>_18_0922_19</title>
<path fill="#77a576" stroke="#ffffff" d="M423.4653,-171.8124C423.4653,-171.8124 526.5347,-171.8124 526.5347,-171.8124 532.5347,-171.8124 538.5347,-177.8124 538.5347,-183.8124 538.5347,-183.8124 538.5347,-195.8124 538.5347,-195.8124 538.5347,-201.8124 532.5347,-207.8124 526.5347,-207.8124 526.5347,-207.8124 423.4653,-207.8124 423.4653,-207.8124 417.4653,-207.8124 411.4653,-201.8124 411.4653,-195.8124 411.4653,-195.8124 411.4653,-183.8124 411.4653,-183.8124 411.4653,-177.8124 417.4653,-171.8124 423.4653,-171.8124"/>
<text text-anchor="middle" x="475" y="-186.8124" font-family="Helvetica,sans-Serif" font-size="10.00" fill="#ffffff">Assertions={Trustworthy}</text>
</g>
<!-- _18_0920_19_yes -->
<g id="node30" class="node">
<title>_18_0920_19_yes</title>
<ellipse fill="none" stroke="#515151" stroke-dasharray="5,2" cx="479" cy="-412.281" rx="18.8137" ry="18.8137"/>
<text text-anchor="middle" x="479" y="-409.281" font-family="Helvetica,sans-Serif" font-size="10.00" fill="#515151">Yes</text>
</g>
<!-- _18_0920_19&#45;&gt;_18_0920_19_yes -->
<g id="edge25" class="edge">
<title>_18_0920_19&#45;&gt;_18_0920_19_yes</title>
<path fill="none" stroke="#000000" stroke-dasharray="1,5" d="M479,-468.1064C479,-456.8692 479,-442.5143 479,-431.1751"/>
</g>
<!-- _18_0920_19_No -->
<g id="node31" class="node">
<title>_18_0920_19_No</title>
<ellipse fill="#515151" stroke="#ffffff" cx="588" cy="-412.281" rx="18" ry="18"/>
<text text-anchor="middle" x="588" y="-409.281" font-family="Helvetica,sans-Serif" font-size="10.00" fill="#ffffff">No</text>
</g>
<!-- _18_0920_19&#45;&gt;_18_0920_19_No -->
<g id="edge27" class="edge">
<title>_18_0920_19&#45;&gt;_18_0920_19_No</title>
<path fill="none" stroke="#000000" stroke-dasharray="1,5" d="M574.9949,-468.1064C574.9949,-454.7247 574.9949,-436.9218 574.9949,-425.0552"/>
</g>
<!-- _18_0921_19 -->
<g id="node32" class="node">
<title>_18_0921_19</title>
<path fill="#3b8298" stroke="#ffffff" d="M424.0054,-319.1248C424.0054,-319.1248 579.9946,-319.1248 579.9946,-319.1248 585.9946,-319.1248 591.9946,-325.1248 591.9946,-331.1248 591.9946,-331.1248 591.9946,-345.1248 591.9946,-345.1248 591.9946,-351.1248 585.9946,-357.1248 579.9946,-357.1248 579.9946,-357.1248 424.0054,-357.1248 424.0054,-357.1248 418.0054,-357.1248 412.0054,-351.1248 412.0054,-345.1248 412.0054,-345.1248 412.0054,-331.1248 412.0054,-331.1248 412.0054,-325.1248 418.0054,-319.1248 424.0054,-319.1248"/>
<text text-anchor="middle" x="502" y="-345.1248" font-family="Helvetica,sans-Serif" font-size="10.00" fill="#ffffff">Is the code that runs the data</text>
<text text-anchor="middle" x="502" y="-335.1248" font-family="Helvetica,sans-Serif" font-size="10.00" fill="#ffffff">infrastructure covered under an open</text>
<text text-anchor="middle" x="502" y="-325.1248" font-family="Helvetica,sans-Serif" font-size="10.00" fill="#ffffff">source license?</text>
</g>
<!-- _18_0920_19_yes&#45;&gt;_18_0921_19 -->
<g id="edge26" class="edge">
<title>_18_0920_19_yes&#45;&gt;_18_0921_19</title>
<path fill="none" stroke="#000000" stroke-dasharray="1,5" d="M479,-393.5682C479,-393.5682 479,-367.3484 479,-367.3484"/>
<polygon fill="#000000" stroke="#000000" points="479,-357.3484 483.5001,-367.3484 479,-362.3484 479.0001,-367.3484 479.0001,-367.3484 479.0001,-367.3484 479,-362.3484 474.5001,-367.3485 479,-357.3484 479,-357.3484"/>
</g>
<!-- _18_0921_19_yes -->
<g id="node33" class="node">
<title>_18_0921_19_yes</title>
<ellipse fill="none" stroke="#515151" stroke-dasharray="5,2" cx="475" cy="-263.9686" rx="18.8137" ry="18.8137"/>
<text text-anchor="middle" x="475" y="-260.9686" font-family="Helvetica,sans-Serif" font-size="10.00" fill="#515151">Yes</text>
</g>
<!-- _18_0921_19&#45;&gt;_18_0921_19_yes -->
<g id="edge28" class="edge">
<title>_18_0921_19&#45;&gt;_18_0921_19_yes</title>
<path fill="none" stroke="#000000" stroke-dasharray="1,5" d="M475,-319.0277C475,-307.8701 475,-293.8461 475,-282.7442"/>
</g>
<!-- _18_0921_19_No -->
<g id="node34" class="node">
<title>_18_0921_19_No</title>
<ellipse fill="#515151" stroke="#ffffff" cx="584" cy="-263.9686" rx="18" ry="18"/>
<text text-anchor="middle" x="584" y="-260.9686" font-family="Helvetica,sans-Serif" font-size="10.00" fill="#ffffff">No</text>
</g>
<!-- _18_0921_19&#45;&gt;_18_0921_19_No -->
<g id="edge30" class="edge">
<title>_18_0921_19&#45;&gt;_18_0921_19_No</title>
<path fill="none" stroke="#000000" stroke-dasharray="1,5" d="M578.9973,-319.0277C578.9973,-307.4409 578.9973,-292.7631 578.9973,-281.4765"/>
</g>
<!-- _18_0921_19_yes&#45;&gt;_18_0922_19 -->
<g id="edge29" class="edge">
<title>_18_0921_19_yes&#45;&gt;_18_0922_19</title>
<path fill="none" stroke="#000000" stroke-dasharray="1,5" d="M475,-245.2558C475,-245.2558 475,-218.0064 475,-218.0064"/>
<polygon fill="#000000" stroke="#000000" points="475,-208.0064 479.5001,-218.0064 475,-213.0064 475.0001,-218.0064 475.0001,-218.0064 475.0001,-218.0064 475,-213.0064 470.5001,-218.0065 475,-208.0064 475,-208.0064"/>
</g>
<!-- _18_091_19 -->
<g id="node35" class="node">
<title>_18_091_19</title>
<polygon fill="#bbbbff" stroke="#ffffff" points="66,-720.9057 24,-720.9057 24,-696.9057 66,-696.9057 78,-708.9057 66,-720.9057"/>
<text text-anchor="middle" x="51" y="-705.9057" font-family="Helvetica,sans-Serif" font-size="10.00" fill="#ffffff">FAIR</text>
</g>
<!-- _18_092_19 -->
<g id="node37" class="node">
<title>_18_092_19</title>
<polygon fill="#bbbbff" stroke="#ffffff" points="66,-646.7496 24,-646.7496 24,-622.7496 66,-622.7496 78,-634.7496 66,-646.7496"/>
<text text-anchor="middle" x="51" y="-631.7496" font-family="Helvetica,sans-Serif" font-size="10.00" fill="#ffffff">citable</text>
</g>
<!-- _18_091_19&#45;&gt;_18_092_19 -->
<g id="edge31" class="edge">
<title>_18_091_19&#45;&gt;_18_092_19</title>
<path fill="none" stroke="#000000" stroke-dasharray="1,5" d="M51,-690.575C51,-690.575 51,-662.8694 51,-662.8694"/>
<polygon fill="#000000" stroke="#000000" points="51,-652.8694 55.5001,-662.8694 51,-657.8694 51.0001,-662.8694 51.0001,-662.8694 51.0001,-662.8694 51,-657.8694 46.5001,-662.8695 51,-652.8694 51,-652.8694"/>
</g>
<!-- main&#45;&gt;_18_091_19 -->
<g id="edge32" class="edge">
<title>main&#45;&gt;_18_091_19</title>
<path fill="none" stroke="#000000" stroke-dasharray="1,5" d="M51,-769.703C51,-769.703 51,-737.1652 51,-737.1652"/>
<polygon fill="#000000" stroke="#000000" points="51,-727.1652 55.5001,-737.1651 51,-732.1652 51.0001,-737.1652 51.0001,-737.1652 51.0001,-737.1652 51,-732.1652 46.5001,-737.1652 51,-727.1652 51,-727.1652"/>
</g>
<!-- _18_093_19 -->
<g id="node38" class="node">
<title>_18_093_19</title>
<polygon fill="#bbbbff" stroke="#ffffff" points="76.4014,-572.5934 23.5986,-572.5934 23.5986,-548.5934 76.4014,-548.5934 88.4014,-560.5934 76.4014,-572.5934"/>
<text text-anchor="middle" x="56" y="-557.5934" font-family="Helvetica,sans-Serif" font-size="10.00" fill="#ffffff">trustworthy</text>
</g>
<!-- _18_092_19&#45;&gt;_18_093_19 -->
<g id="edge33" class="edge">
<title>_18_092_19&#45;&gt;_18_093_19</title>
<path fill="none" stroke="#000000" stroke-dasharray="1,5" d="M51,-616.4188C51,-616.4188 51,-588.7133 51,-588.7133"/>
<polygon fill="#000000" stroke="#000000" points="51,-578.7133 55.5001,-588.7132 51,-583.7133 51.0001,-588.7133 51.0001,-588.7133 51.0001,-588.7133 51,-583.7133 46.5001,-588.7133 51,-578.7133 51,-578.7133"/>
</g>
<!-- _18_0914_19 -->
<g id="node39" class="node">
<title>_18_0914_19</title>
<path fill="#77a576" stroke="#ffffff" d="M169.2822,-24.5C169.2822,-24.5 242.7178,-24.5 242.7178,-24.5 248.7178,-24.5 254.7178,-30.5 254.7178,-36.5 254.7178,-36.5 254.7178,-48.5 254.7178,-48.5 254.7178,-54.5 248.7178,-60.5 242.7178,-60.5 242.7178,-60.5 169.2822,-60.5 169.2822,-60.5 163.2822,-60.5 157.2822,-54.5 157.2822,-48.5 157.2822,-48.5 157.2822,-36.5 157.2822,-36.5 157.2822,-30.5 163.2822,-24.5 169.2822,-24.5"/>
<text text-anchor="middle" x="206" y="-39.5" font-family="Helvetica,sans-Serif" font-size="10.00" fill="#ffffff">Assertions={FAIR}</text>
</g>
<!-- _18_0912_19 -->
<g id="node40" class="node">
<title>_18_0912_19</title>
<path fill="#3b8298" stroke="#ffffff" d="M162.0078,-319.1248C162.0078,-319.1248 327.9922,-319.1248 327.9922,-319.1248 333.9922,-319.1248 339.9922,-325.1248 339.9922,-331.1248 339.9922,-331.1248 339.9922,-345.1248 339.9922,-345.1248 339.9922,-351.1248 333.9922,-357.1248 327.9922,-357.1248 327.9922,-357.1248 162.0078,-357.1248 162.0078,-357.1248 156.0078,-357.1248 150.0078,-351.1248 150.0078,-345.1248 150.0078,-345.1248 150.0078,-331.1248 150.0078,-331.1248 150.0078,-325.1248 156.0078,-319.1248 162.0078,-319.1248"/>
<text text-anchor="middle" x="245" y="-345.1248" font-family="Helvetica,sans-Serif" font-size="10.00" fill="#ffffff">Does the repository provide web&#45;based</text>
<text text-anchor="middle" x="245" y="-335.1248" font-family="Helvetica,sans-Serif" font-size="10.00" fill="#ffffff">search and access to the data and</text>
<text text-anchor="middle" x="245" y="-325.1248" font-family="Helvetica,sans-Serif" font-size="10.00" fill="#ffffff">metadata?</text>
</g>
<!-- _18_0912_19_yes -->
<g id="node41" class="node">
<title>_18_0912_19_yes</title>
<ellipse fill="none" stroke="#515151" stroke-dasharray="5,2" cx="213" cy="-263.9686" rx="18.8137" ry="18.8137"/>
<text text-anchor="middle" x="213" y="-260.9686" font-family="Helvetica,sans-Serif" font-size="10.00" fill="#515151">Yes</text>
</g>
<!-- _18_0912_19&#45;&gt;_18_0912_19_yes -->
<g id="edge34" class="edge">
<title>_18_0912_19&#45;&gt;_18_0912_19_yes</title>
<path fill="none" stroke="#000000" stroke-dasharray="1,5" d="M213,-319.0277C213,-307.8701 213,-293.8461 213,-282.7442"/>
</g>
<!-- _18_0912_19_No -->
<g id="node42" class="node">
<title>_18_0912_19_No</title>
<ellipse fill="#515151" stroke="#ffffff" cx="322" cy="-263.9686" rx="18" ry="18"/>
<text text-anchor="middle" x="322" y="-260.9686" font-family="Helvetica,sans-Serif" font-size="10.00" fill="#ffffff">No</text>
</g>
<!-- _18_0912_19&#45;&gt;_18_0912_19_No -->
<g id="edge36" class="edge">
<title>_18_0912_19&#45;&gt;_18_0912_19_No</title>
<path fill="none" stroke="#000000" stroke-dasharray="1,5" d="M321.9961,-319.0277C321.9961,-307.6126 321.9961,-293.1973 321.9961,-281.9804"/>
</g>
<!-- _18_0913_19 -->
<g id="node43" class="node">
<title>_18_0913_19</title>
<path fill="#3b8298" stroke="#ffffff" d="M162.3921,-170.8124C162.3921,-170.8124 325.6079,-170.8124 325.6079,-170.8124 331.6079,-170.8124 337.6079,-176.8124 337.6079,-182.8124 337.6079,-182.8124 337.6079,-196.8124 337.6079,-196.8124 337.6079,-202.8124 331.6079,-208.8124 325.6079,-208.8124 325.6079,-208.8124 162.3921,-208.8124 162.3921,-208.8124 156.3921,-208.8124 150.3921,-202.8124 150.3921,-196.8124 150.3921,-196.8124 150.3921,-182.8124 150.3921,-182.8124 150.3921,-176.8124 156.3921,-170.8124 162.3921,-170.8124"/>
<text text-anchor="middle" x="244" y="-196.8124" font-family="Helvetica,sans-Serif" font-size="10.00" fill="#ffffff">Does the repository adhere to</text>
<text text-anchor="middle" x="244" y="-186.8124" font-family="Helvetica,sans-Serif" font-size="10.00" fill="#ffffff">machine&#45;readable metadata standards</text>
<text text-anchor="middle" x="244" y="-176.8124" font-family="Helvetica,sans-Serif" font-size="10.00" fill="#ffffff">within use in the community?</text>
</g>
<!-- _18_0912_19_yes&#45;&gt;_18_0913_19 -->
<g id="edge35" class="edge">
<title>_18_0912_19_yes&#45;&gt;_18_0913_19</title>
<path fill="none" stroke="#000000" stroke-dasharray="1,5" d="M213,-245.2558C213,-245.2558 213,-219.0361 213,-219.0361"/>
<polygon fill="#000000" stroke="#000000" points="213,-209.0361 217.5001,-219.036 213,-214.0361 213.0001,-219.0361 213.0001,-219.0361 213.0001,-219.0361 213,-214.0361 208.5001,-219.0361 213,-209.0361 213,-209.0361"/>
</g>
<!-- _18_0913_19_yes -->
<g id="node44" class="node">
<title>_18_0913_19_yes</title>
<ellipse fill="none" stroke="#515151" stroke-dasharray="5,2" cx="206" cy="-115.6562" rx="18.8137" ry="18.8137"/>
<text text-anchor="middle" x="206" y="-112.6562" font-family="Helvetica,sans-Serif" font-size="10.00" fill="#515151">Yes</text>
</g>
<!-- _18_0913_19&#45;&gt;_18_0913_19_yes -->
<g id="edge37" class="edge">
<title>_18_0913_19&#45;&gt;_18_0913_19_yes</title>
<path fill="none" stroke="#000000" stroke-dasharray="1,5" d="M206,-170.7153C206,-159.5577 206,-145.5337 206,-134.4318"/>
</g>
<!-- _18_0913_19_No -->
<g id="node45" class="node">
<title>_18_0913_19_No</title>
<ellipse fill="#515151" stroke="#ffffff" cx="315" cy="-115.6562" rx="18" ry="18"/>
<text text-anchor="middle" x="315" y="-112.6562" font-family="Helvetica,sans-Serif" font-size="10.00" fill="#ffffff">No</text>
</g>
<!-- _18_0913_19&#45;&gt;_18_0913_19_No -->
<g id="edge39" class="edge">
<title>_18_0913_19&#45;&gt;_18_0913_19_No</title>
<path fill="none" stroke="#000000" stroke-dasharray="1,5" d="M315,-170.7153C315,-159.3002 315,-144.885 315,-133.668"/>
</g>
<!-- _18_0913_19_yes&#45;&gt;_18_0914_19 -->
<g id="edge38" class="edge">
<title>_18_0913_19_yes&#45;&gt;_18_0914_19</title>
<path fill="none" stroke="#000000" stroke-dasharray="1,5" d="M206,-96.8167C206,-96.8167 206,-70.519 206,-70.519"/>
<polygon fill="#000000" stroke="#000000" points="206,-60.519 210.5001,-70.519 206,-65.519 206.0001,-70.519 206.0001,-70.519 206.0001,-70.519 206,-65.519 201.5001,-70.5191 206,-60.519 206,-60.519"/>
</g>
<!-- FAIR -->
<g id="node46" class="node">
<title>FAIR</title>
<path fill="#3b8298" stroke="#ffffff" d="M162.9609,-769.0619C162.9609,-769.0619 325.0391,-769.0619 325.0391,-769.0619 331.0391,-769.0619 337.0391,-775.0619 337.0391,-781.0619 337.0391,-781.0619 337.0391,-795.0619 337.0391,-795.0619 337.0391,-801.0619 331.0391,-807.0619 325.0391,-807.0619 325.0391,-807.0619 162.9609,-807.0619 162.9609,-807.0619 156.9609,-807.0619 150.9609,-801.0619 150.9609,-795.0619 150.9609,-795.0619 150.9609,-781.0619 150.9609,-781.0619 150.9609,-775.0619 156.9609,-769.0619 162.9609,-769.0619"/>
<text text-anchor="middle" x="244" y="-795.0619" font-family="Helvetica,sans-Serif" font-size="10.00" fill="#ffffff">FAIR</text>
<text text-anchor="middle" x="244" y="-785.0619" font-family="Helvetica,sans-Serif" font-size="10.00" fill="#ffffff">Does your repository assign persistent</text>
<text text-anchor="middle" x="244" y="-775.0619" font-family="Helvetica,sans-Serif" font-size="10.00" fill="#ffffff">identifiers (PID)?</text>
</g>
<!-- FAIR_yes -->
<g id="node47" class="node">
<title>FAIR_yes</title>
<ellipse fill="none" stroke="#515151" stroke-dasharray="5,2" cx="213" cy="-708.9057" rx="18.8137" ry="18.8137"/>
<text text-anchor="middle" x="213" y="-705.9057" font-family="Helvetica,sans-Serif" font-size="10.00" fill="#515151">Yes</text>
</g>
<!-- FAIR&#45;&gt;FAIR_yes -->
<g id="edge40" class="edge">
<title>FAIR&#45;&gt;FAIR_yes</title>
<path fill="none" stroke="#000000" stroke-dasharray="1,5" d="M213,-768.9004C213,-756.3636 213,-740.0631 213,-727.6177"/>
</g>
<!-- FAIR_No -->
<g id="node48" class="node">
<title>FAIR_No</title>
<ellipse fill="#515151" stroke="#ffffff" cx="322" cy="-708.9057" rx="18" ry="18"/>
<text text-anchor="middle" x="322" y="-705.9057" font-family="Helvetica,sans-Serif" font-size="10.00" fill="#ffffff">No</text>
</g>
<!-- FAIR&#45;&gt;FAIR_No -->
<g id="edge42" class="edge">
<title>FAIR&#45;&gt;FAIR_No</title>
<path fill="none" stroke="#000000" stroke-dasharray="1,5" d="M320.5195,-768.9004C320.5195,-756.1806 320.5195,-739.5864 320.5195,-727.0751"/>
</g>
<!-- _18_0910_19 -->
<g id="node49" class="node">
<title>_18_0910_19</title>
<path fill="#3b8298" stroke="#ffffff" d="M162.0005,-616.7496C162.0005,-616.7496 327.9995,-616.7496 327.9995,-616.7496 333.9995,-616.7496 339.9995,-622.7496 339.9995,-628.7496 339.9995,-628.7496 339.9995,-640.7496 339.9995,-640.7496 339.9995,-646.7496 333.9995,-652.7496 327.9995,-652.7496 327.9995,-652.7496 162.0005,-652.7496 162.0005,-652.7496 156.0005,-652.7496 150.0005,-646.7496 150.0005,-640.7496 150.0005,-640.7496 150.0005,-628.7496 150.0005,-628.7496 150.0005,-622.7496 156.0005,-616.7496 162.0005,-616.7496"/>
<text text-anchor="middle" x="245" y="-636.7496" font-family="Helvetica,sans-Serif" font-size="10.00" fill="#ffffff">Does the PID resolve to a landing page</text>
<text text-anchor="middle" x="245" y="-626.7496" font-family="Helvetica,sans-Serif" font-size="10.00" fill="#ffffff">that describes the data?</text>
</g>
<!-- FAIR_yes&#45;&gt;_18_0910_19 -->
<g id="edge41" class="edge">
<title>FAIR_yes&#45;&gt;_18_0910_19</title>
<path fill="none" stroke="#000000" stroke-dasharray="1,5" d="M213,-690.193C213,-690.193 213,-662.9436 213,-662.9436"/>
<polygon fill="#000000" stroke="#000000" points="213,-652.9436 217.5001,-662.9436 213,-657.9436 213.0001,-662.9436 213.0001,-662.9436 213.0001,-662.9436 213,-657.9436 208.5001,-662.9437 213,-652.9436 213,-652.9436"/>
</g>
<!-- _18_0910_19_yes -->
<g id="node50" class="node">
<title>_18_0910_19_yes</title>
<ellipse fill="none" stroke="#515151" stroke-dasharray="5,2" cx="213" cy="-560.5934" rx="18.8137" ry="18.8137"/>
<text text-anchor="middle" x="213" y="-557.5934" font-family="Helvetica,sans-Serif" font-size="10.00" fill="#515151">Yes</text>
</g>
<!-- _18_0910_19&#45;&gt;_18_0910_19_yes -->
<g id="edge43" class="edge">
<title>_18_0910_19&#45;&gt;_18_0910_19_yes</title>
<path fill="none" stroke="#000000" stroke-dasharray="1,5" d="M213,-616.4188C213,-605.1816 213,-590.8267 213,-579.4875"/>
</g>
<!-- _18_0910_19_No -->
<g id="node51" class="node">
<title>_18_0910_19_No</title>
<ellipse fill="#515151" stroke="#ffffff" cx="322" cy="-560.5934" rx="18" ry="18"/>
<text text-anchor="middle" x="322" y="-557.5934" font-family="Helvetica,sans-Serif" font-size="10.00" fill="#ffffff">No</text>
</g>
<!-- _18_0910_19&#45;&gt;_18_0910_19_No -->
<g id="edge45" class="edge">
<title>_18_0910_19&#45;&gt;_18_0910_19_No</title>
<path fill="none" stroke="#000000" stroke-dasharray="1,5" d="M321.9998,-616.4188C321.9998,-604.9242 321.9998,-590.1676 321.9998,-578.7133"/>
</g>
<!-- _18_0911_19 -->
<g id="node52" class="node">
<title>_18_0911_19</title>
<path fill="#3b8298" stroke="#ffffff" d="M162.3306,-467.4372C162.3306,-467.4372 321.6694,-467.4372 321.6694,-467.4372 327.6694,-467.4372 333.6694,-473.4372 333.6694,-479.4372 333.6694,-479.4372 333.6694,-493.4372 333.6694,-493.4372 333.6694,-499.4372 327.6694,-505.4372 321.6694,-505.4372 321.6694,-505.4372 162.3306,-505.4372 162.3306,-505.4372 156.3306,-505.4372 150.3306,-499.4372 150.3306,-493.4372 150.3306,-493.4372 150.3306,-479.4372 150.3306,-479.4372 150.3306,-473.4372 156.3306,-467.4372 162.3306,-467.4372"/>
<text text-anchor="middle" x="242" y="-493.4372" font-family="Helvetica,sans-Serif" font-size="10.00" fill="#ffffff">Does the repository ensure the</text>
<text text-anchor="middle" x="242" y="-483.4372" font-family="Helvetica,sans-Serif" font-size="10.00" fill="#ffffff">persistence of the data and/or landing</text>
<text text-anchor="middle" x="242" y="-473.4372" font-family="Helvetica,sans-Serif" font-size="10.00" fill="#ffffff">pages?</text>
</g>
<!-- _18_0910_19_yes&#45;&gt;_18_0911_19 -->
<g id="edge44" class="edge">
<title>_18_0910_19_yes&#45;&gt;_18_0911_19</title>
<path fill="none" stroke="#000000" stroke-dasharray="1,5" d="M213,-541.8806C213,-541.8806 213,-515.6608 213,-515.6608"/>
<polygon fill="#000000" stroke="#000000" points="213,-505.6608 217.5001,-515.6608 213,-510.6608 213.0001,-515.6608 213.0001,-515.6608 213.0001,-515.6608 213,-510.6608 208.5001,-515.6609 213,-505.6608 213,-505.6608"/>
</g>
<!-- _18_0911_19_yes -->
<g id="node53" class="node">
<title>_18_0911_19_yes</title>
<ellipse fill="none" stroke="#515151" stroke-dasharray="5,2" cx="213" cy="-412.281" rx="18.8137" ry="18.8137"/>
<text text-anchor="middle" x="213" y="-409.281" font-family="Helvetica,sans-Serif" font-size="10.00" fill="#515151">Yes</text>
</g>
<!-- _18_0911_19&#45;&gt;_18_0911_19_yes -->
<g id="edge46" class="edge">
<title>_18_0911_19&#45;&gt;_18_0911_19_yes</title>
<path fill="none" stroke="#000000" stroke-dasharray="1,5" d="M213,-467.3401C213,-456.1825 213,-442.1585 213,-431.0566"/>
</g>
<!-- _18_0911_19_No -->
<g id="node54" class="node">
<title>_18_0911_19_No</title>
<ellipse fill="#515151" stroke="#ffffff" cx="322" cy="-412.281" rx="18" ry="18"/>
<text text-anchor="middle" x="322" y="-409.281" font-family="Helvetica,sans-Serif" font-size="10.00" fill="#ffffff">No</text>
</g>
<!-- _18_0911_19&#45;&gt;_18_0911_19_No -->
<g id="edge48" class="edge">
<title>_18_0911_19&#45;&gt;_18_0911_19_No</title>
<path fill="none" stroke="#000000" stroke-dasharray="1,5" d="M318.8347,-467.3401C318.8347,-455.8392 318.8347,-441.2928 318.8347,-430.0403"/>
</g>
<!-- _18_0911_19_yes&#45;&gt;_18_0912_19 -->
<g id="edge47" class="edge">
<title>_18_0911_19_yes&#45;&gt;_18_0912_19</title>
<path fill="none" stroke="#000000" stroke-dasharray="1,5" d="M213,-393.5682C213,-393.5682 213,-367.3484 213,-367.3484"/>
<polygon fill="#000000" stroke="#000000" points="213,-357.3484 217.5001,-367.3484 213,-362.3484 213.0001,-367.3484 213.0001,-367.3484 213.0001,-367.3484 213,-362.3484 208.5001,-367.3485 213,-357.3484 213,-357.3484"/>
</g>
</g>
</svg>
