<?xml version="1.0" encoding="UTF-8" standalone="no"?>
<!DOCTYPE svg PUBLIC "-//W3C//DTD SVG 1.1//EN"
 "http://www.w3.org/Graphics/SVG/1.1/DTD/svg11.dtd">
<!-- Generated by graphviz version 2.40.1 (20161225.0304)
 -->
<!-- Title: decisionGraph Pages: 1 -->
<svg width="840pt" height="666pt"
 viewBox="0.00 0.00 840.00 665.62" xmlns="http://www.w3.org/2000/svg" xmlns:xlink="http://www.w3.org/1999/xlink">
<g id="graph0" class="graph" transform="scale(1 1) rotate(0) translate(4 661.6248)">
<title>decisionGraph</title>
<polygon fill="#ffffff" stroke="transparent" points="-4,4 -4,-661.6248 836,-661.6248 836,4 -4,4"/>
<g id="clust1" class="cluster">
<title>cluster_DecisionGraph_176</title>
<polygon fill="none" stroke="#000000" points="8,-8 8,-613.6248 824,-613.6248 824,-8 8,-8"/>
<text text-anchor="middle" x="416" y="-598.4248" font-family="Courier,monospace" font-size="14.00" fill="#000000">DecisionGraph&#45;6</text>
</g>
<g id="clust2" class="cluster">
<title>cluster_ogp1_171</title>
<polygon fill="none" stroke="#aabbdd" points="16,-16 16,-583.6248 816,-583.6248 816,-16 16,-16"/>
<text text-anchor="middle" x="49.2041" y="-568.4248" font-family="Courier,monospace" font-size="14.00" fill="#000000">ogp1&#45;1</text>
</g>
<!-- NODE___________START_ -->
<g id="node1" class="node">
<title>NODE___________START_</title>
<polygon fill="transparent" stroke="transparent" points="357,-657.6248 303,-657.6248 303,-621.6248 357,-621.6248 357,-657.6248"/>
<text text-anchor="middle" x="330" y="-636.0248" font-family="Helvetica,sans-Serif" font-size="12.00" fill="#3b8298">Start</text>
</g>
<!-- ogp1_171 -->
<g id="node2" class="node">
<title>ogp1_171</title>
<path fill="#3b8298" stroke="#ffffff" d="M252.0054,-517.1248C252.0054,-517.1248 407.9946,-517.1248 407.9946,-517.1248 413.9946,-517.1248 419.9946,-523.1248 419.9946,-529.1248 419.9946,-529.1248 419.9946,-541.1248 419.9946,-541.1248 419.9946,-547.1248 413.9946,-553.1248 407.9946,-553.1248 407.9946,-553.1248 252.0054,-553.1248 252.0054,-553.1248 246.0054,-553.1248 240.0054,-547.1248 240.0054,-541.1248 240.0054,-541.1248 240.0054,-529.1248 240.0054,-529.1248 240.0054,-523.1248 246.0054,-517.1248 252.0054,-517.1248"/>
<text text-anchor="middle" x="330" y="-537.1248" font-family="Helvetica,sans-Serif" font-size="10.00" fill="#ffffff">ogp1&#45;1</text>
<text text-anchor="middle" x="330" y="-527.1248" font-family="Helvetica,sans-Serif" font-size="10.00" fill="#ffffff">Has the grant proposal been written?</text>
</g>
<!-- NODE___________START_&#45;&gt;ogp1_171 -->
<g id="edge19" class="edge">
<title>NODE___________START_&#45;&gt;ogp1_171</title>
<path fill="none" stroke="#3b8298" d="M330,-621.4223C330,-621.4223 330,-563.4693 330,-563.4693"/>
<polygon fill="#3b8298" stroke="#3b8298" points="330,-553.4693 334.5001,-563.4693 330,-558.4693 330.0001,-563.4693 330.0001,-563.4693 330.0001,-563.4693 330,-558.4693 325.5001,-563.4694 330,-553.4693 330,-553.4693"/>
</g>
<!-- ogp1_171_yes -->
<g id="node3" class="node">
<title>ogp1_171_yes</title>
<ellipse fill="none" stroke="#515151" stroke-dasharray="5,2" cx="276" cy="-461.9686" rx="18.8137" ry="18.8137"/>
<text text-anchor="middle" x="276" y="-458.9686" font-family="Helvetica,sans-Serif" font-size="10.00" fill="#515151">Yes</text>
</g>
<!-- ogp1_171&#45;&gt;ogp1_171_yes -->
<g id="edge1" class="edge">
<title>ogp1_171&#45;&gt;ogp1_171_yes</title>
<path fill="none" stroke="#000000" stroke-dasharray="1,5" d="M276,-517.0412C276,-506.0402 276,-492.0103 276,-480.8646"/>
</g>
<!-- ogp1_171_no -->
<g id="node13" class="node">
<title>ogp1_171_no</title>
<ellipse fill="#515151" stroke="#ffffff" cx="457" cy="-461.9686" rx="18" ry="18"/>
<text text-anchor="middle" x="457" y="-458.9686" font-family="Helvetica,sans-Serif" font-size="10.00" fill="#ffffff">No</text>
</g>
<!-- ogp1_171&#45;&gt;ogp1_171_no -->
<g id="edge11" class="edge">
<title>ogp1_171&#45;&gt;ogp1_171_no</title>
<path fill="none" stroke="#000000" stroke-dasharray="1,5" d="M411.5024,-516.8018C411.5024,-494.8513 411.5024,-461 411.5024,-461 411.5024,-461 426.3008,-461 439.0182,-461"/>
</g>
<!-- ogp1_172 -->
<g id="node4" class="node">
<title>ogp1_172</title>
<path fill="#3b8298" stroke="#ffffff" d="M160.8994,-364.8124C160.8994,-364.8124 319.1006,-364.8124 319.1006,-364.8124 325.1006,-364.8124 331.1006,-370.8124 331.1006,-376.8124 331.1006,-376.8124 331.1006,-388.8124 331.1006,-388.8124 331.1006,-394.8124 325.1006,-400.8124 319.1006,-400.8124 319.1006,-400.8124 160.8994,-400.8124 160.8994,-400.8124 154.8994,-400.8124 148.8994,-394.8124 148.8994,-388.8124 148.8994,-388.8124 148.8994,-376.8124 148.8994,-376.8124 148.8994,-370.8124 154.8994,-364.8124 160.8994,-364.8124"/>
<text text-anchor="middle" x="240" y="-384.8124" font-family="Helvetica,sans-Serif" font-size="10.00" fill="#ffffff">ogp1&#45;2</text>
<text text-anchor="middle" x="240" y="-374.8124" font-family="Helvetica,sans-Serif" font-size="10.00" fill="#ffffff">Do you have permission to publish it?</text>
</g>
<!-- ogp1_171_yes&#45;&gt;ogp1_172 -->
<g id="edge10" class="edge">
<title>ogp1_171_yes&#45;&gt;ogp1_172</title>
<path fill="none" stroke="#000000" stroke-dasharray="1,5" d="M276,-443.2097C276,-443.2097 276,-410.8918 276,-410.8918"/>
<polygon fill="#000000" stroke="#000000" points="276,-400.8918 280.5001,-410.8917 276,-405.8918 276.0001,-410.8918 276.0001,-410.8918 276.0001,-410.8918 276,-405.8918 271.5001,-410.8918 276,-400.8918 276,-400.8918"/>
</g>
<!-- ogp1_172_yes -->
<g id="node5" class="node">
<title>ogp1_172_yes</title>
<ellipse fill="none" stroke="#515151" stroke-dasharray="5,2" cx="115" cy="-303.6562" rx="18.8137" ry="18.8137"/>
<text text-anchor="middle" x="115" y="-300.6562" font-family="Helvetica,sans-Serif" font-size="10.00" fill="#515151">Yes</text>
</g>
<!-- ogp1_172&#45;&gt;ogp1_172_yes -->
<g id="edge2" class="edge">
<title>ogp1_172&#45;&gt;ogp1_172_yes</title>
<path fill="none" stroke="#000000" stroke-dasharray="1,5" d="M148.8268,-382C129.6031,-382 115,-382 115,-382 115,-382 115,-345.8071 115,-322.621"/>
</g>
<!-- ogp1_172_no -->
<g id="node9" class="node">
<title>ogp1_172_no</title>
<ellipse fill="#515151" stroke="#ffffff" cx="247" cy="-303.6562" rx="18" ry="18"/>
<text text-anchor="middle" x="247" y="-300.6562" font-family="Helvetica,sans-Serif" font-size="10.00" fill="#ffffff">No</text>
</g>
<!-- ogp1_172&#45;&gt;ogp1_172_no -->
<g id="edge6" class="edge">
<title>ogp1_172&#45;&gt;ogp1_172_no</title>
<path fill="none" stroke="#000000" stroke-dasharray="1,5" d="M247,-364.4534C247,-351.6655 247,-334.6816 247,-321.9156"/>
</g>
<!-- _18_091_19 -->
<g id="node6" class="node">
<title>_18_091_19</title>
<path fill="#77a576" stroke="#ffffff" d="M50.1641,-202C50.1641,-202 135.8359,-202 135.8359,-202 141.8359,-202 147.8359,-208 147.8359,-214 147.8359,-214 147.8359,-226 147.8359,-226 147.8359,-232 141.8359,-238 135.8359,-238 135.8359,-238 50.1641,-238 50.1641,-238 44.1641,-238 38.1641,-232 38.1641,-226 38.1641,-226 38.1641,-214 38.1641,-214 38.1641,-208 44.1641,-202 50.1641,-202"/>
<text text-anchor="middle" x="93" y="-217" font-family="Helvetica,sans-Serif" font-size="10.00" fill="#ffffff">ComplianceLevel=L1</text>
</g>
<!-- ogp1_172_yes&#45;&gt;_18_091_19 -->
<g id="edge5" class="edge">
<title>ogp1_172_yes&#45;&gt;_18_091_19</title>
<path fill="none" stroke="#000000" stroke-dasharray="1,5" d="M115,-284.6733C115,-284.6733 115,-248.0475 115,-248.0475"/>
<polygon fill="#000000" stroke="#000000" points="115,-238.0475 119.5001,-248.0475 115,-243.0475 115.0001,-248.0475 115.0001,-248.0475 115.0001,-248.0475 115,-243.0475 110.5001,-248.0476 115,-238.0475 115,-238.0475"/>
</g>
<!-- _18_092_19 -->
<g id="node7" class="node">
<title>_18_092_19</title>
<polygon fill="#aaffaa" stroke="#ffffff" points="192.4234,-154.5 23.5766,-154.5 23.5766,-118.5 198.4234,-118.5 198.4234,-148.5 192.4234,-154.5"/>
<polyline fill="none" stroke="#ffffff" points="192.4234,-154.5 192.4234,-148.5 "/>
<polyline fill="none" stroke="#ffffff" points="198.4234,-148.5 192.4234,-148.5 "/>
<text text-anchor="middle" x="111" y="-138.5" font-family="Helvetica,sans-Serif" font-size="10.00" fill="#888888">todo</text>
<text text-anchor="middle" x="111" y="-128.5" font-family="Helvetica,sans-Serif" font-size="10.00" fill="#888888">Compliance Level might also be L2.</text>
</g>
<!-- _18_091_19&#45;&gt;_18_092_19 -->
<g id="edge4" class="edge">
<title>_18_091_19&#45;&gt;_18_092_19</title>
<path fill="none" stroke="#000000" stroke-dasharray="1,5" d="M93,-201.8817C93,-201.8817 93,-164.5829 93,-164.5829"/>
<polygon fill="#000000" stroke="#000000" points="93,-154.5829 97.5001,-164.5829 93,-159.5829 93.0001,-164.5829 93.0001,-164.5829 93.0001,-164.5829 93,-159.5829 88.5001,-164.5829 93,-154.5829 93,-154.5829"/>
</g>
<!-- _18_093_19 -->
<g id="node8" class="node">
<title>_18_093_19</title>
<polygon fill="#aaffaa" stroke="#ffffff" points="185.527,-71 26.473,-71 26.473,-35 191.527,-35 191.527,-65 185.527,-71"/>
<polyline fill="none" stroke="#ffffff" points="185.527,-71 185.527,-65 "/>
<polyline fill="none" stroke="#ffffff" points="191.527,-65 185.527,-65 "/>
<text text-anchor="middle" x="109" y="-55" font-family="Helvetica,sans-Serif" font-size="10.00" fill="#888888">todo</text>
<text text-anchor="middle" x="109" y="-45" font-family="Helvetica,sans-Serif" font-size="10.00" fill="#888888">GoTo publishing Grant Proposals.</text>
</g>
<!-- _18_092_19&#45;&gt;_18_093_19 -->
<g id="edge3" class="edge">
<title>_18_092_19&#45;&gt;_18_093_19</title>
<path fill="none" stroke="#000000" stroke-dasharray="1,5" d="M109,-118.3817C109,-118.3817 109,-81.0829 109,-81.0829"/>
<polygon fill="#000000" stroke="#000000" points="109,-71.0829 113.5001,-81.0829 109,-76.0829 109.0001,-81.0829 109.0001,-81.0829 109.0001,-81.0829 109,-76.0829 104.5001,-81.0829 109,-71.0829 109,-71.0829"/>
</g>
<!-- _18_094_19 -->
<g id="node10" class="node">
<title>_18_094_19</title>
<path fill="#77a576" stroke="#ffffff" d="M232.1641,-202C232.1641,-202 317.8359,-202 317.8359,-202 323.8359,-202 329.8359,-208 329.8359,-214 329.8359,-214 329.8359,-226 329.8359,-226 329.8359,-232 323.8359,-238 317.8359,-238 317.8359,-238 232.1641,-238 232.1641,-238 226.1641,-238 220.1641,-232 220.1641,-226 220.1641,-226 220.1641,-214 220.1641,-214 220.1641,-208 226.1641,-202 232.1641,-202"/>
<text text-anchor="middle" x="275" y="-217" font-family="Helvetica,sans-Serif" font-size="10.00" fill="#ffffff">ComplianceLevel=L3</text>
</g>
<!-- ogp1_172_no&#45;&gt;_18_094_19 -->
<g id="edge9" class="edge">
<title>ogp1_172_no&#45;&gt;_18_094_19</title>
<path fill="none" stroke="#000000" stroke-dasharray="1,5" d="M247,-285.504C247,-285.504 247,-248.1167 247,-248.1167"/>
<polygon fill="#000000" stroke="#000000" points="247,-238.1167 251.5001,-248.1167 247,-243.1167 247.0001,-248.1167 247.0001,-248.1167 247.0001,-248.1167 247,-243.1167 242.5001,-248.1168 247,-238.1167 247,-238.1167"/>
</g>
<!-- _18_095_19 -->
<g id="node11" class="node">
<title>_18_095_19</title>
<polygon fill="#aaffaa" stroke="#ffffff" points="438.4234,-154.5 269.5766,-154.5 269.5766,-118.5 444.4234,-118.5 444.4234,-148.5 438.4234,-154.5"/>
<polyline fill="none" stroke="#ffffff" points="438.4234,-154.5 438.4234,-148.5 "/>
<polyline fill="none" stroke="#ffffff" points="444.4234,-148.5 438.4234,-148.5 "/>
<text text-anchor="middle" x="357" y="-138.5" font-family="Helvetica,sans-Serif" font-size="10.00" fill="#888888">todo</text>
<text text-anchor="middle" x="357" y="-128.5" font-family="Helvetica,sans-Serif" font-size="10.00" fill="#888888">Compliance Level might also be L4.</text>
</g>
<!-- _18_094_19&#45;&gt;_18_095_19 -->
<g id="edge8" class="edge">
<title>_18_094_19&#45;&gt;_18_095_19</title>
<path fill="none" stroke="#000000" stroke-dasharray="1,5" d="M299.8123,-201.8817C299.8123,-201.8817 299.8123,-164.5829 299.8123,-164.5829"/>
<polygon fill="#000000" stroke="#000000" points="299.8123,-154.5829 304.3124,-164.5829 299.8123,-159.5829 299.8124,-164.5829 299.8124,-164.5829 299.8124,-164.5829 299.8123,-159.5829 295.3124,-164.5829 299.8123,-154.5829 299.8123,-154.5829"/>
</g>
<!-- _18_096_19 -->
<g id="node12" class="node">
<title>_18_096_19</title>
<polygon fill="#aaffaa" stroke="#ffffff" points="452.4282,-82 263.5718,-82 263.5718,-24 458.4282,-24 458.4282,-76 452.4282,-82"/>
<polyline fill="none" stroke="#ffffff" points="452.4282,-82 452.4282,-76 "/>
<polyline fill="none" stroke="#ffffff" points="458.4282,-76 452.4282,-76 "/>
<text text-anchor="middle" x="361" y="-70" font-family="Helvetica,sans-Serif" font-size="10.00" fill="#888888">todo</text>
<text text-anchor="middle" x="361" y="-60" font-family="Helvetica,sans-Serif" font-size="10.00" fill="#888888">Depending on the specific query and its</text>
<text text-anchor="middle" x="361" y="-50" font-family="Helvetica,sans-Serif" font-size="10.00" fill="#888888">results, could go back to OGP1&#45;2 one or</text>
<text text-anchor="middle" x="361" y="-40" font-family="Helvetica,sans-Serif" font-size="10.00" fill="#888888">more times. If &#39;yes&#39; cannot be reached</text>
<text text-anchor="middle" x="361" y="-30" font-family="Helvetica,sans-Serif" font-size="10.00" fill="#888888">then Outcome will be L3 or L4</text>
</g>
<!-- _18_095_19&#45;&gt;_18_096_19 -->
<g id="edge7" class="edge">
<title>_18_095_19&#45;&gt;_18_096_19</title>
<path fill="none" stroke="#000000" stroke-dasharray="1,5" d="M357,-118.3817C357,-118.3817 357,-92.2446 357,-92.2446"/>
<polygon fill="#000000" stroke="#000000" points="357,-82.2446 361.5001,-92.2445 357,-87.2446 357.0001,-92.2446 357.0001,-92.2446 357.0001,-92.2446 357,-87.2446 352.5001,-92.2446 357,-82.2446 357,-82.2446"/>
</g>
<!-- ogp1_173 -->
<g id="node14" class="node">
<title>ogp1_173</title>
<path fill="#3b8298" stroke="#ffffff" d="M415.0103,-358.8124C415.0103,-358.8124 570.9897,-358.8124 570.9897,-358.8124 576.9897,-358.8124 582.9897,-364.8124 582.9897,-370.8124 582.9897,-370.8124 582.9897,-394.8124 582.9897,-394.8124 582.9897,-400.8124 576.9897,-406.8124 570.9897,-406.8124 570.9897,-406.8124 415.0103,-406.8124 415.0103,-406.8124 409.0103,-406.8124 403.0103,-400.8124 403.0103,-394.8124 403.0103,-394.8124 403.0103,-370.8124 403.0103,-370.8124 403.0103,-364.8124 409.0103,-358.8124 415.0103,-358.8124"/>
<text text-anchor="middle" x="493" y="-394.8124" font-family="Helvetica,sans-Serif" font-size="10.00" fill="#ffffff">ogp1&#45;3</text>
<text text-anchor="middle" x="493" y="-384.8124" font-family="Helvetica,sans-Serif" font-size="10.00" fill="#ffffff">Is there a known, suitable method for</text>
<text text-anchor="middle" x="493" y="-374.8124" font-family="Helvetica,sans-Serif" font-size="10.00" fill="#ffffff">writing it openly? This includes</text>
<text text-anchor="middle" x="493" y="-364.8124" font-family="Helvetica,sans-Serif" font-size="10.00" fill="#ffffff">permission to publish</text>
</g>
<!-- ogp1_171_no&#45;&gt;ogp1_173 -->
<g id="edge18" class="edge">
<title>ogp1_171_no&#45;&gt;ogp1_173</title>
<path fill="none" stroke="#000000" stroke-dasharray="1,5" d="M457,-443.6096C457,-443.6096 457,-417.0728 457,-417.0728"/>
<polygon fill="#000000" stroke="#000000" points="457,-407.0728 461.5001,-417.0728 457,-412.0728 457.0001,-417.0728 457.0001,-417.0728 457.0001,-417.0728 457,-412.0728 452.5001,-417.0729 457,-407.0728 457,-407.0728"/>
</g>
<!-- ogp1_173_yes -->
<g id="node15" class="node">
<title>ogp1_173_yes</title>
<ellipse fill="none" stroke="#515151" stroke-dasharray="5,2" cx="479" cy="-303.6562" rx="18.8137" ry="18.8137"/>
<text text-anchor="middle" x="479" y="-300.6562" font-family="Helvetica,sans-Serif" font-size="10.00" fill="#515151">Yes</text>
</g>
<!-- ogp1_173&#45;&gt;ogp1_173_yes -->
<g id="edge12" class="edge">
<title>ogp1_173&#45;&gt;ogp1_173_yes</title>
<path fill="none" stroke="#000000" stroke-dasharray="1,5" d="M479,-358.6328C479,-346.9936 479,-333.2495 479,-322.4151"/>
</g>
<!-- ogp1_173_no -->
<g id="node18" class="node">
<title>ogp1_173_no</title>
<ellipse fill="#515151" stroke="#ffffff" cx="653" cy="-303.6562" rx="18" ry="18"/>
<text text-anchor="middle" x="653" y="-300.6562" font-family="Helvetica,sans-Serif" font-size="10.00" fill="#ffffff">No</text>
</g>
<!-- ogp1_173&#45;&gt;ogp1_173_no -->
<g id="edge15" class="edge">
<title>ogp1_173&#45;&gt;ogp1_173_no</title>
<path fill="none" stroke="#000000" stroke-dasharray="1,5" d="M562.3457,-358.4324C562.3457,-334.961 562.3457,-303 562.3457,-303 562.3457,-303 608.1653,-303 634.6548,-303"/>
</g>
<!-- _18_097_19 -->
<g id="node16" class="node">
<title>_18_097_19</title>
<polygon fill="#aaffaa" stroke="#ffffff" points="535.9039,-238 402.0961,-238 402.0961,-202 541.9039,-202 541.9039,-232 535.9039,-238"/>
<polyline fill="none" stroke="#ffffff" points="535.9039,-238 535.9039,-232 "/>
<polyline fill="none" stroke="#ffffff" points="541.9039,-232 535.9039,-232 "/>
<text text-anchor="middle" x="472" y="-222" font-family="Helvetica,sans-Serif" font-size="10.00" fill="#888888">todo</text>
<text text-anchor="middle" x="472" y="-212" font-family="Helvetica,sans-Serif" font-size="10.00" fill="#888888">Got to Publishing Proposals</text>
</g>
<!-- ogp1_173_yes&#45;&gt;_18_097_19 -->
<g id="edge14" class="edge">
<title>ogp1_173_yes&#45;&gt;_18_097_19</title>
<path fill="none" stroke="#000000" stroke-dasharray="1,5" d="M479,-284.6733C479,-284.6733 479,-248.0475 479,-248.0475"/>
<polygon fill="#000000" stroke="#000000" points="479,-238.0475 483.5001,-248.0475 479,-243.0475 479.0001,-248.0475 479.0001,-248.0475 479.0001,-248.0475 479,-243.0475 474.5001,-248.0476 479,-238.0475 479,-238.0475"/>
</g>
<!-- _18_098_19 -->
<g id="node17" class="node">
<title>_18_098_19</title>
<path fill="#77a576" stroke="#ffffff" d="M528.1641,-118.5C528.1641,-118.5 613.8359,-118.5 613.8359,-118.5 619.8359,-118.5 625.8359,-124.5 625.8359,-130.5 625.8359,-130.5 625.8359,-142.5 625.8359,-142.5 625.8359,-148.5 619.8359,-154.5 613.8359,-154.5 613.8359,-154.5 528.1641,-154.5 528.1641,-154.5 522.1641,-154.5 516.1641,-148.5 516.1641,-142.5 516.1641,-142.5 516.1641,-130.5 516.1641,-130.5 516.1641,-124.5 522.1641,-118.5 528.1641,-118.5"/>
<text text-anchor="middle" x="571" y="-133.5" font-family="Helvetica,sans-Serif" font-size="10.00" fill="#ffffff">ComplianceLevel=L1</text>
</g>
<!-- _18_097_19&#45;&gt;_18_098_19 -->
<g id="edge13" class="edge">
<title>_18_097_19&#45;&gt;_18_098_19</title>
<path fill="none" stroke="#000000" stroke-dasharray="1,5" d="M528.9329,-201.8817C528.9329,-201.8817 528.9329,-164.5829 528.9329,-164.5829"/>
<polygon fill="#000000" stroke="#000000" points="528.9329,-154.5829 533.433,-164.5829 528.9329,-159.5829 528.933,-164.5829 528.933,-164.5829 528.933,-164.5829 528.9329,-159.5829 524.433,-164.5829 528.9329,-154.5829 528.9329,-154.5829"/>
</g>
<!-- _18_099_19 -->
<g id="node19" class="node">
<title>_18_099_19</title>
<polygon fill="#aaffaa" stroke="#ffffff" points="802.4282,-249 613.5718,-249 613.5718,-191 808.4282,-191 808.4282,-243 802.4282,-249"/>
<polyline fill="none" stroke="#ffffff" points="802.4282,-249 802.4282,-243 "/>
<polyline fill="none" stroke="#ffffff" points="808.4282,-243 802.4282,-243 "/>
<text text-anchor="middle" x="711" y="-237" font-family="Helvetica,sans-Serif" font-size="10.00" fill="#888888">todo</text>
<text text-anchor="middle" x="711" y="-227" font-family="Helvetica,sans-Serif" font-size="10.00" fill="#888888">Depending on the specific query and its</text>
<text text-anchor="middle" x="711" y="-217" font-family="Helvetica,sans-Serif" font-size="10.00" fill="#888888">results, could go back to OGP1&#45;3 one or</text>
<text text-anchor="middle" x="711" y="-207" font-family="Helvetica,sans-Serif" font-size="10.00" fill="#888888">more times. If &#39;yes&#39; cannot be reached</text>
<text text-anchor="middle" x="711" y="-197" font-family="Helvetica,sans-Serif" font-size="10.00" fill="#888888">then Outcome will be L3 or L4</text>
</g>
<!-- ogp1_173_no&#45;&gt;_18_099_19 -->
<g id="edge17" class="edge">
<title>ogp1_173_no&#45;&gt;_18_099_19</title>
<path fill="none" stroke="#000000" stroke-dasharray="1,5" d="M653,-285.504C653,-285.504 653,-259.2993 653,-259.2993"/>
<polygon fill="#000000" stroke="#000000" points="653,-249.2993 657.5001,-259.2992 653,-254.2993 653.0001,-259.2993 653.0001,-259.2993 653.0001,-259.2993 653,-254.2993 648.5001,-259.2993 653,-249.2993 653,-249.2993"/>
</g>
<!-- _18_0910_19 -->
<g id="node20" class="node">
<title>_18_0910_19</title>
<path fill="#77a576" stroke="#ffffff" d="M710.1641,-118.5C710.1641,-118.5 795.8359,-118.5 795.8359,-118.5 801.8359,-118.5 807.8359,-124.5 807.8359,-130.5 807.8359,-130.5 807.8359,-142.5 807.8359,-142.5 807.8359,-148.5 801.8359,-154.5 795.8359,-154.5 795.8359,-154.5 710.1641,-154.5 710.1641,-154.5 704.1641,-154.5 698.1641,-148.5 698.1641,-142.5 698.1641,-142.5 698.1641,-130.5 698.1641,-130.5 698.1641,-124.5 704.1641,-118.5 710.1641,-118.5"/>
<text text-anchor="middle" x="753" y="-133.5" font-family="Helvetica,sans-Serif" font-size="10.00" fill="#ffffff">ComplianceLevel=L3</text>
</g>
<!-- _18_099_19&#45;&gt;_18_0910_19 -->
<g id="edge16" class="edge">
<title>_18_099_19&#45;&gt;_18_0910_19</title>
<path fill="none" stroke="#000000" stroke-dasharray="1,5" d="M753,-190.7958C753,-190.7958 753,-164.6183 753,-164.6183"/>
<polygon fill="#000000" stroke="#000000" points="753,-154.6183 757.5001,-164.6182 753,-159.6183 753.0001,-164.6183 753.0001,-164.6183 753.0001,-164.6183 753,-159.6183 748.5001,-164.6183 753,-154.6183 753,-154.6183"/>
</g>
</g>
</svg>
